<svg fill="none" height="16" viewBox="0 0 16 16" width="16" xmlns="http://www.w3.org/2000/svg" xmlns:xlink="http://www.w3.org/1999/xlink"><mask id="a" height="16" maskUnits="userSpaceOnUse" width="16" x="0" y="0"><path d="m8 16c4.4183 0 8-3.5817 8-8 0-4.41828-3.5817-8-8-8-4.41828 0-8 3.58172-8 8 0 4.4183 3.58172 8 8 8z" fill="#fff"/></mask><g mask="url(#a)"><path d="m0 0h16v16h-16z" fill="#0052b4"/><path d="m8.00156 3.13086.25938.79687h.83437l-.67812.49063.25937.8-.67812-.49375-.67813.49375.25938-.8-.67813-.49063h.8375zm-3.44375 1.425.75.38125.59063-.59375-.13125.82812.74687.38125-.82812.13125-.13125.82813-.38125-.75-.82813.13437.59375-.59375zm-1.425 3.44375.79688-.25938v-.83437l.49062.67812.8-.25937-.49375.67812.49375.67813-.8-.25938-.49062.67813v-.8375zm1.425 3.44379.38125-.75-.59375-.5907.82813.1313.38125-.74689.13125.82809.82812.1313-.75.3812.13438.8282-.59375-.5938zm3.44375 1.425-.25937-.7969h-.83438l.67813-.4906-.25938-.8.67813.4937.67812-.4937-.25937.8.67812.4906h-.8375zm3.44374-1.425-.75-.3813-.5906.5938.1312-.8282-.74684-.3812.82814-.1313.1312-.82809.3813.74999.8281-.1344-.5937.5938zm1.425-3.44379-.7969.25937v.83438l-.4906-.67813-.8.25938.4938-.67813-.4938-.67812.8.25937.4906-.67812v.8375zm-1.425-3.44375-.3812.75.5937.59062-.8281-.13125-.3813.74688-.1312-.82813-.82814-.13125.75004-.38125-.1344-.82812.5937.59375z" fill="#ffda44"/></g></svg>