<svg width="17" height="16" viewBox="0 0 17 16" fill="none" xmlns="http://www.w3.org/2000/svg">
<path d="M6.27062 15.546V11.866L3.52396 13.8927C4.29729 14.6127 5.23062 15.1727 6.27062 15.546ZM11.604 15.546C12.644 15.1727 13.5773 14.6127 14.3506 13.8927L11.604 11.8393V15.546ZM1.39062 10.666C1.47062 10.9327 1.57729 11.1727 1.71062 11.4393L2.75063 10.666H1.39062ZM15.124 10.666L16.164 11.4393C16.2706 11.1993 16.3773 10.9327 16.484 10.666H15.124Z" fill="#2A5F9E"/>
<path d="M6.67099 9.59961H1.09766C1.17766 9.97294 1.28432 10.3196 1.39099 10.6663H2.75099L1.71099 11.4396C1.92432 11.8929 2.16432 12.2929 2.45766 12.6929L5.20432 10.6663H6.27099V11.1996L3.15099 13.4929L3.52432 13.8663L6.27099 11.8663V15.5463C6.61766 15.6796 6.96432 15.7596 7.33766 15.8396V9.59961H6.67099ZM16.7777 9.59961H10.5377V15.8396C10.911 15.7596 11.2577 15.6529 11.6043 15.5463V11.8663L14.351 13.8663C14.7243 13.5196 15.0443 13.1463 15.3643 12.7463L12.511 10.6663H14.3243L15.951 11.8663C16.031 11.7329 16.111 11.5729 16.1643 11.4396L15.1243 10.6663H16.4843C16.591 10.3196 16.6977 9.97294 16.7777 9.59961Z" fill="white"/>
<path d="M2.46094 12.6927C2.67427 12.986 2.8876 13.2527 3.1276 13.5193L6.27427 11.226V10.6927H5.2076L2.46094 12.6927ZM12.5409 10.666L15.3943 12.746C15.5009 12.6127 15.5809 12.4793 15.6876 12.346C15.7143 12.3193 15.7143 12.2927 15.7409 12.2927C15.8209 12.1593 15.9276 11.9993 16.0076 11.866L14.3276 10.666H12.5409Z" fill="#ED4C5C"/>
<path d="M11.604 0.453125V4.13312L14.3506 2.10646C13.5773 1.38646 12.644 0.826458 11.604 0.453125ZM6.27062 0.453125C5.23062 0.826458 4.29729 1.38646 3.52396 2.10646L6.27062 4.15979V0.453125ZM16.484 5.33312C16.404 5.06646 16.2973 4.82646 16.164 4.55979L15.124 5.33312H16.484ZM2.75063 5.33312L1.71062 4.55979C1.60396 4.82646 1.49729 5.06646 1.39062 5.33312H2.75063Z" fill="#2A5F9E"/>
<path d="M11.2043 6.40016H16.751C16.671 6.02682 16.5643 5.68016 16.4577 5.33349H15.0977L16.1377 4.56016C15.9243 4.10682 15.6843 3.70682 15.391 3.30682L12.671 5.33349H11.6043V4.80016L14.7243 2.50682L14.351 2.13349L11.6043 4.13349V0.45349C11.2577 0.320156 10.911 0.240156 10.5377 0.160156V6.40016H11.2043ZM1.09766 6.40016H7.33766V0.160156C6.96432 0.240156 6.61766 0.346823 6.27099 0.45349V4.13349L3.52432 2.13349C3.15099 2.48016 2.83099 2.85349 2.51099 3.25349L5.36432 5.33349H3.55099L1.92432 4.13349C1.84432 4.26682 1.76432 4.42682 1.71099 4.56016L2.75099 5.33349H1.39099C1.28432 5.68016 1.17766 6.02682 1.09766 6.40016Z" fill="white"/>
<path d="M15.4184 3.30714C15.2051 3.0138 14.9918 2.74714 14.7518 2.48047L11.6051 4.7738V5.30714H12.6718L15.4184 3.30714ZM5.33844 5.3338L2.51177 3.2538C2.4051 3.38714 2.3251 3.52047 2.21844 3.6538C2.19177 3.68047 2.19177 3.70714 2.1651 3.70714C2.0851 3.84047 1.97844 4.00047 1.89844 4.1338L3.5251 5.3338H5.33844Z" fill="#ED4C5C"/>
<path d="M16.7775 6.4H10.5375V0.16C10.0308 0.0533333 9.4975 0 8.9375 0C8.0975 0 7.84417 0.0533333 7.3375 0.16V6.4H1.0975C0.990833 6.90667 0.9375 7.44 0.9375 8C0.9375 8.84 0.990833 9.09333 1.0975 9.6H7.3375V15.84C7.84417 15.9467 8.3775 16 8.9375 16C9.7775 16 10.0308 15.9467 10.5375 15.84V9.6H16.7775C16.8842 9.09333 16.9375 8.56 16.9375 8C16.9375 7.16 16.8842 6.90667 16.7775 6.4Z" fill="#ED4C5C"/>
</svg>
