<svg width="16" height="16" viewBox="0 0 16 16" fill="none" xmlns="http://www.w3.org/2000/svg">
<path d="M12.2667 1.22667C11.0133 0.453333 9.57333 0 8 0V1.22667H12.2667Z" fill="#ED4C5C"/>
<path d="M8 2.45323H13.76C13.3067 1.9999 12.8 1.57323 12.2667 1.22656H8V2.45323Z" fill="white"/>
<path d="M8 3.68174H14.7467C14.4533 3.22841 14.1333 2.82841 13.7867 2.45508H8V3.68174Z" fill="#ED4C5C"/>
<path d="M8 4.90635H15.3867C15.2 4.47969 14.9867 4.05302 14.7467 3.67969H8V4.90635Z" fill="white"/>
<path d="M8 6.13292H15.7867C15.68 5.70625 15.5467 5.30625 15.3867 4.90625H8V6.13292Z" fill="#ED4C5C"/>
<path d="M8 7.38682H15.9733C15.9467 6.96016 15.8667 6.56016 15.7867 6.16016H8V7.38682Z" fill="white"/>
<path d="M15.9733 7.38672H8V8.00005H0C0 8.21339 -2.58287e-08 8.40005 0.0266666 8.61338H15.9733C16 8.40005 16 8.21339 16 8.00005C16 7.78672 16 7.57339 15.9733 7.38672Z" fill="#ED4C5C"/>
<path d="M0.210104 9.83995H15.7834C15.8901 9.43995 15.9434 9.03995 15.9701 8.61328H0.0234375C0.0501042 9.01328 0.103438 9.43995 0.210104 9.83995Z" fill="white"/>
<path d="M0.610938 11.0665H15.3843C15.5443 10.6665 15.6776 10.2665 15.7843 9.83984H0.210938C0.317604 10.2665 0.450938 10.6665 0.610938 11.0665Z" fill="#ED4C5C"/>
<path d="M1.25328 12.2931H14.7466C14.9866 11.8931 15.1999 11.4931 15.3866 11.0664H0.613281C0.799948 11.4931 1.01328 11.8931 1.25328 12.2931Z" fill="white"/>
<path d="M2.21391 13.5196H13.7872C14.1339 13.1463 14.4806 12.7196 14.7472 12.293H1.25391C1.52057 12.7463 1.86724 13.1463 2.21391 13.5196Z" fill="#ED4C5C"/>
<path d="M3.70427 14.7482H12.2909C12.8509 14.4015 13.3309 13.9748 13.7843 13.5215H2.21094C2.66427 14.0015 3.17094 14.4015 3.70427 14.7482Z" fill="white"/>
<path d="M8.00036 15.9994C9.5737 15.9994 11.0404 15.5461 12.2937 14.7461H3.70703C4.96036 15.5461 6.42703 15.9994 8.00036 15.9994Z" fill="#ED4C5C"/>
<path d="M3.73333 1.22667C3.17333 1.57333 2.66667 2 2.21333 2.45333C1.84 2.82667 1.52 3.25333 1.25333 3.68C1.01333 4.08 0.773333 4.48 0.613333 4.90667C0.453333 5.30667 0.32 5.70667 0.213333 6.13333C0.106667 6.53333 0.0533333 6.93333 0.0266666 7.36C-2.58287e-08 7.57333 0 7.78667 0 8H8V0C6.42667 0 4.98667 0.453333 3.73333 1.22667Z" fill="#428BC1"/>
<path d="M6.135 0.267578L6.26833 0.667578H6.66833L6.34833 0.934245L6.455 1.33424L6.135 1.09424L5.815 1.33424L5.92167 0.934245L5.60167 0.667578H6.00167L6.135 0.267578ZM7.20167 1.86758L7.335 2.26758H7.735L7.415 2.53424L7.52167 2.93424L7.20167 2.69425L6.88167 2.93424L6.98833 2.53424L6.66833 2.26758H7.06833L7.20167 1.86758ZM5.06833 1.86758L5.20167 2.26758H5.60167L5.28167 2.53424L5.38833 2.93424L5.06833 2.69425L4.74833 2.93424L4.855 2.53424L4.535 2.26758H4.935L5.06833 1.86758ZM6.135 3.46758L6.26833 3.86758H6.66833L6.34833 4.13424L6.455 4.53425L6.135 4.29425L5.815 4.53425L5.92167 4.13424L5.60167 3.86758H6.00167L6.135 3.46758ZM4.00167 3.46758L4.135 3.86758H4.535L4.215 4.13424L4.32167 4.53425L4.00167 4.29425L3.68167 4.53425L3.78833 4.13424L3.46833 3.86758H3.86833L4.00167 3.46758ZM1.86833 3.46758L2.00167 3.86758H2.40167L2.08167 4.13424L2.18833 4.53425L1.86833 4.29425L1.54833 4.53425L1.655 4.13424L1.335 3.86758H1.735L1.86833 3.46758ZM7.20167 5.06758L7.335 5.46758H7.735L7.415 5.73425L7.52167 6.13425L7.20167 5.89425L6.88167 6.13425L6.98833 5.73425L6.66833 5.46758H7.06833L7.20167 5.06758ZM5.06833 5.06758L5.20167 5.46758H5.60167L5.28167 5.73425L5.38833 6.13425L5.06833 5.89425L4.74833 6.13425L4.855 5.73425L4.535 5.46758H4.935L5.06833 5.06758ZM2.935 5.06758L3.06833 5.46758H3.46833L3.14833 5.73425L3.255 6.13425L2.935 5.89425L2.615 6.13425L2.72167 5.73425L2.40167 5.46758H2.80167L2.935 5.06758ZM6.135 6.66758L6.26833 7.06758H6.66833L6.34833 7.33425L6.455 7.73425L6.135 7.49425L5.815 7.73425L5.92167 7.33425L5.60167 7.06758H6.00167L6.135 6.66758ZM4.00167 6.66758L4.135 7.06758H4.535L4.215 7.33425L4.32167 7.73425L4.00167 7.49425L3.68167 7.73425L3.78833 7.33425L3.46833 7.06758H3.86833L4.00167 6.66758ZM1.86833 6.66758L2.00167 7.06758H2.40167L2.08167 7.33425L2.18833 7.73425L1.86833 7.49425L1.54833 7.73425L1.655 7.33425L1.335 7.06758H1.735L1.86833 6.66758ZM2.615 2.93424L2.935 2.69425L3.255 2.93424L3.12167 2.53424L3.44167 2.26758H3.04167L2.935 1.86758L2.80167 2.26758H2.42833L2.74833 2.50758L2.615 2.93424ZM0.481667 6.13425L0.801667 5.89425L1.12167 6.13425L0.988333 5.73425L1.30833 5.46758H0.935L0.801667 5.06758L0.668333 5.46758H0.401667C0.401667 5.49425 0.375 5.52091 0.375 5.54758L0.588333 5.70758L0.481667 6.13425Z" fill="white"/>
</svg>
