<svg width="512" height="512" viewBox="0 0 512 512" fill="none" xmlns="http://www.w3.org/2000/svg">
    <path d="M273.835 503C264.712 503 255.564 499.5 248.607 492.525L29.4483 272.797C22.7461 266.078 19 256.982 19 247.503C19 238.024 22.7461 228.929 29.4483 222.209L248.607 2.48176C262.546 -11.4939 285.124 -11.4939 299.064 2.48176C313.003 16.4574 313.003 39.0944 299.064 53.0701L105.134 247.503L299.064 441.936C313.003 455.912 313.003 478.549 299.064 492.525C292.107 499.5 282.958 503 273.835 503ZM482.545 492.525C496.485 478.549 496.485 455.912 482.545 441.936L288.616 247.503L482.545 53.0701C496.485 39.0944 496.485 16.4574 482.545 2.48176C468.606 -11.4939 446.028 -11.4939 432.088 2.48176L212.93 222.209C206.228 228.929 202.481 238.024 202.481 247.503C202.481 256.982 206.228 266.078 212.93 272.797L432.088 492.525C439.045 499.5 448.194 503 457.317 503C466.44 503 475.588 499.5 482.545 492.525Z"
          fill="black"/>
</svg>
