<svg width="512" height="512" viewBox="0 0 512 512" fill="none" xmlns="http://www.w3.org/2000/svg">
<path d="M256 0C268.706 0 281.179 3.02469 292.163 8.75862L292.154 8.76724L475.885 103.69L475.962 103.724L478 104.828C486.223 109.452 493.452 115.383 499 122.5C500.286 123.608 501.057 125.051 502 126.5C502.862 127.824 504.057 129.09 504.5 130.5C509.636 139.615 511.988 149.797 512 160.043V350.009C511.987 361.403 508.663 372.609 502.346 382.491C496.028 392.373 486.933 400.6 475.962 406.328L475.885 406.362L292.154 501.284L292.163 501.293C284.164 505.469 275.373 508.199 266.279 509.379C263.284 511.029 259.773 512 256 512C252.224 512 248.708 511.031 245.712 509.379C236.621 508.199 227.834 505.468 219.837 501.293V501.284L36.1154 406.362L36.0385 406.328C25.0668 400.6 15.9717 392.373 9.65385 382.491C3.33663 372.609 0.0129247 361.403 0 350.009V160.043L0.0384615 157.905C0.394893 148.396 3.06763 139.076 7.84615 130.595C8.2895 129.184 8.90734 127.79 9.76923 126.466C10.7127 125.016 11.8678 123.746 13.1538 122.638C19.1553 114.94 26.9468 108.47 36.0385 103.724L36.1154 103.69L122.471 59.069C126 56.5 130.5 54.5 134.942 52.6207L219.837 8.76724V8.75862C230.821 3.02468 243.294 1.11762e-06 256 0ZM39.3846 349.974L39.4615 351.94C39.7988 356.513 41.2892 360.961 43.8269 364.931C46.7105 369.441 50.8374 373.171 55.7788 375.767L236.308 469.052V265.405L39.3846 162.397V349.974ZM275.692 265.405V469.052L456.221 375.767C461.163 373.171 465.29 369.441 468.173 364.931C471.07 360.399 472.606 355.246 472.615 349.991V162.397L275.692 265.405ZM59.7981 132.198L256 234.819L335.183 193.405L139.163 91.1897L59.7981 132.198ZM256 35.3103C250.987 35.3103 246.043 36.3503 241.548 38.3534L239.654 39.2759L239.577 39.3103L178.519 70.8534L374.298 172.94L452.192 132.198L272.423 39.3103L272.346 39.2759C267.365 36.6754 261.729 35.3103 256 35.3103Z" fill="black"/>
</svg>
