<svg width="14" height="14" viewBox="0 0 14 14" fill="none" xmlns="http://www.w3.org/2000/svg">
<path d="M7.67006 6.32994V0.684318C7.67006 0.49423 7.60591 0.332655 7.4776 0.199593C7.34929 0.0665311 7.19009 -3.87408e-08 7 -3.87408e-08C6.80991 -3.87408e-08 6.65071 0.0665311 6.5224 0.199593C6.39409 0.332655 6.32994 0.49423 6.32994 0.684318V6.32994H0.684318C0.494229 6.32994 0.332654 6.39409 0.199593 6.5224C0.0665309 6.65071 0 6.80991 0 7C0 7.19009 0.0665309 7.34929 0.199593 7.4776C0.332654 7.60591 0.494229 7.67006 0.684318 7.67006H6.32994V13.3157C6.32994 13.5058 6.39409 13.665 6.5224 13.7933C6.65071 13.9216 6.80991 13.9905 7 14C7.19009 14 7.34929 13.9335 7.4776 13.8004C7.60591 13.6673 7.67006 13.5058 7.67006 13.3157V7.67006H13.3157C13.5058 7.67006 13.6673 7.60591 13.8004 7.4776C13.9335 7.34929 14 7.19009 14 7C13.9905 6.80991 13.9216 6.65071 13.7933 6.5224C13.665 6.39409 13.5058 6.32994 13.3157 6.32994H7.67006Z" fill="black"/>
</svg>
