<svg width="512" height="512" viewBox="0 0 512 512" fill="none" xmlns="http://www.w3.org/2000/svg">
<path d="M213.846 26.8028C232.02 -8.93425 280.111 -8.93425 298.253 26.8028L506.231 436.464C510.178 444.256 512.162 453.008 511.99 461.863C511.818 470.718 509.495 479.374 505.249 486.985C501.003 494.596 494.979 500.902 487.765 505.286C480.551 509.671 472.394 511.984 464.092 512H48.007C39.6898 512.002 31.5149 509.699 24.2837 505.315C17.0525 500.932 11.0131 494.62 6.75772 486.996C2.50234 479.373 0.177019 470.701 0.00971357 461.831C-0.157592 452.96 1.83886 444.195 5.80336 436.396L213.846 26.8028ZM272.048 187.739C272.048 183.212 270.362 178.872 267.362 175.671C264.362 172.47 260.292 170.672 256.049 170.672C251.806 170.672 247.737 172.47 244.737 175.671C241.736 178.872 240.051 183.212 240.051 187.739V324.27C240.051 328.796 241.736 333.137 244.737 336.338C247.737 339.538 251.806 341.336 256.049 341.336C260.292 341.336 264.362 339.538 267.362 336.338C270.362 333.137 272.048 328.796 272.048 324.27V187.739ZM280.047 401.068C280.047 394.279 277.518 387.768 273.018 382.967C268.518 378.166 262.414 375.469 256.049 375.469C249.685 375.469 243.581 378.166 239.08 382.967C234.58 387.768 232.052 394.279 232.052 401.068C232.052 407.858 234.58 414.369 239.08 419.17C243.581 423.971 249.685 426.668 256.049 426.668C262.414 426.668 268.518 423.971 273.018 419.17C277.518 414.369 280.047 407.858 280.047 401.068Z" fill="black"/>
</svg>
