<svg width="512" height="338" viewBox="0 0 512 338" fill="none" xmlns="http://www.w3.org/2000/svg">
    <path d="M183.5 6.03572C181.833 4.02382 179.667 2.51489 177 1.50894C174.333 0.502984 171.333 7.62939e-06 168 7.62939e-06C165 7.62939e-06 162.167 0.502984 159.5 1.50894C156.833 2.51489 154.5 4.02382 152.5 6.03572L6.5 153.408C4.5 155.42 2.91667 157.767 1.75 160.449C0.583333 163.132 0 165.982 0 169C0 172.018 0.583333 174.868 1.75 177.551C2.91667 180.233 4.5 182.58 6.5 184.592L152.5 331.964C154.5 333.976 156.833 335.485 159.5 336.491C162.167 337.497 165 338 168 338C171.333 338 174.333 337.497 177 336.491C179.667 335.485 181.833 333.976 183.5 331.964C185.5 329.952 187.083 327.605 188.25 324.923C189.417 322.24 190 319.39 190 316.372C190 313.354 189.417 310.504 188.25 307.821C187.083 305.139 185.5 302.792 183.5 300.78L53 169L183.5 37.2202C185.5 35.2083 187.083 32.8611 188.25 30.1786C189.417 27.496 190 24.6458 190 21.628C190 18.6101 189.417 15.7599 188.25 13.0774C187.083 10.3948 185.5 8.04763 183.5 6.03572ZM505.5 153.408L359.5 6.03572C357.5 4.35913 355.167 3.01786 352.5 2.01191C349.833 1.00596 347.167 0.502984 344.5 0.502984C338.167 0.502984 332.917 2.59872 328.75 6.79019C324.583 10.9817 322.5 16.2629 322.5 22.6339C322.5 25.3165 323 27.999 324 30.6816C325 33.3641 326.5 35.5437 328.5 37.2202L459 169L328.5 300.78C326.5 302.792 324.917 305.139 323.75 307.821C322.583 310.504 322 313.354 322 316.372C322 319.39 322.583 322.24 323.75 324.923C324.917 327.605 326.5 329.952 328.5 331.964C330.167 333.976 332.333 335.485 335 336.491C337.667 337.497 340.667 338 344 338C347 338 349.833 337.497 352.5 336.491C355.167 335.485 357.5 333.976 359.5 331.964L505.5 184.592C507.5 182.58 509.083 180.233 510.25 177.551C511.417 174.868 512 172.018 512 169C512 165.982 511.417 163.132 510.25 160.449C509.083 157.767 507.5 155.42 505.5 153.408Z"
          fill="black"/>
</svg>
