<svg width="14" height="14" viewBox="0 0 14 14" fill="none" xmlns="http://www.w3.org/2000/svg">
<g clip-path="url(#clip0_3613_8384)">
<path d="M5.01758 2.66071C4.972 2.60714 4.91277 2.56696 4.83984 2.54018C4.76692 2.51339 4.68489 2.5 4.59375 2.5C4.51172 2.5 4.43425 2.51339 4.36133 2.54018C4.2884 2.56696 4.22461 2.60714 4.16992 2.66071L0.177734 6.58483C0.123047 6.6384 0.0797527 6.7009 0.0478516 6.77231C0.0159505 6.84375 0 6.91964 0 7C0 7.08036 0.0159505 7.15625 0.0478516 7.22769C0.0797527 7.2991 0.123047 7.3616 0.177734 7.41517L4.16992 11.3393C4.22461 11.3929 4.2884 11.433 4.36133 11.4598C4.43425 11.4866 4.51172 11.5 4.59375 11.5C4.68489 11.5 4.76692 11.4866 4.83984 11.4598C4.91277 11.433 4.972 11.3929 5.01758 11.3393C5.07227 11.2857 5.11555 11.2232 5.14746 11.1518C5.17937 11.0804 5.19531 11.0045 5.19531 10.9241C5.19531 10.8437 5.17937 10.7679 5.14746 10.6964C5.11555 10.625 5.07227 10.5625 5.01758 10.5089L1.44922 7L5.01758 3.49107C5.07227 3.4375 5.11555 3.375 5.14746 3.30357C5.17937 3.23214 5.19531 3.15625 5.19531 3.07589C5.19531 2.99553 5.17937 2.91964 5.14746 2.84821C5.11555 2.77678 5.07227 2.71429 5.01758 2.66071ZM13.8223 6.58483L9.83008 2.66071C9.77539 2.61607 9.7116 2.58036 9.63867 2.55357C9.56575 2.52679 9.49285 2.51339 9.41992 2.51339C9.24675 2.51339 9.1032 2.5692 8.98926 2.6808C8.87532 2.79241 8.81836 2.93304 8.81836 3.10268C8.81836 3.17411 8.83203 3.24554 8.85937 3.31697C8.88672 3.38839 8.92773 3.44643 8.98242 3.49107L12.5508 7L8.98242 10.5089C8.92773 10.5625 8.88445 10.625 8.85254 10.6964C8.82063 10.7679 8.80469 10.8437 8.80469 10.9241C8.80469 11.0045 8.82063 11.0804 8.85254 11.1518C8.88445 11.2232 8.92773 11.2857 8.98242 11.3393C9.028 11.3929 9.08723 11.433 9.16016 11.4598C9.23308 11.4866 9.31511 11.5 9.40625 11.5C9.48828 11.5 9.56575 11.4866 9.63867 11.4598C9.7116 11.433 9.77539 11.3929 9.83008 11.3393L13.8223 7.41517C13.877 7.3616 13.9202 7.2991 13.9521 7.22769C13.9841 7.15625 14 7.08036 14 7C14 6.91964 13.9841 6.84375 13.9521 6.77231C13.9202 6.7009 13.877 6.6384 13.8223 6.58483Z" fill="black"/>
</g>
</svg>
