<svg width="512" height="512" viewBox="0 0 512 512" fill="none" xmlns="http://www.w3.org/2000/svg">
<path d="M168.229 511.93H80.4571C70.3119 512.362 60.1811 510.789 50.6445 507.302C41.1078 503.815 32.3526 498.482 24.8796 491.609C17.4066 484.736 11.3627 476.457 7.09354 467.246C2.82442 458.035 0.413927 448.073 0 437.93V74.0702C0.413927 63.9269 2.82442 53.9649 7.09354 44.7539C11.3627 35.543 17.4066 27.2641 24.8796 20.3908C32.3526 13.5176 41.1078 8.18492 50.6445 4.698C60.1811 1.21108 70.3119 -0.361659 80.4571 0.069765H168.229C174.048 0.069765 179.629 2.38096 183.745 6.49493C187.86 10.6089 190.171 16.1886 190.171 22.0066C190.171 27.8247 187.86 33.4044 183.745 37.5184C179.629 41.6323 174.048 43.9435 168.229 43.9435H80.4571C71.7699 43.1883 63.1252 45.805 56.3161 51.2509C49.5069 56.6967 45.0557 64.5539 43.8857 73.1927V437.93C45.0557 446.569 49.5069 454.426 56.3161 459.872C63.1252 465.318 71.7699 467.934 80.4571 467.179H168.229C174.048 467.179 179.629 469.49 183.745 473.604C187.86 477.718 190.171 483.298 190.171 489.116C190.171 494.934 187.86 500.514 183.745 504.628C179.629 508.742 174.048 511.053 168.229 511.053V511.93Z" fill="black"/>
<path d="M373.006 394.953C370.123 394.967 367.266 394.405 364.603 393.3C361.941 392.195 359.525 390.569 357.5 388.519C353.39 384.405 351.082 378.83 351.082 373.016C351.082 367.203 353.39 361.628 357.5 357.514L459.022 256.02L357.5 154.525C355.344 152.517 353.615 150.095 352.415 147.404C351.216 144.713 350.571 141.808 350.519 138.863C350.467 135.917 351.009 132.992 352.113 130.26C353.216 127.529 354.859 125.047 356.943 122.964C359.026 120.881 361.508 119.239 364.24 118.136C366.973 117.032 369.899 116.491 372.846 116.542C375.792 116.594 378.698 117.239 381.389 118.438C384.081 119.637 386.503 121.366 388.512 123.521L505.541 240.518C509.65 244.631 511.958 250.207 511.958 256.02C511.958 261.833 509.65 267.409 505.541 271.522L388.512 388.519C386.486 390.569 384.071 392.195 381.408 393.3C378.746 394.405 375.889 394.967 373.006 394.953Z" fill="black"/>
<path d="M490.057 277.925H168.228C162.408 277.925 156.827 275.613 152.712 271.499C148.597 267.385 146.285 261.806 146.285 255.988C146.285 250.17 148.597 244.59 152.712 240.476C156.827 236.362 162.408 234.051 168.228 234.051H490.057C495.876 234.051 501.457 236.362 505.573 240.476C509.688 244.59 511.999 250.17 511.999 255.988C511.999 261.806 509.688 267.385 505.573 271.499C501.457 275.613 495.876 277.925 490.057 277.925Z" fill="black"/>
</svg>
