<svg width="512" height="454" viewBox="0 0 512 454" fill="none" xmlns="http://www.w3.org/2000/svg">
<path d="M460.8 0H51.2C37.6446 0.07689 24.6663 5.50197 15.081 15.0981C5.49573 24.6942 0.0768029 37.6873 0 51.2581V402.742C0.0768029 416.313 5.49573 429.306 15.081 438.902C24.6663 448.498 37.6446 453.923 51.2 454H460.8C474.355 453.923 487.334 448.498 496.919 438.902C506.504 429.306 511.923 416.313 512 402.742V51.2581C511.923 37.6873 506.504 24.6942 496.919 15.0981C487.334 5.50197 474.355 0.07689 460.8 0ZM51.2 43.9355H460.8C462.74 43.9355 464.6 44.707 465.972 46.0802C467.344 47.4535 468.114 49.316 468.114 51.2581V96.3652L256 202.396L43.8857 96.3652V51.2581C43.8857 49.316 44.6563 47.4535 46.028 46.0802C47.3997 44.707 49.2601 43.9355 51.2 43.9355ZM460.8 410.065H51.2C49.2601 410.065 47.3997 409.293 46.028 407.92C44.6563 406.547 43.8857 404.684 43.8857 402.742V145.28L246.053 246.625C249.141 248.171 252.547 248.976 256 248.976C259.453 248.976 262.859 248.171 265.947 246.625L468.114 145.28V402.742C468.114 404.684 467.344 406.547 465.972 407.92C464.6 409.293 462.74 410.065 460.8 410.065Z" fill="black"/>
</svg>
