<svg width="512" height="512" viewBox="0 0 512 512" fill="none" xmlns="http://www.w3.org/2000/svg">
<path d="M315 452.923C315 468.591 308.784 483.618 297.719 494.697C286.655 505.776 271.648 512 256 512C240.352 512 225.345 505.776 214.281 494.697C203.216 483.618 197 468.591 197 452.923C197 437.255 203.216 422.228 214.281 411.149C225.345 400.07 240.352 393.846 256 393.846C271.648 393.846 286.655 400.07 297.719 411.149C308.784 422.228 315 437.255 315 452.923ZM315 256C315 271.668 308.784 286.695 297.719 297.774C286.655 308.853 271.648 315.077 256 315.077C240.352 315.077 225.345 308.853 214.281 297.774C203.216 286.695 197 271.668 197 256C197 240.332 203.216 225.305 214.281 214.226C225.345 203.147 240.352 196.923 256 196.923C271.648 196.923 286.655 203.147 297.719 214.226C308.784 225.305 315 240.332 315 256ZM315 59.0769C315 74.7451 308.784 89.7716 297.719 100.851C286.655 111.93 271.648 118.154 256 118.154C240.352 118.154 225.345 111.93 214.281 100.851C203.216 89.7716 197 74.7451 197 59.0769C197 43.4088 203.216 28.3823 214.281 17.3032C225.345 6.22416 240.352 0 256 0C271.648 0 286.655 6.22416 297.719 17.3032C308.784 28.3823 315 43.4088 315 59.0769Z" fill="black"/>
</svg>
