<svg width="512" height="512" viewBox="0 0 512 512" fill="none" xmlns="http://www.w3.org/2000/svg">
<path d="M0 16C0 11.7565 1.68571 7.68687 4.68629 4.68629C7.68687 1.68571 11.7565 0 16 0H112C116.243 0 120.313 1.68571 123.314 4.68629C126.314 7.68687 128 11.7565 128 16C128 20.2435 126.314 24.3131 123.314 27.3137C120.313 30.3143 116.243 32 112 32H32V112C32 116.243 30.3143 120.313 27.3137 123.314C24.3131 126.314 20.2435 128 16 128C11.7565 128 7.68687 126.314 4.68629 123.314C1.68571 120.313 0 116.243 0 112V16ZM384 16C384 11.7565 385.686 7.68687 388.686 4.68629C391.687 1.68571 395.757 0 400 0H496C500.243 0 504.313 1.68571 507.314 4.68629C510.314 7.68687 512 11.7565 512 16V112C512 116.243 510.314 120.313 507.314 123.314C504.313 126.314 500.243 128 496 128C491.757 128 487.687 126.314 484.686 123.314C481.686 120.313 480 116.243 480 112V32H400C395.757 32 391.687 30.3143 388.686 27.3137C385.686 24.3131 384 20.2435 384 16ZM16 384C20.2435 384 24.3131 385.686 27.3137 388.686C30.3143 391.687 32 395.757 32 400V480H112C116.243 480 120.313 481.686 123.314 484.686C126.314 487.687 128 491.757 128 496C128 500.243 126.314 504.313 123.314 507.314C120.313 510.314 116.243 512 112 512H16C11.7565 512 7.68687 510.314 4.68629 507.314C1.68571 504.313 0 500.243 0 496V400C0 395.757 1.68571 391.687 4.68629 388.686C7.68687 385.686 11.7565 384 16 384ZM496 384C500.243 384 504.313 385.686 507.314 388.686C510.314 391.687 512 395.757 512 400V496C512 500.243 510.314 504.313 507.314 507.314C504.313 510.314 500.243 512 496 512H400C395.757 512 391.687 510.314 388.686 507.314C385.686 504.313 384 500.243 384 496C384 491.757 385.686 487.687 388.686 484.686C391.687 481.686 395.757 480 400 480H480V400C480 395.757 481.686 391.687 484.686 388.686C487.687 385.686 491.757 384 496 384ZM128 128H160V160H128V128Z" fill="black"/>
<path d="M224 64H64V224H224V64ZM96 96H192V192H96V96ZM160 352H128V384H160V352Z" fill="black"/>
<path d="M224 288H64V448H224V288ZM96 320H192V416H96V320ZM352 128H384V160H352V128Z" fill="black"/>
<path d="M288 64H448V224H288V64ZM320 96V192H416V96H320ZM256 256V320H288V352H256V384H320V320H352V384H384V352H448V320H352V256H256ZM320 320H288V288H320V320ZM448 384H416V416H352V448H448V384ZM320 448V416H256V448H320Z" fill="black"/>
<path d="M384 288H448V256H384V288Z" fill="black"/>
</svg>
