<svg width="512" height="512" viewBox="0 0 512 512" fill="none" xmlns="http://www.w3.org/2000/svg">
<path d="M1.53303e-07 431.5L3.98553e-06 344C4.26291e-06 337.667 2.17091 332.417 6.51273 328.25C10.8545 324.083 16.0313 322 22.0431 322C28.0548 322 33.2316 324.083 37.5734 328.25C41.9152 332.417 44.0861 337.667 44.0861 344L44.0861 431.5C44.0861 431.833 44.0861 432.25 44.0861 432.75C44.0861 433.25 44.0861 433.833 44.0861 434.5C44.0861 443.167 46.8415 450.667 52.3523 457C57.863 463.333 64.7932 467 73.1429 468L438.857 468C447.207 467 454.22 463.333 459.898 457C465.576 450.667 468.415 443.167 468.415 434.5C468.415 433.833 468.415 433.25 468.415 432.75C468.415 432.25 468.248 431.833 467.914 431.5V344C467.914 337.667 470.085 332.417 474.427 328.25C478.768 324.083 483.945 322 489.957 322C496.303 322 501.563 324.083 505.738 328.25C509.913 332.417 512 337.667 512 344V431.5C512 432.167 512 432.75 512 433.25C512 433.75 512 434.333 512 435C512 455.667 504.819 473.417 490.458 488.25C476.097 503.083 458.729 511 438.356 512L74.1448 512C53.4377 511 35.9035 503.083 21.5421 488.25C7.18069 473.417 -9.05136e-07 455.667 0 435C2.9198e-08 434.333 5.83845e-08 433.667 8.75824e-08 433C1.1678e-07 432.333 1.38704e-07 431.833 1.53303e-07 431.5Z" fill="black"/>
<path d="M118.982 147.5C117.813 144.833 117.229 142 117.229 139V138.5C117.229 135.5 117.813 132.667 118.982 130C120.151 127.333 121.738 125.167 123.742 123.5L240.971 6C241.702 5.39143 242.479 4.8162 243.299 4.27427C247.129 1.42477 251.529 2.16888e-07 256.501 0C261.472 -2.16886e-07 265.873 1.42484 269.703 4.27427C270.523 4.8162 271.3 5.39143 272.031 6L389.26 123C391.264 125 392.767 127.333 393.769 130C394.771 132.667 395.272 135.333 395.272 138C395.272 144.333 393.101 149.583 388.759 153.75C384.418 157.917 379.241 160 373.229 160C370.223 160 367.468 159.5 364.963 158.5C362.458 157.5 360.204 156.167 358.2 154.5L278.544 74.6084V343.5C278.544 349.5 276.373 354.667 272.031 359C267.689 363.333 262.513 365.5 256.501 365.5C250.489 365.5 245.312 363.333 240.971 359C236.629 354.667 234.458 349.5 234.458 343.5V74.6084L154.802 154.5C152.798 156.167 150.461 157.583 147.789 158.75C145.117 159.917 142.278 160.5 139.272 160.5C136.266 160.5 133.427 159.917 130.755 158.75C128.083 157.583 125.746 156.167 123.742 154.5C121.738 152.5 120.151 150.167 118.982 147.5Z" fill="black"/>
</svg>
