<svg width="512" height="512" viewBox="0 0 512 512" fill="none" xmlns="http://www.w3.org/2000/svg">
<path d="M480 384C480 392.487 476.629 400.626 470.627 406.627C464.626 412.629 456.487 416 448 416H64C55.5131 416 47.3737 412.629 41.3726 406.627C35.3714 400.626 32 392.487 32 384V192C32 183.513 35.3714 175.374 41.3726 169.373C47.3737 163.371 55.5131 160 64 160H101.504C126.952 159.986 151.353 149.869 169.344 131.872L195.904 105.376C201.888 99.3901 210 96.0188 218.464 96H293.472C301.958 96.0018 310.096 99.3744 316.096 105.376L342.592 131.872C351.508 140.791 362.094 147.866 373.746 152.692C385.397 157.518 397.885 160.002 410.496 160H448C456.487 160 464.626 163.371 470.627 169.373C476.629 175.374 480 183.513 480 192V384ZM64 128C47.0261 128 30.7475 134.743 18.7452 146.745C6.74284 158.747 0 175.026 0 192V384C0 400.974 6.74284 417.252 18.7452 429.255C30.7475 441.257 47.0261 448 64 448H448C464.974 448 481.252 441.257 493.255 429.255C505.257 417.252 512 400.974 512 384V192C512 175.026 505.257 158.747 493.255 146.745C481.252 134.743 464.974 128 448 128H410.496C393.524 127.996 377.248 121.251 365.248 109.248L338.752 82.752C326.752 70.7488 310.476 64.0036 293.504 64H218.496C201.524 64.0036 185.248 70.7488 173.248 82.752L146.752 109.248C134.752 121.251 118.476 127.996 101.504 128H64Z" fill="black"/>
<path d="M256 352C234.783 352 214.434 343.571 199.431 328.569C184.429 313.566 176 293.217 176 272C176 250.783 184.429 230.434 199.431 215.431C214.434 200.429 234.783 192 256 192C277.217 192 297.566 200.429 312.569 215.431C327.571 230.434 336 250.783 336 272C336 293.217 327.571 313.566 312.569 328.569C297.566 343.571 277.217 352 256 352ZM256 384C285.704 384 314.192 372.2 335.196 351.196C356.2 330.192 368 301.704 368 272C368 242.296 356.2 213.808 335.196 192.804C314.192 171.8 285.704 160 256 160C226.296 160 197.808 171.8 176.804 192.804C155.8 213.808 144 242.296 144 272C144 301.704 155.8 330.192 176.804 351.196C197.808 372.2 226.296 384 256 384ZM96 208C96 212.243 94.3143 216.313 91.3137 219.314C88.3131 222.314 84.2435 224 80 224C75.7565 224 71.6869 222.314 68.6863 219.314C65.6857 216.313 64 212.243 64 208C64 203.757 65.6857 199.687 68.6863 196.686C71.6869 193.686 75.7565 192 80 192C84.2435 192 88.3131 193.686 91.3137 196.686C94.3143 199.687 96 203.757 96 208Z" fill="black"/>
</svg>
