<svg width="512" height="512" viewBox="0 0 512 512" fill="none" xmlns="http://www.w3.org/2000/svg">
<path d="M238.165 512C229.042 512 219.893 508.493 212.936 501.504C198.997 487.501 198.997 464.82 212.936 450.817L406.866 256.003L212.936 61.1896C198.997 47.1866 198.997 24.5053 212.936 10.5023C226.876 -3.50076 249.454 -3.50076 263.393 10.5023L482.552 230.66C489.254 237.392 493 246.506 493 256.003C493 265.501 489.254 274.614 482.552 281.347L263.393 501.504C256.436 508.493 247.288 512 238.165 512ZM79.912 501.504L299.07 281.347C305.773 274.614 309.519 265.501 309.519 256.003C309.519 246.506 305.773 237.392 299.07 230.66L79.912 10.5023C65.9725 -3.50076 43.3941 -3.50076 29.4546 10.5023C15.5151 24.5053 15.5151 47.1866 29.4546 61.1896L223.384 256.003L29.4546 450.817C15.5151 464.82 15.5151 487.501 29.4546 501.504C36.4116 508.493 45.5602 512 54.6833 512C63.8064 512 72.955 508.493 79.912 501.504Z" fill="black"/>
</svg>
