<svg width="14" height="14" viewBox="0 0 14 14" fill="none" xmlns="http://www.w3.org/2000/svg">
<g clip-path="url(#clip0_3614_8394)">
<path d="M12.618 9.62313C12.2575 9.62313 11.9471 9.49822 11.6867 9.24839C11.4263 8.99857 11.2961 8.69379 11.2961 8.33405V2.63812H5.58798C5.22747 2.63812 4.92203 2.50821 4.67167 2.24839C4.42132 1.98858 4.29614 1.6788 4.29614 1.31906C4.29614 0.959315 4.42132 0.649536 4.67167 0.389722C4.92203 0.129907 5.22747 0 5.58798 0H12.618C12.9785 0.0199857 13.284 0.154889 13.5343 0.404711C13.7847 0.654532 13.9199 0.959315 13.9399 1.31906V8.33405C13.9199 8.69379 13.7847 8.99857 13.5343 9.24839C13.284 9.49822 12.9785 9.62313 12.618 9.62313ZM1.23176 14C1.0515 14 0.886266 13.96 0.736051 13.8801C0.585837 13.8001 0.450644 13.7002 0.330472 13.5803C0.230329 13.4604 0.150215 13.3255 0.0901287 13.1756C0.0300429 13.0257 0 12.8608 0 12.6809C0 12.5211 0.0300429 12.3662 0.0901287 12.2163C0.150215 12.0664 0.230329 11.9315 0.330472 11.8116L11.7468 0.449679C11.867 0.329764 12.0072 0.229836 12.1674 0.149893C12.3276 0.06995 12.5079 0.0299786 12.7082 0.0299786C13.0687 0.0299786 13.3741 0.159886 13.6245 0.4197C13.8748 0.679515 13.9399 0.997291 13.9399 1.35703C13.9399 1.53691 13.9649 1.70378 13.8948 1.87366C13.8247 2.04354 13.7296 2.18844 13.6094 2.30835H13.5794L2.103 13.5803C1.98283 13.7002 1.84764 13.8001 1.69742 13.8801C1.54721 13.96 1.39199 14 1.23176 14Z" fill="black"/>
</g>
</svg>
