<svg width="512" height="512" viewBox="0 0 512 512" fill="none" xmlns="http://www.w3.org/2000/svg">
<g clip-path="url(#clip0_3632_8523)">
<path d="M235.636 81.3048C237.073 80.0118 237.905 78.1707 237.906 76.2392C237.906 74.7915 237.44 73.3941 236.604 72.24L235.636 71.1735L158.627 1.75528C156.028 -0.587684 152.083 -0.582511 149.481 1.75528L72.4393 71.1735C71.0073 72.4675 70.2032 74.3104 70.2032 76.2392C70.2032 78.168 71.0073 80.0111 72.4393 81.3048L91.5673 98.5344C94.1683 100.88 98.1443 100.88 100.745 98.5344L133.692 68.841L133.692 439.53C133.695 446.051 136.031 451.531 140.034 455.357C143.952 459.1 149.077 460.889 154.054 460.889C159.032 460.889 164.157 459.104 168.074 455.357C172.077 451.531 174.412 446.051 174.416 439.53L174.416 68.841L207.33 98.5012C209.924 100.839 213.873 100.86 216.476 98.5344L235.636 81.3048Z" fill="black"/>
<path d="M440.73 440.826C442.166 439.532 443 437.689 443 435.762C442.999 434.315 442.533 432.912 441.698 431.762L440.73 430.694L421.57 413.463C418.967 411.14 415.018 411.16 412.423 413.497L379.51 443.16L379.51 72.4713C379.506 65.9482 377.171 60.4692 373.168 56.6417C369.251 52.897 364.126 51.1113 359.148 51.1094C354.17 51.1094 349.046 52.9004 345.128 56.6417C341.125 60.4692 338.789 65.9482 338.785 72.4713L338.785 443.16L305.839 413.463C303.236 411.119 299.261 411.119 296.659 413.463L277.532 430.694C276.1 431.987 275.295 433.83 275.295 435.762C275.295 437.689 276.099 439.532 277.532 440.826L354.575 510.245C357.177 512.582 361.122 512.586 363.721 510.245L440.73 440.826Z" fill="black"/>
</g>
<defs>
<clipPath id="clip0_3632_8523">
<rect width="512" height="512" fill="white"/>
</clipPath>
</defs>
</svg>
