<svg width="512" height="512" viewBox="0 0 512 512" fill="none" xmlns="http://www.w3.org/2000/svg">
<g clip-path="url(#clip0_3637_8531)">
<path d="M256 480C196.592 480 139.616 456.4 97.6081 414.392C55.5999 372.384 32 315.408 32 256C32 196.592 55.5999 139.616 97.6081 97.6081C139.616 55.5999 196.592 32 256 32C315.408 32 372.384 55.5999 414.392 97.6081C456.4 139.616 480 196.592 480 256C480 315.408 456.4 372.384 414.392 414.392C372.384 456.4 315.408 480 256 480ZM256 512C323.895 512 389.01 485.029 437.019 437.019C485.029 389.01 512 323.895 512 256C512 188.105 485.029 122.99 437.019 74.9807C389.01 26.9714 323.895 0 256 0C188.105 0 122.99 26.9714 74.9807 74.9807C26.9714 122.99 0 188.105 0 256C0 323.895 26.9714 389.01 74.9807 437.019C122.99 485.029 188.105 512 256 512Z" fill="black"/>
<path d="M168.159 185.152C168.115 186.185 168.283 187.217 168.653 188.183C169.023 189.149 169.586 190.029 170.308 190.77C171.03 191.51 171.897 192.095 172.853 192.488C173.81 192.881 174.837 193.074 175.871 193.056H202.271C206.687 193.056 210.207 189.44 210.783 185.056C213.663 164.064 228.063 148.768 253.727 148.768C275.679 148.768 295.775 159.744 295.775 186.144C295.775 206.464 283.807 215.808 264.895 230.016C243.359 245.664 226.303 263.936 227.519 293.6L227.615 300.544C227.649 302.643 228.506 304.646 230.003 306.118C231.5 307.591 233.515 308.416 235.615 308.416H261.567C263.689 308.416 265.724 307.573 267.224 306.073C268.724 304.573 269.567 302.538 269.567 300.416V297.056C269.567 274.08 278.303 267.392 301.887 249.504C321.375 234.688 341.695 218.24 341.695 183.712C341.695 135.36 300.863 112 256.159 112C215.615 112 171.199 130.88 168.159 185.152ZM217.983 369.568C217.983 386.624 231.583 399.232 250.303 399.232C269.791 399.232 283.199 386.624 283.199 369.568C283.199 351.904 269.759 339.488 250.271 339.488C231.583 339.488 217.983 351.904 217.983 369.568Z" fill="black"/>
</g>
</svg>
