<svg width="512" height="512" viewBox="0 0 512 512" fill="none" xmlns="http://www.w3.org/2000/svg">
<path d="M465.455 161.536L269.341 298.85C261.33 304.456 250.67 304.456 242.659 298.85L46.5455 161.536V396.167C46.5455 408.916 57.0714 419.444 69.8182 419.444H442.182C454.929 419.444 465.455 408.916 465.455 396.167V161.536ZM69.8182 93.5556C60.7888 93.5556 52.8827 98.843 49.0341 106.456L256 251.363L462.955 106.456C459.105 98.8454 451.209 93.5556 442.182 93.5556H69.8182ZM512 396.167C512 434.628 480.635 466 442.182 466H69.8182C31.365 466 0 434.628 0 396.167V116.833C0 78.3718 31.365 47 69.8182 47H442.182C480.635 47 512 78.3718 512 116.833V396.167Z" fill="black"/>
</svg>
