<svg width="512" height="512" viewBox="0 0 512 512" fill="none" xmlns="http://www.w3.org/2000/svg">
<path d="M470.404 36.033C478.945 35.8746 487.292 38.0979 494.571 42.3975L497.637 44.3432L498.471 44.9367L499.204 45.5963C505.695 51.4023 509.757 59.3262 510.871 67.8227C511.945 74.8996 512.271 82.0835 511.771 89.2248L511.738 89.6205C505.058 161.657 476.269 335.045 461.703 414.74C455.31 449.787 440.678 472.37 416.469 474.692L416.436 474.725C388.588 477.361 366.701 460.483 349.835 448.179L349.669 448.08C345.143 444.696 340.436 441.35 335.535 438.055V438.022C315.175 424.322 299.45 413.41 283.801 402.473C269.497 392.491 255.16 382.579 237.267 370.485C217.58 357.194 203.952 341.302 207.866 321.02C209.551 312.296 214.248 305.089 218.767 299.486C223.314 293.848 228.961 288.293 234 283.327L234.034 283.294C237.403 279.994 240.739 276.649 244 273.236C246.071 271.064 254.129 263.423 264.234 253.78L264.267 253.747C274.693 243.82 287.987 231.08 301.535 218.033C272.893 237.56 235.943 262.851 190.766 294.044C171.698 307.513 152.201 315.666 132.765 315.183V315.216L132.732 315.183L132.665 315.216V315.183C122.695 314.953 109.589 312.257 97.1982 309.082C84.3583 305.792 70.769 301.63 59.2977 297.804V297.771L49.8642 294.77L49.8309 294.737C39.1327 291.282 27.1398 287.498 18.3304 282.371C13.7135 279.683 8.641 275.914 4.96359 270.4C0.993203 264.446 -0.646843 257.535 0.230186 250.251V250.152C1.58372 239.42 8.92151 231.717 15.7304 226.541C22.9 221.091 32.3989 216.213 43.4308 211.734C171.374 154.699 256.871 117 299.801 98.7221H299.834C360.846 72.7505 398.13 57.3306 422.27 48.3663C446.086 39.5226 458.972 36.1958 470.404 36V36.033ZM471.004 69.7684C465.937 69.8548 457.835 71.2081 434.27 79.9582C411.01 88.5958 374.449 103.724 313.301 129.753C270.623 147.924 185.212 185.579 56.931 242.765L56.6643 242.864L56.3977 242.996C46.6372 246.959 40.2707 250.475 36.5307 253.318C36.4214 253.401 36.3323 253.502 36.2307 253.582C41.1341 256.292 48.7773 258.886 60.4311 262.65H60.3977L70.0312 265.75L70.1979 265.783C81.1678 269.442 93.9497 273.374 105.765 276.402C117.988 279.533 127.804 281.324 133.499 281.447H133.565C142.702 281.687 155.007 277.848 170.966 266.575L171.099 266.476C231.047 225.083 276.532 193.886 307.535 172.92C323.024 162.445 334.99 154.472 343.335 149.045C347.481 146.349 350.849 144.209 353.369 142.68C354.614 141.925 355.821 141.237 356.869 140.669C357.107 140.54 359.541 139.12 362.369 138.426L365.835 137.701C367.389 137.443 369.271 137.222 371.269 137.239C375.502 137.277 381.866 138.365 387.302 143.439C392.512 148.306 394.07 154.303 394.569 157.685C395.07 161.089 394.927 164.619 394.269 167.446L394.236 167.413C393.367 171.17 391.396 174.114 390.802 174.998C389.8 176.489 388.608 178.019 387.436 179.45C385.061 182.345 381.923 185.817 378.369 189.607C371.198 197.251 361.541 206.961 351.035 217.307C340.515 227.668 328.992 238.818 317.968 249.394L287.934 278.084C282.605 283.17 278.092 287.468 274.701 290.714C273.012 292.33 271.641 293.661 270.601 294.671C270.08 295.177 269.649 295.579 269.334 295.891L268.801 296.419C265.292 300.09 261.692 303.684 258.067 307.235L258.101 307.268C252.691 312.6 248.56 316.724 245.467 320.558C242.355 324.417 241.568 326.493 241.4 327.351C241.384 327.436 241.052 328.018 242.4 330.088C244.11 332.711 248.059 336.887 256.501 342.587C274.572 354.801 289.064 364.82 303.468 374.871H303.501C319.09 385.767 334.618 396.587 354.735 410.123H354.702C359.997 413.683 365.123 417.312 370.069 421.006H370.102C389.639 435.259 400.655 442.267 413.169 441.089C413.526 441.055 415.339 440.977 418.17 437.131C421.348 432.811 425.262 424.31 428.103 408.738C442.673 329.021 471.134 157.308 477.704 86.7845C478.022 82.1294 477.837 77.4446 477.137 72.8352L477.104 72.5384L477.07 72.2087C477.022 71.7839 476.845 71.4427 476.67 71.1534C474.904 70.2011 472.969 69.7316 471.037 69.7684H471.004Z" fill="black"/>
</svg>
