<svg width="512" height="512" viewBox="0 0 512 512" fill="none" xmlns="http://www.w3.org/2000/svg">
<g clip-path="url(#clip0_3692_8514)">
<path d="M433.441 93.0246C400.245 77.7793 365.212 66.9046 329.217 60.6726C328.891 60.6177 328.556 60.6651 328.258 60.8084C327.96 60.9516 327.714 61.1837 327.553 61.4726C323.041 69.4726 318.049 79.9366 314.561 88.1286C275.765 82.2458 236.302 82.2458 197.505 88.1286C193.631 78.9953 189.229 70.095 184.322 61.4726C184.161 61.1837 183.915 60.9516 183.617 60.8084C183.319 60.6651 182.984 60.6177 182.658 60.6726C146.658 66.8806 111.617 77.7606 78.4335 93.0246C78.1481 93.1306 77.9099 93.3348 77.7615 93.6006C11.3935 192.769 -6.8145 289.505 2.1135 385.025C2.1775 385.494 2.4015 385.889 2.7855 386.209C41.4405 414.824 84.666 436.68 130.625 450.849C130.95 450.951 131.299 450.947 131.621 450.838C131.943 450.729 132.222 450.519 132.417 450.241C142.295 436.801 151.02 422.625 158.593 407.713C158.751 407.406 158.805 407.056 158.747 406.715C158.689 406.375 158.523 406.063 158.273 405.825L157.697 405.473C143.917 400.159 130.566 393.794 117.761 386.433C117.404 386.23 117.138 385.898 117.019 385.505C116.9 385.111 116.937 384.688 117.121 384.321L117.601 383.713C120.311 381.686 122.956 379.606 125.537 377.473C125.764 377.291 126.035 377.174 126.322 377.134C126.61 377.095 126.903 377.134 127.169 377.249C210.977 415.521 301.698 415.521 384.482 377.249C384.756 377.122 385.062 377.075 385.362 377.115C385.662 377.155 385.945 377.279 386.177 377.473C388.759 379.606 391.404 381.686 394.113 383.713C394.339 383.867 394.521 384.076 394.642 384.32C394.764 384.564 394.821 384.836 394.808 385.108C394.795 385.381 394.713 385.646 394.569 385.877C394.425 386.109 394.224 386.3 393.986 386.433C381.237 393.911 367.864 400.27 354.017 405.441C353.797 405.52 353.597 405.648 353.431 405.814C353.265 405.98 353.137 406.18 353.057 406.401C352.98 406.614 352.948 406.841 352.964 407.067C352.981 407.293 353.045 407.513 353.154 407.713C360.834 422.593 369.633 436.801 379.297 450.241C379.493 450.519 379.772 450.729 380.094 450.838C380.416 450.947 380.765 450.951 381.09 450.849C427.14 436.758 470.441 414.896 509.121 386.209C509.314 386.073 509.474 385.896 509.59 385.692C509.706 385.487 509.775 385.259 509.793 385.025C520.481 274.593 491.905 178.657 434.081 93.6326C434.031 93.4875 433.947 93.3565 433.836 93.2507C433.724 93.1449 433.589 93.0674 433.441 93.0246ZM171.105 326.849C145.858 326.849 125.089 303.681 125.089 275.265C125.089 246.849 145.473 223.649 171.105 223.649C196.929 223.649 217.505 247.009 217.121 275.265C217.121 303.681 196.737 326.849 171.105 326.849ZM341.217 326.849C316.001 326.849 295.202 303.681 295.202 275.265C295.202 246.849 315.585 223.649 341.217 223.649C367.041 223.649 387.649 247.009 387.233 275.265C387.233 303.681 367.041 326.849 341.217 326.849Z" fill="black"/>
</g>
</svg>
