<svg width="512" height="512" viewBox="0 0 512 512" fill="none" xmlns="http://www.w3.org/2000/svg">
<path fill-rule="evenodd" clip-rule="evenodd" d="M186.278 325.722C183.268 322.713 179.187 321.023 174.931 321.023C170.675 321.023 166.593 322.713 163.583 325.722L32.1003 457.205V368.351C32.1003 364.094 30.4093 360.012 27.3993 357.002C24.3893 353.992 20.3069 352.301 16.0502 352.301C11.7934 352.301 7.71097 353.992 4.70098 357.002C1.69099 360.012 0 364.094 0 368.351V495.95C0 500.207 1.69099 504.289 4.70098 507.299C7.71097 510.309 11.7934 512 16.0502 512H143.649C147.906 512 151.988 510.309 154.998 507.299C158.008 504.289 159.699 500.207 159.699 495.95C159.699 491.693 158.008 487.611 154.998 484.601C151.988 481.591 147.906 479.9 143.649 479.9H54.7952L186.278 348.417C189.287 345.407 190.977 341.325 190.977 337.069C190.977 332.813 189.287 328.732 186.278 325.722ZM325.722 186.278C328.732 189.287 332.813 190.977 337.069 190.977C341.325 190.977 345.407 189.287 348.417 186.278L479.9 54.7952V143.649C479.9 147.906 481.591 151.988 484.601 154.998C487.611 158.008 491.693 159.699 495.95 159.699C500.207 159.699 504.289 158.008 507.299 154.998C510.309 151.988 512 147.906 512 143.649V16.0502C512 11.7934 510.309 7.71097 507.299 4.70098C504.289 1.69099 500.207 0 495.95 0H368.351C364.094 6.34308e-08 360.012 1.69099 357.002 4.70098C353.992 7.71097 352.301 11.7934 352.301 16.0502C352.301 20.3069 353.992 24.3893 357.002 27.3993C360.012 30.4093 364.094 32.1003 368.351 32.1003H457.205L325.722 163.583C322.713 166.593 321.023 170.675 321.023 174.931C321.023 179.187 322.713 183.268 325.722 186.278Z" fill="black"/>
</svg>
