<svg width="512" height="512" viewBox="0 0 512 512" fill="none" xmlns="http://www.w3.org/2000/svg">
<path fill-rule="evenodd" clip-rule="evenodd" d="M4.69963 507.3C7.7097 510.31 11.7917 512 16.048 512C20.3042 512 24.3862 510.31 27.3963 507.3L158.889 375.807V464.668C158.889 468.925 160.58 473.008 163.591 476.018C166.601 479.028 170.683 480.719 174.941 480.719C179.198 480.719 183.28 479.028 186.291 476.018C189.301 473.008 190.992 468.925 190.992 464.668V337.059C190.992 332.802 189.301 328.72 186.291 325.709C183.28 322.699 179.198 321.008 174.941 321.008H47.3321C43.075 321.008 38.9923 322.699 35.982 325.709C32.9718 328.72 31.2807 332.802 31.2807 337.059C31.2807 341.317 32.9718 345.399 35.982 348.409C38.9923 351.42 43.075 353.111 47.3321 353.111H136.193L4.69963 484.604C1.69046 487.614 0 491.696 0 495.952C0 500.208 1.69046 504.29 4.69963 507.3ZM507.3 4.69963C504.29 1.69046 500.208 0 495.952 0C491.696 0 487.614 1.69046 484.604 4.69963L353.111 136.193V47.3321C353.111 43.075 351.42 38.9923 348.409 35.982C345.399 32.9718 341.317 31.2807 337.059 31.2807C332.802 31.2807 328.72 32.9718 325.709 35.982C322.699 38.9923 321.008 43.075 321.008 47.3321V174.941C321.008 179.198 322.699 183.28 325.709 186.291C328.72 189.301 332.802 190.992 337.059 190.992H464.668C468.925 190.992 473.008 189.301 476.018 186.291C479.028 183.28 480.719 179.198 480.719 174.941C480.719 170.683 479.028 166.601 476.018 163.591C473.008 160.58 468.925 158.889 464.668 158.889H375.807L507.3 27.3963C510.31 24.3862 512 20.3042 512 16.048C512 11.7917 510.31 7.7097 507.3 4.69963Z" fill="black"/>
</svg>
