<svg width="512" height="512" viewBox="0 0 512 512" fill="none" xmlns="http://www.w3.org/2000/svg">
    <path d="M459.815 313.805C451.33 313.805 442.822 310.034 436.352 302.519L256 93.0452L75.6475 302.519C62.6839 317.576 41.6863 317.576 28.7227 302.519C15.7591 287.462 15.7591 263.074 28.7227 248.017L232.538 11.2926C245.501 -3.7642 266.499 -3.7642 279.462 11.2926L483.277 248.017C496.241 263.074 496.241 287.462 483.277 302.519C476.807 310.034 468.299 313.805 459.815 313.805ZM483.277 500.707C496.241 485.651 496.241 461.262 483.277 446.206L279.462 209.481C266.499 194.424 245.501 194.424 232.538 209.481L28.7227 446.206C15.7591 461.262 15.7591 485.651 28.7227 500.707C41.6863 515.764 62.6839 515.764 75.6475 500.707L256 291.233L436.352 500.707C442.822 508.222 451.33 511.993 459.815 511.993C468.299 511.993 476.807 508.222 483.277 500.707Z"
          fill="black"/>
</svg>
