<svg width="448" height="512" viewBox="0 0 448 512" fill="none" xmlns="http://www.w3.org/2000/svg">
<path d="M224 512C240.974 512 257.252 505.257 269.255 493.256C281.257 481.254 288 464.976 288 448.003H160C160 464.976 166.743 481.254 178.745 493.256C190.747 505.257 207.026 512 224 512ZM224 61.4006L198.496 66.5524C169.561 72.4353 143.55 88.1402 124.87 111.006C106.191 133.872 95.9911 162.492 96 192.017C96 212.112 91.712 262.318 81.312 311.755C76.192 336.298 69.28 361.864 60.096 384.007H387.904C378.72 361.864 371.84 336.33 366.688 311.755C356.288 262.318 352 212.112 352 192.017C352.002 162.498 341.799 133.885 323.119 111.026C304.44 88.1664 278.433 72.4662 249.504 66.5844L224 61.4006ZM423.04 384.007C430.176 398.31 438.432 409.638 448 416.005H0C9.568 409.638 17.824 398.31 24.96 384.007C53.76 326.41 64 220.176 64 192.017C64 114.582 119.04 49.9453 192.16 35.1941C191.713 30.7448 192.204 26.2514 193.601 22.0035C194.998 17.7557 197.27 13.8477 200.27 10.5317C203.27 7.21565 206.931 4.56517 211.019 2.75119C215.106 0.937212 219.528 0 224 0C228.472 0 232.894 0.937212 236.981 2.75119C241.069 4.56517 244.73 7.21565 247.73 10.5317C250.731 13.8477 253.002 17.7557 254.399 22.0035C255.796 26.2514 256.287 30.7448 255.84 35.1941C292.015 42.5393 324.537 62.1659 347.894 90.7473C371.251 119.329 384.007 155.107 384 192.017C384 220.176 394.24 326.41 423.04 384.007Z" fill="black"/>
</svg>
