<svg width="512" height="398" viewBox="0 0 512 398" fill="none" xmlns="http://www.w3.org/2000/svg">
<path d="M394.69 168.302C396.035 169.764 397.949 170.61 399.958 170.611C401.463 170.611 402.916 170.137 404.116 169.287L405.225 168.302L477.405 89.9587C479.842 87.3143 479.836 83.3015 477.405 80.654L405.225 2.27665C403.879 0.819373 401.963 0.00147206 399.958 0.00139595C397.952 0.00139614 396.036 0.819466 394.69 2.27665L376.775 21.7351C374.336 24.3825 374.336 28.4265 376.775 31.0739L407.65 64.5914L22.2133 64.5914C15.4305 64.5952 9.7336 66.9713 5.75347 71.0436C1.86346 75.0296 0.00118279 80.2429 0.0011832 85.3064C0.00316726 90.3709 1.85986 95.5843 5.75347 99.5692C9.73361 103.642 15.4305 106.018 22.2133 106.021L407.65 106.021L376.81 139.505C374.378 142.144 374.357 146.162 376.775 148.81L394.69 168.302Z" fill="black"/>
<path d="M432.946 395.691C431.508 397.152 429.464 398 427.319 398C425.713 397.999 424.157 397.525 422.877 396.676L421.692 395.691L402.554 376.203C399.971 373.556 399.994 369.539 402.591 366.901L435.537 333.425L23.7871 333.425C16.5412 333.421 10.4554 331.045 6.20357 326.974C2.04414 322.99 0.0607261 317.778 0.0586012 312.714C0.0586017 307.652 2.04797 302.44 6.20357 298.455C10.4554 294.383 16.5412 292.008 23.7871 292.004L435.537 292.004L402.554 258.494C399.949 255.847 399.949 251.804 402.554 249.157L421.692 229.703C423.13 228.246 425.177 227.429 427.319 227.429C429.462 227.429 431.509 228.246 432.946 229.703L510.054 308.063C512.651 310.71 512.657 314.722 510.054 317.366L432.946 395.691Z" fill="black"/>
</svg>
