<svg width="512" height="500" viewBox="0 0 512 500" fill="none" xmlns="http://www.w3.org/2000/svg">
<path d="M255.854 0.0208238H257.79C304.445 0.0208238 348.103 12.7858 385.498 35.0048L384.354 34.3593C423.289 57.1405 454.815 88.6885 476.936 126.442L477.581 127.65C499.223 164.487 512 208.779 512 256.049C512 368.623 439.52 464.287 338.718 498.813L336.908 499.354C335.597 499.771 334.099 500 332.559 500C329.187 500 326.066 498.875 323.548 497.001L323.59 497.022C320.926 494.627 319.261 491.171 319.261 487.318C319.261 487.214 319.261 487.11 319.261 487.027V487.048C319.261 486.381 319.317 477.871 319.428 461.518C319.539 445.164 319.594 430.213 319.594 416.663C319.74 415.101 319.823 413.311 319.823 411.478C319.823 394.986 313.102 380.076 302.26 369.31C315.12 368.04 326.732 365.916 338.011 362.959L336.429 363.313C348.353 359.981 358.758 355.545 368.414 349.944L367.768 350.298C378.34 344.467 387.288 337.054 394.655 328.266L394.779 328.12C402.521 318.208 408.576 306.547 412.259 293.865L412.447 293.136C416.796 278.914 419.293 262.567 419.293 245.637C419.293 244.7 419.293 243.742 419.272 242.805V242.951C419.272 242.493 419.293 241.972 419.293 241.452C419.293 215.464 409.263 191.829 392.886 174.191L392.948 174.253C396.444 165.091 398.463 154.513 398.463 143.455C398.463 129.94 395.445 117.155 390.056 105.681L390.284 106.222C387.891 105.764 385.165 105.493 382.356 105.493C375.406 105.493 368.851 107.118 363.024 109.991L363.274 109.887C351.454 114.26 341.34 119.216 331.809 125.005L332.6 124.547L319.927 132.543C300.741 127.046 278.703 123.881 255.938 123.881C233.172 123.881 211.134 127.046 190.242 132.96L191.927 132.543C188.376 130.1 183.652 127.095 177.756 123.527C169.994 119.07 160.817 114.76 151.286 111.137L149.913 110.678C143.815 107.472 136.594 105.597 128.916 105.597C126.335 105.597 123.796 105.806 121.341 106.222L121.611 106.181C116.451 117.092 113.433 129.899 113.433 143.413C113.433 154.471 115.452 165.07 119.156 174.837L118.948 174.233C102.612 191.808 92.6028 215.443 92.6028 241.431C92.6028 241.952 92.6028 242.493 92.6236 243.014V242.93C92.6028 243.742 92.6028 244.68 92.6028 245.637C92.6028 262.484 95.1 278.768 99.7613 294.094L99.4492 292.907C103.382 306.297 109.355 317.938 117.137 328.162L116.95 327.891C124.317 336.95 133.223 344.405 143.316 350.006L143.774 350.235C152.763 355.483 163.189 359.918 174.156 363.021L175.113 363.25C184.81 365.853 196.422 367.977 208.304 369.164L209.262 369.247C200.293 378.16 194.32 390.071 192.947 403.357L192.926 403.607C188.618 405.71 183.603 407.417 178.38 408.521L177.943 408.604C172.616 409.666 166.519 410.27 160.255 410.27C159.797 410.27 159.339 410.27 158.881 410.27H158.944C150.745 410.104 143.212 407.438 136.99 403.024L137.115 403.107C129.394 397.714 123.151 390.717 118.781 382.575L118.636 382.262C114.515 375.265 109.084 369.476 102.654 365.041L102.467 364.916C97.7844 361.397 92.2699 358.648 86.3183 357.003L85.9854 356.92L79.3263 355.92C78.8477 355.879 78.2858 355.858 77.7239 355.858C74.8106 355.858 72.0429 356.441 69.5249 357.461L69.6706 357.399C67.8949 358.398 67.3399 359.675 68.0058 361.23C68.8174 363.021 69.8163 364.562 71.0232 365.916L71.0024 365.895C72.2718 367.394 73.7077 368.706 75.2684 369.851L75.3308 369.893L77.6615 371.559C83.5506 374.641 88.3993 378.93 92.0826 384.116L92.1658 384.241C96.1405 389.176 99.6365 394.757 102.446 400.733L102.654 401.233L105.983 408.896C108.793 417.267 113.891 424.264 120.55 429.324L120.654 429.407C126.897 434.28 134.43 437.778 142.65 439.361L142.983 439.403C149.85 440.735 157.841 441.568 165.998 441.735H166.144C167.08 441.777 168.163 441.777 169.265 441.777C174.697 441.777 180.024 441.339 185.226 440.486L184.665 440.569L192.323 439.236C192.323 447.691 192.378 457.533 192.489 468.764C192.6 479.995 192.655 486.055 192.655 486.943V487.235C192.655 491.087 190.991 494.544 188.327 496.939C185.851 498.792 182.729 499.917 179.337 499.917C177.777 499.917 176.278 499.688 174.884 499.25L174.988 499.271C72.4175 464.1 0 368.435 0 255.841C0 208.613 12.7355 164.362 34.981 126.338L34.3151 127.546C57.0808 88.5844 88.6074 57.0364 126.335 34.9007L127.542 34.2551C163.73 12.7233 207.347 0 253.919 0H255.958H255.854V0.0208238Z" fill="black"/>
</svg>
