<svg width="512" height="512" viewBox="0 0 512 512" fill="none" xmlns="http://www.w3.org/2000/svg">
<path fill-rule="evenodd" clip-rule="evenodd" d="M32 255.961C32.0059 205.668 48.9362 156.841 80.065 117.34C111.194 77.8395 154.71 49.9635 203.607 38.2004C252.505 26.4372 303.938 31.4714 349.626 52.4923C395.315 73.5133 432.6 109.298 455.479 154.085C478.358 198.872 485.499 250.055 475.754 299.394C466.008 348.733 439.942 393.357 401.753 426.081C363.563 458.805 315.472 477.726 265.223 479.797C214.973 481.867 165.488 466.968 124.736 437.496C119.392 433.624 117.824 424.504 124.672 417.656L182.272 360.056C203.843 376.196 230.509 384.018 257.381 382.091C284.253 380.163 309.529 368.614 328.576 349.56L373.824 304.281C376.823 301.28 378.508 297.211 378.508 292.969C378.508 288.726 376.823 284.657 373.824 281.657L351.2 259.033L401.088 209.017C402.614 207.538 403.83 205.771 404.666 203.818C405.501 201.865 405.94 199.765 405.955 197.64C405.97 195.516 405.563 193.41 404.755 191.445C403.948 189.479 402.757 187.695 401.253 186.195C399.749 184.695 397.961 183.509 395.993 182.707C394.026 181.906 391.919 181.504 389.794 181.525C387.67 181.547 385.571 181.991 383.62 182.832C381.669 183.673 379.906 184.894 378.432 186.425L328.544 236.409L283.296 191.161L333.216 141.177C334.802 139.715 336.076 137.947 336.961 135.981C337.847 134.014 338.326 131.888 338.369 129.732C338.412 127.575 338.019 125.432 337.212 123.432C336.406 121.431 335.204 119.614 333.678 118.09C332.151 116.566 330.333 115.366 328.331 114.563C326.329 113.76 324.186 113.369 322.029 113.415C319.873 113.462 317.748 113.943 315.783 114.832C313.817 115.72 312.051 116.997 310.592 118.585L260.672 168.505L238.048 145.913C235.047 142.913 230.978 141.228 226.736 141.228C222.493 141.228 218.424 142.913 215.424 145.913L170.176 191.161C151.131 210.205 139.587 235.476 137.66 262.34C135.732 289.204 143.55 315.864 159.68 337.432L102.08 395.032C83.52 413.592 82.24 446.232 105.952 463.416C152.522 497.106 209.075 514.143 266.504 511.784C323.934 509.426 378.899 487.809 422.55 450.414C466.201 413.02 495.997 362.023 507.142 305.636C518.286 249.248 510.13 190.751 483.987 139.562C457.844 88.3736 415.235 47.4722 363.02 23.4435C310.806 -0.585201 252.024 -6.34297 196.139 7.09723C140.254 20.5374 90.5186 52.3935 54.9396 97.5365C19.3607 142.679 0.00887188 198.482 0 255.961C0 260.204 1.68571 264.274 4.68629 267.274C7.68687 270.275 11.7565 271.961 16 271.961C20.2435 271.961 24.3131 270.275 27.3137 267.274C30.3143 264.274 32 260.204 32 255.961Z" fill="black"/>
</svg>
