<svg width="512" height="512" viewBox="0 0 512 512" fill="none" xmlns="http://www.w3.org/2000/svg">
<path fill-rule="evenodd" clip-rule="evenodd" d="M5.47759 138.779C29.9205 40.704 129.247 -18.9689 227.3 5.47777C293.309 21.9433 341.82 72.3354 359.092 133.292L363.62 149.266C399.258 156.142 432.346 173.464 458.384 199.502C492.706 233.828 511.997 280.392 512 328.935C511.999 377.481 492.71 424.056 458.384 458.384C424.058 492.71 377.494 511.999 328.951 512C280.41 511.999 233.858 492.706 199.533 458.384C173.486 432.335 156.153 399.227 149.282 363.573L133.354 359.092C38.543 332.398 -18.5193 235.031 5.47759 138.779ZM328.904 171.656C287.209 171.67 247.224 188.239 217.741 217.725L212.348 223.37L212.363 223.385C186.245 252.236 171.674 289.833 171.672 328.935L171.876 336.749L172.411 344.014C175.892 380.195 191.822 414.238 217.741 440.161C245.391 467.81 282.282 484.111 321.152 486.041L328.951 486.23C368.054 486.229 405.665 471.662 434.516 445.538L440.224 440.114C467.84 412.468 484.111 375.596 486.041 336.749L486.245 328.935L486.072 321.624C484.375 285.17 470.037 250.432 445.554 223.385L440.176 217.725L434.878 212.678C407.897 188.092 373.194 173.653 336.749 171.845L328.904 171.656ZM221.074 30.4776C136.824 9.47041 51.4803 60.7381 30.4775 145.005L28.7165 152.835C13.2528 231.475 59.743 309.19 136.137 332.992C136.105 331.646 136.043 330.288 136.043 328.935C136.043 311.004 138.547 293.325 143.354 276.372L128.024 272.552L124.895 271.766L125.681 268.652L132.191 242.473C129.074 241.664 125.951 240.837 122.757 240.036L99.8482 234.329L96.1532 233.417L97.6626 229.926L106.405 209.785L107.521 207.238L110.194 207.945C110.491 208.024 113.623 208.852 116.703 209.643C118.251 210.041 119.777 210.437 120.917 210.712C121.089 210.754 121.255 210.787 121.405 210.823L121.483 210.775L122.93 211.121C124.545 211.518 125.368 211.161 125.839 210.823C126.425 210.398 126.874 209.675 127.191 208.92L137.867 166.09L138.653 162.993L139.392 160.021L146.798 130.398C146.846 129.031 146.604 127.743 145.933 126.688C145.266 125.643 143.923 124.432 141.011 123.7L134.628 122.097L134.706 122.018C131.644 121.284 128.548 120.587 128.276 120.524L125.084 119.785L125.886 116.609L130.556 97.7886L131.326 94.6597L134.455 95.4458L158.763 101.515L162.143 102.348L162.128 102.38C163.68 102.749 165.254 103.131 166.845 103.496L173.307 77.6786L174.077 74.5497L177.206 75.3359L194.785 79.7226L197.914 80.4931L197.127 83.622L190.854 108.795C193.464 109.391 196.087 110.012 198.684 110.634L204.958 85.5717L205.728 82.4427L208.857 83.2289L226.483 87.6157L229.612 88.3861L228.825 91.515L222.3 117.615C231.474 120.989 239.759 125.15 245.964 130.65C251.777 135.804 255.745 142.159 256.939 149.974C279.609 140.855 304.025 136.013 328.935 136.012C330.308 136.012 331.687 136.073 333.054 136.106C317.704 87.1794 278.826 46.8866 226.341 31.877L221.074 30.4776ZM163.213 221.326L168.055 222.536C174.748 212.406 182.419 202.852 191.027 194.046C183.966 191.53 176.633 189.94 171.373 188.747L163.213 221.326ZM177.316 164.832C182.789 166.287 190.689 168.399 198.197 168.669C202.714 168.83 206.716 168.296 209.769 166.813C212.666 165.405 214.88 163.07 215.885 159.062C216.947 154.792 216.088 151.58 214.219 148.968C212.244 146.213 208.959 143.907 204.895 141.986C198.097 138.776 190.133 137.078 184.565 135.839L177.316 164.832Z" fill="black"/>
<path fill-rule="evenodd" clip-rule="evenodd" d="M401.953 293.388H350.064V316.039C392.291 317.984 423.914 326.329 423.914 336.368C423.914 346.408 392.291 354.753 350.064 356.698V429.419H312.48V356.635C270.315 354.69 238.566 346.345 238.566 336.306C238.566 326.329 270.315 317.984 312.48 316.039V293.388H260.59V258.753H401.953V293.388ZM350.064 343.898C348.934 344.023 343.162 344.525 331.554 344.525C321.891 344.525 314.927 344.086 312.48 343.898V318.549C275.209 320.243 247.351 326.706 247.351 334.486C247.351 338.439 254.315 342.015 265.923 344.776C277.531 347.537 293.844 349.608 312.48 350.423C314.927 350.549 321.703 350.862 331.428 350.862C343.538 350.862 348.997 350.549 350.064 350.486C387.271 348.855 415.067 342.329 415.13 334.486C415.13 326.706 387.397 320.243 350.064 318.549V343.898Z" fill="black"/>
</svg>
