<svg width="512" height="512" viewBox="0 0 512 512" fill="none" xmlns="http://www.w3.org/2000/svg">
<path d="M1.53269e-07 431.5L3.98553e-06 344C4.26291e-06 337.667 2.17091 332.417 6.51273 328.25C10.8545 324.083 16.0313 322 22.0431 322C28.0548 322 33.2316 324.083 37.5734 328.25C41.9152 332.417 44.0861 337.667 44.0861 344L44.0861 431.5C44.0861 431.833 44.0861 432.25 44.0861 432.75C44.0861 433.25 44.0861 433.833 44.0861 434.5C44.0861 443.167 46.8415 450.667 52.3523 457C57.863 463.333 64.7932 467 73.1429 468L438.857 468C447.207 467 454.22 463.333 459.898 457C465.576 450.667 468.415 443.167 468.415 434.5C468.415 433.833 468.415 433.25 468.415 432.75C468.415 432.25 468.248 431.833 467.914 431.5V344C467.914 337.667 470.085 332.417 474.427 328.25C478.768 324.083 483.945 322 489.957 322C496.303 322 501.563 324.083 505.738 328.25C509.913 332.417 512 337.667 512 344V431.5C512 432.167 512 432.75 512 433.25C512 433.75 512 434.333 512 435C512 455.667 504.819 473.417 490.458 488.25C476.097 503.083 458.729 511 438.356 512L74.1448 512C53.4377 511 35.9035 503.083 21.5421 488.25C7.18069 473.417 -9.05137e-07 455.667 0 435C2.9198e-08 434.333 5.83464e-08 433.667 8.75443e-08 433C1.16742e-07 432.333 1.3867e-07 431.833 1.53269e-07 431.5Z" fill="black"/>
<path d="M118.968 218C117.799 220.667 117.214 223.5 117.214 226.5V227C117.214 230 117.799 232.833 118.968 235.5C120.137 238.167 121.723 240.333 123.727 242L240.956 359.5C241.688 360.109 242.464 360.684 243.285 361.226C247.114 364.075 251.515 365.5 256.486 365.5C261.458 365.5 265.858 364.075 269.688 361.226C270.509 360.684 271.285 360.109 272.017 359.5L389.246 242.5C391.25 240.5 392.752 238.167 393.754 235.5C394.756 232.833 395.257 230.167 395.257 227.5C395.257 221.167 393.086 215.917 388.745 211.75C384.403 207.583 379.226 205.5 373.214 205.5C370.208 205.5 367.453 206 364.948 207C362.443 208 360.189 209.333 358.185 211L278.529 290.892V22C278.529 16 276.358 10.8333 272.017 6.5C267.675 2.16667 262.498 2.62268e-07 256.486 0C250.475 -2.62268e-07 245.298 2.16667 240.956 6.5C236.614 10.8333 234.443 16 234.443 22V290.892L154.788 211C152.784 209.333 150.446 207.917 147.774 206.75C145.102 205.583 142.263 205 139.257 205C136.251 205 133.413 205.583 130.741 206.75C128.069 207.917 125.731 209.333 123.727 211C121.723 213 120.137 215.333 118.968 218Z" fill="black"/>
</svg>
