<svg width="512" height="512" viewBox="0 0 512 512" fill="none" xmlns="http://www.w3.org/2000/svg">
<g clip-path="url(#clip0_3749_9366)">
<path d="M248.064 2.10688C250.481 0.726207 253.216 0 256 0C258.784 0 261.519 0.726207 263.936 2.10688L383.936 70.6843C386.385 72.0831 388.42 74.1044 389.837 76.5434C391.253 78.9823 391.999 81.7523 392 84.5725V212.415L503.936 276.416C506.375 277.81 508.405 279.821 509.821 282.248C511.236 284.675 511.988 287.431 512 290.241V427.395C511.999 430.216 511.253 432.986 509.837 435.425C508.42 437.864 506.385 439.885 503.936 441.284L383.936 509.861C381.519 511.242 378.784 511.968 376 511.968C373.216 511.968 370.481 511.242 368.064 509.861L256 445.86L143.936 509.893C141.519 511.274 138.784 512 136 512C133.216 512 130.481 511.274 128.064 509.893L8.064 441.316C5.61513 439.917 3.57951 437.896 2.16338 435.457C0.74724 433.018 0.000909665 430.248 0 427.427L0 290.273C0.000909665 287.452 0.74724 284.682 2.16338 282.244C3.57951 279.805 5.61513 277.783 8.064 276.384L120 212.415V84.5725C120.001 81.7523 120.747 78.9823 122.163 76.5434C123.58 74.1044 125.615 72.0831 128.064 70.6843L248.064 2.10688ZM136 240.128L48.256 290.273L136 340.418L223.744 290.273L136 240.128ZM240 317.857L152 368.13V468.42L240 418.147V317.857ZM272 418.147L360 468.42V368.13L272 317.857V418.147ZM288.256 290.273L376 340.418L463.744 290.273L376 240.128L288.256 290.273ZM360 212.415V112.125L272 162.43V262.72L360 212.415ZM240 262.72V162.43L152 112.125V212.415L240 262.72ZM168.256 84.5725L256 134.718L343.744 84.5725L256 34.4275L168.256 84.5725ZM480 317.857L392 368.13V468.42L480 418.147V317.857ZM120 468.42V368.13L32 317.857V418.147L120 468.42Z" fill="black"/>
</g>
</svg>
