<svg width="512" height="512" viewBox="0 0 512 512" fill="none" xmlns="http://www.w3.org/2000/svg">
<path fill-rule="evenodd" clip-rule="evenodd" d="M192 64C195.288 64.0014 198.496 65.0159 201.187 66.9055C203.878 68.7951 205.922 71.468 207.04 74.5605L320 385.168L368.96 250.505C370.089 247.425 372.137 244.765 374.827 242.888C377.517 241.01 380.719 240.005 384 240.009H496C500.243 240.009 504.313 241.694 507.314 244.695C510.314 247.696 512 251.766 512 256.009C512 260.253 510.314 264.323 507.314 267.324C504.313 270.324 500.243 272.01 496 272.01H395.2L335.04 437.458C333.919 440.547 331.874 443.216 329.183 445.102C326.492 446.988 323.286 448 320 448C316.714 448 313.508 446.988 310.817 445.102C308.126 443.216 306.081 440.547 304.96 437.458L192 126.851L143.04 261.482C141.917 264.568 139.871 267.234 137.18 269.118C134.49 271.001 131.284 272.011 128 272.01H16C11.7565 272.01 7.68687 270.324 4.68629 267.324C1.68571 264.323 0 260.253 0 256.009C0 251.766 1.68571 247.696 4.68629 244.695C7.68687 241.694 11.7565 240.009 16 240.009H116.8L176.96 74.5605C178.078 71.468 180.122 68.7951 182.813 66.9055C185.504 65.0159 188.712 64.0014 192 64Z" fill="black"/>
</svg>
