<svg width="512" height="512" viewBox="0 0 512 512" fill="none" xmlns="http://www.w3.org/2000/svg">
<path d="M308.986 27.647L255.581 0L202.177 27.647L142.724 36.6706L115.782 90.4286L73 132.667L82.7914 191.993L73 251.319L115.782 293.557L142.724 347.315L202.177 356.339L255.581 383.986L308.986 356.339L368.439 347.315L395.381 293.557L438.163 251.319L428.371 191.993L438.163 132.667L395.381 90.4286L368.439 36.6706L308.986 27.647ZM347.256 65.8216L369.143 109.5L403.893 143.803L395.957 191.993L403.893 240.183L369.143 274.486L347.256 318.164L298.939 325.492L255.581 347.955L212.224 325.492L163.907 318.164L142.02 274.486L107.27 240.183L115.238 191.993L107.238 143.803L142.02 109.5L163.907 65.8216L212.224 58.4938L255.581 36.0307L298.971 58.4938L347.256 65.8216Z" fill="black"/>
<path d="M127.648 377.412V511.999L255.641 480L383.634 511.999V377.412L319.061 387.204L255.641 420.035L192.221 387.204L127.648 377.412Z" fill="black"/>
</svg>
