<svg width="512" height="512" viewBox="0 0 512 512" fill="none" xmlns="http://www.w3.org/2000/svg">
<g clip-path="url(#clip0_3750_9563)">
<path fill-rule="evenodd" clip-rule="evenodd" d="M0 0H32V480H512V512H0V0ZM320 112C320 107.757 321.686 103.687 324.686 100.686C327.687 97.6857 331.757 96 336 96H464C468.243 96 472.313 97.6857 475.314 100.686C478.314 103.687 480 107.757 480 112V240C480 244.243 478.314 248.313 475.314 251.314C472.313 254.314 468.243 256 464 256C459.757 256 455.687 254.314 452.686 251.314C449.686 248.313 448 244.243 448 240V156.8L332.384 298.144C330.969 299.872 329.207 301.284 327.213 302.289C325.219 303.295 323.037 303.873 320.806 303.984C318.576 304.096 316.347 303.739 314.262 302.937C312.178 302.135 310.285 300.906 308.704 299.328L225.92 216.544L108.928 377.408C106.369 380.662 102.648 382.798 98.5467 383.366C94.4457 383.934 90.2842 382.89 86.9367 380.454C83.5892 378.018 81.3162 374.379 80.5955 370.303C79.8748 366.226 80.7625 362.028 83.072 358.592L211.072 182.592C212.431 180.72 214.179 179.166 216.196 178.035C218.213 176.904 220.452 176.224 222.757 176.041C225.063 175.859 227.381 176.178 229.551 176.978C231.721 177.777 233.692 179.038 235.328 180.672L318.816 264.192L430.24 128H336C331.757 128 327.687 126.314 324.686 123.314C321.686 120.313 320 116.243 320 112Z" fill="black"/>
</g>
</svg>
