<svg width="512" height="512" viewBox="0 0 512 512" fill="none" xmlns="http://www.w3.org/2000/svg">
<path d="M495.75 236.057C482.002 222.26 460.005 222.26 446.257 236.057L291.026 391.839V35.12C291.026 15.804 275.278 0 256.031 0C236.783 0 221.035 15.804 221.035 35.12V391.839L65.8049 236.057C52.0566 222.26 30.0595 222.26 16.3112 236.057C2.56294 249.854 2.56294 271.929 16.3112 285.727L231.284 501.464C232.034 502.217 233.034 502.969 233.784 503.722C234.284 503.973 234.534 504.223 235.033 504.725C235.533 505.227 236.033 505.478 236.533 505.979C237.033 506.23 237.533 506.481 238.033 506.983C238.533 507.234 239.033 507.485 239.533 507.735C240.033 507.986 240.533 508.237 241.033 508.488C241.533 508.739 242.033 508.99 242.533 509.241C243.032 509.491 243.532 509.742 244.032 509.742C244.532 509.993 245.032 510.244 245.782 510.244C246.282 510.495 246.782 510.495 247.282 510.746C247.782 510.997 248.532 510.997 249.032 511.247C249.532 511.247 250.282 511.498 250.781 511.498C251.281 511.498 251.781 511.749 252.281 511.749C253.531 511.749 254.531 512 255.781 512C257.031 512 258.031 512 259.28 511.749C259.78 511.749 260.28 511.498 260.78 511.498C261.28 511.498 262.03 511.247 262.53 511.247C263.03 511.247 263.78 510.997 264.28 510.746C264.78 510.495 265.28 510.495 265.78 510.244C266.28 509.993 267.029 509.742 267.529 509.742C268.029 509.491 268.529 509.491 269.029 509.241C269.529 508.99 270.029 508.739 270.529 508.488C271.029 508.237 271.529 507.986 272.029 507.735C272.529 507.485 273.029 507.234 273.529 506.983C274.029 506.732 274.528 506.481 275.028 505.979C275.528 505.729 276.028 505.227 276.528 504.725C277.028 504.474 277.278 504.223 277.778 503.973C278.778 503.22 279.528 502.467 280.278 501.715L495.251 285.977C509.499 271.929 509.499 249.854 495.75 236.057Z" fill="black"/>
</svg>
