<svg width="512" height="512" viewBox="0 0 512 512" fill="none" xmlns="http://www.w3.org/2000/svg">
<path d="M95.04 43.2C98.0444 39.6875 101.774 36.8675 105.972 34.9341C110.171 33.0007 114.738 31.9997 119.36 32H392.64C397.262 31.9997 401.829 33.0007 406.028 34.9341C410.226 36.8675 413.956 39.6875 416.96 43.2L500.448 140.608C507.902 149.307 512 160.384 512 171.84V180C512.002 195.839 507.055 211.283 497.85 224.173C488.646 237.064 475.644 246.756 460.662 251.896C445.679 257.036 429.466 257.366 414.287 252.841C399.108 248.315 385.722 239.161 376 226.656C368.902 235.802 359.804 243.202 349.404 248.289C339.004 253.375 327.577 256.013 316 256C304.423 256.013 292.996 253.375 282.596 248.289C272.196 243.202 263.098 235.802 256 226.656C248.902 235.802 239.804 243.202 229.404 248.289C219.004 253.375 207.577 256.013 196 256C184.423 256.013 172.996 253.375 162.596 248.289C152.196 243.202 143.098 235.802 136 226.656C126.278 239.161 112.892 248.315 97.7132 252.841C82.5341 257.366 66.3205 257.036 51.3384 251.896C36.3562 246.756 23.3543 237.064 14.1498 224.173C4.94534 211.283 -0.00174715 195.839 4.62865e-07 180V171.84C0.000403441 160.384 4.09781 149.307 11.552 140.608L95.04 43.2ZM152 180C152 191.67 156.636 202.861 164.887 211.113C173.139 219.364 184.33 224 196 224C207.67 224 218.861 219.364 227.113 211.113C235.364 202.861 240 191.67 240 180C240 175.757 241.686 171.687 244.686 168.686C247.687 165.686 251.757 164 256 164C260.243 164 264.313 165.686 267.314 168.686C270.314 171.687 272 175.757 272 180C272 191.67 276.636 202.861 284.887 211.113C293.139 219.364 304.33 224 316 224C327.67 224 338.861 219.364 347.113 211.113C355.364 202.861 360 191.67 360 180C360 175.757 361.686 171.687 364.686 168.686C367.687 165.686 371.757 164 376 164C380.243 164 384.313 165.686 387.314 168.686C390.314 171.687 392 175.757 392 180C392 191.67 396.636 202.861 404.887 211.113C413.139 219.364 424.33 224 436 224C447.67 224 458.861 219.364 467.113 211.113C475.364 202.861 480 191.67 480 180V171.84C480 168.026 478.638 164.338 476.16 161.44L392.64 64H119.36L35.84 161.44C33.3615 164.338 31.9997 168.026 32 171.84V180C32 191.67 36.6357 202.861 44.8873 211.113C53.1389 219.364 64.3305 224 76 224C87.6695 224 98.8611 219.364 107.113 211.113C115.364 202.861 120 191.67 120 180C120 175.757 121.686 171.687 124.686 168.686C127.687 165.686 131.757 164 136 164C140.243 164 144.313 165.686 147.314 168.686C150.314 171.687 152 175.757 152 180ZM48 272C52.2435 272 56.3131 273.686 59.3137 276.686C62.3143 279.687 64 283.757 64 288V480H96V320C96 311.513 99.3714 303.374 105.373 297.373C111.374 291.371 119.513 288 128 288H224C232.487 288 240.626 291.371 246.627 297.373C252.629 303.374 256 311.513 256 320V480H448V288C448 283.757 449.686 279.687 452.686 276.686C455.687 273.686 459.757 272 464 272C468.243 272 472.313 273.686 475.314 276.686C478.314 279.687 480 283.757 480 288V480H496C500.243 480 504.313 481.686 507.314 484.686C510.314 487.687 512 491.757 512 496C512 500.243 510.314 504.313 507.314 507.314C504.313 510.314 500.243 512 496 512H16C11.7565 512 7.68687 510.314 4.68629 507.314C1.68571 504.313 4.62865e-07 500.243 4.62865e-07 496C4.62865e-07 491.757 1.68571 487.687 4.68629 484.686C7.68687 481.686 11.7565 480 16 480H32V288C32 283.757 33.6857 279.687 36.6863 276.686C39.6869 273.686 43.7565 272 48 272ZM128 480H224V320H128V480ZM288 320C288 311.513 291.371 303.374 297.373 297.373C303.374 291.371 311.513 288 320 288H384C392.487 288 400.626 291.371 406.627 297.373C412.629 303.374 416 311.513 416 320V416C416 424.487 412.629 432.626 406.627 438.627C400.626 444.629 392.487 448 384 448H320C311.513 448 303.374 444.629 297.373 438.627C291.371 432.626 288 424.487 288 416V320ZM384 320H320V416H384V320Z" fill="black"/>
</svg>
