<svg width="512" height="512" viewBox="0 0 512 512" fill="none" xmlns="http://www.w3.org/2000/svg">
<g clip-path="url(#clip0_3750_9567)">
<path d="M0 32C0 23.5131 3.37142 15.3737 9.37258 9.37258C15.3737 3.37142 23.5131 0 32 0L480 0C488.487 0 496.626 3.37142 502.627 9.37258C508.629 15.3737 512 23.5131 512 32V480C512 488.487 508.629 496.626 502.627 502.627C496.626 508.629 488.487 512 480 512H32C23.5131 512 15.3737 508.629 9.37258 502.627C3.37142 496.626 0 488.487 0 480V32ZM128 32V224H384V32H128ZM384 288H128V480H384V288ZM32 32V96H96V32H32ZM96 128H32V192H96V128ZM32 224V288H96V224H32ZM96 320H32V384H96V320ZM32 416V480H96V416H32ZM480 32H416V96H480V32ZM416 128V192H480V128H416ZM480 224H416V288H480V224ZM416 320V384H480V320H416ZM480 416H416V480H480V416Z" fill="black"/>
</g>
</svg>
