<svg width="512" height="512" viewBox="0 0 512 512" fill="none" xmlns="http://www.w3.org/2000/svg">
<path d="M368 192.864C368 197.108 366.314 201.177 363.314 204.178C360.313 207.179 356.243 208.864 352 208.864C347.757 208.864 343.687 207.179 340.686 204.178C337.686 201.177 336 197.108 336 192.864C336 188.621 337.686 184.551 340.686 181.551C343.687 178.55 347.757 176.864 352 176.864C356.243 176.864 360.313 178.55 363.314 181.551C366.314 184.551 368 188.621 368 192.864ZM320 240.864C324.243 240.864 328.313 239.179 331.314 236.178C334.314 233.177 336 229.108 336 224.864C336 220.621 334.314 216.551 331.314 213.551C328.313 210.55 324.243 208.864 320 208.864C315.757 208.864 311.687 210.55 308.686 213.551C305.686 216.551 304 220.621 304 224.864C304 229.108 305.686 233.177 308.686 236.178C311.687 239.179 315.757 240.864 320 240.864ZM400 224.864C400 229.108 398.314 233.177 395.314 236.178C392.313 239.179 388.243 240.864 384 240.864C379.757 240.864 375.687 239.179 372.686 236.178C369.686 233.177 368 229.108 368 224.864C368 220.621 369.686 216.551 372.686 213.551C375.687 210.55 379.757 208.864 384 208.864C388.243 208.864 392.313 210.55 395.314 213.551C398.314 216.551 400 220.621 400 224.864ZM352 272.864C356.243 272.864 360.313 271.179 363.314 268.178C366.314 265.177 368 261.108 368 256.864C368 252.621 366.314 248.551 363.314 245.551C360.313 242.55 356.243 240.864 352 240.864C347.757 240.864 343.687 242.55 340.686 245.551C337.686 248.551 336 252.621 336 256.864C336 261.108 337.686 265.177 340.686 268.178C343.687 271.179 347.757 272.864 352 272.864ZM144 176.864H176V208.864H208V240.864H176V272.864H144V240.864H112V208.864H144V176.864Z" fill="black"/>
<path d="M97.6311 104.32C97.0845 102.288 96.9441 100.168 97.2178 98.0819C97.4915 95.9957 98.174 93.984 99.2263 92.1619C100.278 90.3398 101.68 88.7432 103.35 87.4634C105.02 86.1836 106.926 85.2458 108.959 84.7036L170.783 68.1276C172.908 67.5612 175.128 67.4391 177.303 67.769C179.477 68.0988 181.561 68.8735 183.422 70.0447C185.284 71.2158 186.885 72.7583 188.124 74.5757C189.362 76.3932 190.213 78.4466 190.623 80.6076C211.583 78.0796 233.823 76.8636 255.999 76.8636C279.039 76.8636 302.175 78.1756 323.839 80.8956C324.213 78.7018 325.041 76.6101 326.269 74.7543C327.497 72.8985 329.099 71.3193 330.973 70.1177C332.846 68.9161 334.949 68.1184 337.148 67.7758C339.347 67.4331 341.593 67.5529 343.743 68.1276L405.567 84.7036C407.926 85.3351 410.109 86.4982 411.949 88.1039C413.789 89.7095 415.238 91.715 416.183 93.9668C417.128 96.2186 417.545 98.6568 417.402 101.095C417.26 103.533 416.561 105.906 415.359 108.032C419.86 110.933 423.839 114.101 427.295 117.536C440.351 130.592 452.255 151.136 462.335 174.24C472.575 197.696 481.503 225.152 488.095 253.152C494.687 281.152 498.975 310.112 499.743 336.544C500.511 362.656 497.855 387.808 489.247 407.264C485.322 415.998 478.737 423.27 470.433 428.04C462.129 432.809 452.53 434.834 443.007 433.824C422.655 431.68 407.327 421.216 394.591 409.088C386.751 401.664 378.719 392.256 370.943 383.232C366.911 378.496 362.943 373.888 359.167 369.696C335.871 343.968 308.063 320.832 255.999 320.832C203.935 320.832 176.127 343.968 152.831 369.696C149.023 373.888 145.087 378.496 141.055 383.232C133.279 392.256 125.247 401.632 117.407 409.088C104.671 421.248 89.3431 431.68 68.9911 433.824C59.4681 434.834 49.8694 432.809 41.5654 428.04C33.2614 423.27 26.6766 415.998 22.7511 407.264C14.1111 387.808 11.4871 362.624 12.2231 336.544C12.9911 310.112 17.3431 281.184 23.9031 253.152C30.4951 225.152 39.4551 197.696 49.6631 174.24C59.7431 151.136 71.6471 130.592 84.6711 117.536C88.8465 113.423 93.4981 109.825 98.5271 106.816L97.6311 104.32ZM162.783 117.504C134.719 123.424 115.775 131.68 107.327 140.16C98.4951 148.992 88.5431 165.216 79.0071 187.04C68.929 210.785 60.9206 235.356 55.0711 260.48C48.9433 285.727 45.3099 311.514 44.2231 337.472C43.5191 361.632 46.2071 381.248 51.9991 394.304C53.1853 396.847 55.1376 398.955 57.5823 400.332C60.027 401.709 62.8415 402.287 65.6311 401.984C76.0951 400.896 85.1511 395.616 95.3591 385.92C102.143 379.456 108.159 372.384 115.039 364.352C119.295 359.36 123.871 354.016 129.119 348.224C155.551 319.008 191.295 288.864 255.999 288.864C320.703 288.864 356.447 319.008 382.879 348.224C388.127 354.016 392.703 359.36 396.959 364.352C403.807 372.384 409.855 379.456 416.639 385.92C426.815 395.616 435.871 400.896 446.367 402.016C449.16 402.316 451.977 401.734 454.423 400.351C456.868 398.967 458.818 396.853 459.999 394.304C465.759 381.248 468.479 361.664 467.775 337.472C466.688 311.514 463.055 285.727 456.927 260.48C451.078 235.356 443.069 210.785 432.991 187.04C423.455 165.216 413.471 148.96 404.671 140.16C396.223 131.68 377.279 123.424 349.215 117.504C322.015 111.776 289.151 108.864 255.999 108.864C222.847 108.864 189.983 111.776 162.783 117.504Z" fill="black"/>
</svg>
