<svg width="512" height="512" viewBox="0 0 512 512" fill="none" xmlns="http://www.w3.org/2000/svg">
<g clip-path="url(#clip0_3750_9572)">
<path d="M432.008 32.0101C419.278 32.0101 407.069 37.0672 398.067 46.0689C389.066 55.0707 384.008 67.2797 384.008 80.0101C384.008 92.7404 389.066 104.949 398.067 113.951C407.069 122.953 419.278 128.01 432.008 128.01C444.739 128.01 456.948 122.953 465.95 113.951C474.951 104.949 480.008 92.7404 480.008 80.0101C480.008 67.2797 474.951 55.0707 465.95 46.0689C456.948 37.0672 444.739 32.0101 432.008 32.0101ZM352.008 80.0101C352.006 61.2399 358.604 43.0666 370.647 28.6696C382.691 14.2727 399.413 4.56888 417.889 1.25604C436.364 -2.05681 455.416 1.23224 471.712 10.5477C488.007 19.8632 500.508 34.6119 507.028 52.2135C513.547 69.8151 513.67 89.1486 507.375 106.832C501.079 124.515 488.767 139.421 472.591 148.943C456.415 158.464 437.406 161.995 418.89 158.917C400.374 155.839 383.53 146.349 371.304 132.106L156.328 231.946C161.269 247.608 161.269 264.412 156.328 280.074L371.304 379.914C384.227 364.885 402.27 355.188 421.935 352.703C441.6 350.218 461.487 355.122 477.742 366.464C493.998 377.807 505.463 394.78 509.918 414.094C514.372 433.408 511.498 453.689 501.851 471.004C492.205 488.32 476.474 501.438 457.707 507.817C438.94 514.195 418.473 513.379 400.273 505.527C382.074 497.675 367.437 483.347 359.199 465.318C350.962 447.289 349.711 426.845 355.688 407.946L140.712 308.106C130.07 320.508 115.885 329.354 100.065 333.453C84.2455 337.552 67.5498 336.707 52.2241 331.033C36.8984 325.359 23.6781 315.128 14.3415 301.715C5.00493 288.303 0 272.352 0 256.01C0 239.668 5.00493 223.717 14.3415 210.305C23.6781 196.892 36.8984 186.661 52.2241 180.987C67.5498 175.313 84.2455 174.468 100.065 178.567C115.885 182.666 130.07 191.512 140.712 203.914L355.688 104.074C353.241 96.2874 352 88.1722 352.008 80.0101ZM80.0085 208.01C67.2781 208.01 55.0691 213.067 46.0674 222.069C37.0656 231.071 32.0085 243.28 32.0085 256.01C32.0085 268.74 37.0656 280.949 46.0674 289.951C55.0691 298.953 67.2781 304.01 80.0085 304.01C92.7389 304.01 104.948 298.953 113.95 289.951C122.951 280.949 128.008 268.74 128.008 256.01C128.008 243.28 122.951 231.071 113.95 222.069C104.948 213.067 92.7389 208.01 80.0085 208.01ZM432.008 384.01C419.278 384.01 407.069 389.067 398.067 398.069C389.066 407.071 384.008 419.28 384.008 432.01C384.008 444.74 389.066 456.949 398.067 465.951C407.069 474.953 419.278 480.01 432.008 480.01C444.739 480.01 456.948 474.953 465.95 465.951C474.951 456.949 480.008 444.74 480.008 432.01C480.008 419.28 474.951 407.071 465.95 398.069C456.948 389.067 444.739 384.01 432.008 384.01Z" fill="black"/>
</g>
</svg>
