<svg width="512" height="512" viewBox="0 0 512 512" fill="none" xmlns="http://www.w3.org/2000/svg">
<path d="M191.999 400C191.999 395.757 193.685 391.687 196.685 388.687C199.686 385.686 203.755 384 207.999 384H303.999C308.242 384 312.312 385.686 315.313 388.687C318.313 391.687 319.999 395.757 319.999 400C319.999 404.244 318.313 408.313 315.313 411.314C312.312 414.315 308.242 416 303.999 416H207.999C203.755 416 199.686 414.315 196.685 411.314C193.685 408.313 191.999 404.244 191.999 400ZM95.9989 257.984C95.9989 216.32 135.519 184.48 176.959 188.352C229.538 193.256 282.46 193.256 335.039 188.352C376.479 184.48 415.999 216.32 415.999 257.984V295.008C416.149 302.093 413.766 309 409.279 314.484C404.791 319.969 398.493 323.673 391.519 324.928C364.479 329.632 316.639 336 255.999 336C195.359 336 147.519 329.6 120.479 324.928C113.504 323.673 107.207 319.969 102.719 314.484C98.2317 309 95.8486 302.093 95.9989 295.008V257.984ZM241.343 231.52C240.096 231.308 238.816 231.395 237.609 231.773C236.402 232.151 235.302 232.81 234.399 233.696L204.959 262.496C184.935 261.296 164.964 259.342 145.087 256.64C143.027 256.436 140.968 257.037 139.343 258.319C137.717 259.6 136.652 261.462 136.37 263.512C136.089 265.563 136.613 267.643 137.832 269.315C139.052 270.987 140.872 272.122 142.911 272.48C160.511 274.912 182.335 277.248 207.551 278.656C208.662 278.719 209.773 278.549 210.814 278.158C211.856 277.767 212.804 277.163 213.599 276.384L237.727 252.832L264.831 307.552C265.402 308.7 266.24 309.694 267.276 310.45C268.311 311.206 269.513 311.703 270.78 311.897C272.048 312.092 273.343 311.979 274.558 311.568C275.772 311.157 276.87 310.46 277.759 309.536L307.583 278.496C328.154 277.284 348.671 275.277 369.087 272.48C371.125 272.122 372.946 270.987 374.165 269.315C375.385 267.643 375.909 265.563 375.627 263.512C375.346 261.462 374.28 259.6 372.655 258.319C371.029 257.037 368.971 256.436 366.911 256.64C349.695 259.008 328.287 261.28 303.551 262.688C301.537 262.8 299.64 263.669 298.239 265.12L274.111 290.24L247.167 235.84C246.605 234.712 245.785 233.733 244.772 232.983C243.76 232.232 242.585 231.731 241.343 231.52Z" fill="black"/>
<path d="M272 59.7128C278.101 56.1907 282.868 50.7539 285.564 44.2459C288.26 37.7378 288.733 30.5221 286.91 23.7178C285.086 16.9135 281.069 10.901 275.48 6.61269C269.892 2.3244 263.044 0 256 0C248.956 0 242.108 2.3244 236.52 6.61269C230.931 10.901 226.914 16.9135 225.09 23.7178C223.267 30.5221 223.74 37.7378 226.436 44.2459C229.132 50.7539 233.899 56.1907 240 59.7128V96.0008H176C137.809 96.0008 101.182 111.172 74.1766 138.177C47.1714 165.183 32 201.81 32 240.001V256.001C23.5131 256.001 15.3737 259.372 9.37258 265.373C3.37142 271.375 0 279.514 0 288.001L0 352.001C0 360.488 3.37142 368.627 9.37258 374.628C15.3737 380.629 23.5131 384.001 32 384.001V416.001C32 432.975 38.7428 449.253 50.7452 461.256C62.7475 473.258 79.0261 480.001 96 480.001H416C432.974 480.001 449.252 473.258 461.255 461.256C473.257 449.253 480 432.975 480 416.001V384.001C488.487 384.001 496.626 380.629 502.627 374.628C508.629 368.627 512 360.488 512 352.001V288.001C512 279.514 508.629 271.375 502.627 265.373C496.626 259.372 488.487 256.001 480 256.001V240.001C480 201.81 464.829 165.183 437.823 138.177C410.818 111.172 374.191 96.0008 336 96.0008H272V59.7128ZM448 240.001V416.001C448 424.488 444.629 432.627 438.627 438.628C432.626 444.629 424.487 448.001 416 448.001H96C87.5131 448.001 79.3737 444.629 73.3726 438.628C67.3714 432.627 64 424.488 64 416.001V240.001C64 210.297 75.8 181.809 96.804 160.805C117.808 139.801 146.296 128.001 176 128.001H336C365.704 128.001 394.192 139.801 415.196 160.805C436.2 181.809 448 210.297 448 240.001Z" fill="black"/>
</svg>
