<svg width="512" height="512" viewBox="0 0 512 512" fill="none" xmlns="http://www.w3.org/2000/svg">
<path d="M352 64C352 55.5131 355.371 47.3737 361.373 41.3726C367.374 35.3714 375.513 32 384 32H448C456.487 32 464.626 35.3714 470.627 41.3726C476.629 47.3737 480 55.5131 480 64V448H496C500.243 448 504.313 449.686 507.314 452.686C510.314 455.687 512 459.757 512 464C512 468.243 510.314 472.313 507.314 475.314C504.313 478.314 500.243 480 496 480H16C11.7565 480 7.68687 478.314 4.68629 475.314C1.68571 472.313 0 468.243 0 464C0 459.757 1.68571 455.687 4.68629 452.686C7.68687 449.686 11.7565 448 16 448H32V352C32 343.513 35.3714 335.374 41.3726 329.373C47.3737 323.371 55.5131 320 64 320H128C136.487 320 144.626 323.371 150.627 329.373C156.629 335.374 160 343.513 160 352V448H192V224C192 215.513 195.371 207.374 201.373 201.373C207.374 195.371 215.513 192 224 192H288C296.487 192 304.626 195.371 310.627 201.373C316.629 207.374 320 215.513 320 224V448H352V64ZM384 448H448V64H384V448ZM288 448V224H224V448H288ZM128 448V352H64V448H128Z" fill="black"/>
</svg>
