<svg width="512" height="512" viewBox="0 0 512 512" fill="none" xmlns="http://www.w3.org/2000/svg">
<g clip-path="url(#clip0_3750_9579)">
<path d="M176 304.352C178.432 334.88 202.56 358.656 245.824 361.472V384H265.024V361.312C309.824 358.176 336 334.24 336 299.488C336 267.904 315.968 251.616 280.16 243.168L265.024 239.584V178.24C284.224 180.416 296.448 190.912 299.392 205.44H333.056C330.624 176.032 305.408 153.024 265.024 150.528V128H245.824V151.008C207.584 154.752 181.504 177.76 181.504 210.304C181.504 239.104 200.896 257.408 233.12 264.928L245.824 268.064V333.152C226.144 330.176 213.12 319.392 210.176 304.352H176ZM245.664 235.04C226.784 230.656 216.544 221.728 216.544 208.288C216.544 193.248 227.584 181.984 245.824 178.688V235.008L245.664 235.04ZM267.808 273.216C290.752 278.528 301.344 287.136 301.344 302.336C301.344 319.68 288.16 331.584 265.024 333.76V272.576L267.808 273.216Z" fill="black"/>
<path d="M256 480C196.592 480 139.616 456.4 97.6081 414.392C55.5999 372.384 32 315.408 32 256C32 196.592 55.5999 139.616 97.6081 97.6081C139.616 55.5999 196.592 32 256 32C315.408 32 372.384 55.5999 414.392 97.6081C456.4 139.616 480 196.592 480 256C480 315.408 456.4 372.384 414.392 414.392C372.384 456.4 315.408 480 256 480ZM256 512C323.895 512 389.01 485.029 437.019 437.019C485.029 389.01 512 323.895 512 256C512 188.105 485.029 122.99 437.019 74.9807C389.01 26.9714 323.895 0 256 0C188.105 0 122.99 26.9714 74.9807 74.9807C26.9714 122.99 0 188.105 0 256C0 323.895 26.9714 389.01 74.9807 437.019C122.99 485.029 188.105 512 256 512Z" fill="black"/>
<path d="M256 432C209.322 432 164.556 413.457 131.549 380.451C98.5428 347.444 80 302.678 80 256C80 209.322 98.5428 164.556 131.549 131.549C164.556 98.5428 209.322 80 256 80C302.678 80 347.444 98.5428 380.451 131.549C413.457 164.556 432 209.322 432 256C432 302.678 413.457 347.444 380.451 380.451C347.444 413.457 302.678 432 256 432ZM256 448C281.214 448 306.181 443.034 329.475 433.385C352.77 423.736 373.936 409.593 391.764 391.764C409.593 373.936 423.736 352.77 433.385 329.475C443.034 306.181 448 281.214 448 256C448 230.786 443.034 205.819 433.385 182.525C423.736 159.23 409.593 138.064 391.764 120.235C373.936 102.407 352.77 88.264 329.475 78.6151C306.181 68.9662 281.214 64 256 64C205.078 64 156.242 84.2285 120.235 120.235C84.2285 156.242 64 205.078 64 256C64 306.922 84.2285 355.758 120.235 391.764C156.242 427.771 205.078 448 256 448Z" fill="black"/>
</g>
</svg>
