<svg width="512" height="512" viewBox="0 0 512 512" fill="none" xmlns="http://www.w3.org/2000/svg">
    <path d="M506 255.519C506 275.268 490.566 291.426 471.703 291.426H123.344L275.476 450.701C288.95 464.808 288.95 487.378 275.476 501.484C268.861 508.409 260.042 512 251.223 512C242.404 512 233.585 508.409 226.97 501.484L16.2891 280.911C15.5542 280.141 14.8192 279.115 14.0843 278.346C13.8393 277.833 13.5943 277.576 13.1044 277.063C12.6144 276.551 12.3694 276.038 11.8795 275.525C11.6345 275.012 11.3895 274.499 10.8996 273.986C10.6546 273.473 10.4096 272.96 10.1647 272.447C9.91968 271.934 9.67469 271.421 9.42971 270.908C9.18474 270.395 8.93975 269.882 8.69477 269.369C8.44979 268.856 8.20482 268.343 8.20482 267.83C7.95985 267.317 7.71488 266.804 7.71488 266.035C7.4699 265.522 7.46987 265.009 7.22489 264.496C6.97991 263.983 6.97992 263.214 6.73494 262.701C6.73494 262.188 6.48999 261.418 6.48999 260.905C6.48999 260.392 6.24499 259.879 6.24499 259.366C6.24499 258.34 6 257.058 6 256.032C6 255.006 6.00001 253.724 6.24499 252.698C6.24499 252.185 6.48999 251.672 6.48999 251.159C6.48999 250.646 6.73494 249.877 6.73494 249.364C6.73494 248.851 6.97991 248.081 7.22489 247.568C7.46987 247.055 7.4699 246.542 7.71488 246.029C7.95985 245.516 8.20482 244.747 8.20482 244.234C8.4498 243.721 8.44979 243.208 8.69477 242.695C8.93975 242.182 9.18474 241.669 9.42971 241.156C9.67469 240.643 9.91968 240.13 10.1647 239.617C10.4096 239.104 10.6546 238.591 10.8996 238.078C11.1445 237.565 11.3895 237.052 11.8795 236.54C12.1245 236.027 12.6144 235.514 13.1044 235.001C13.3494 234.488 13.5943 234.231 14.0843 233.718C14.8192 232.692 15.5542 231.923 16.2891 231.153L226.97 10.5798C240.444 -3.52661 262.002 -3.52661 275.476 10.5798C288.95 24.6863 288.95 47.2566 275.476 61.3631L123.344 219.612H471.703C490.566 219.612 506 235.77 506 255.519Z"
          fill="black"/>
</svg>
