<svg width="512" height="512" viewBox="0 0 512 512" fill="none" xmlns="http://www.w3.org/2000/svg">
<path d="M495.771 281.373L285.064 501.505C278.449 508.416 269.629 512 260.808 512C251.988 512 243.168 508.416 236.553 501.505C223.077 487.427 223.077 464.902 236.553 450.824L388.702 291.868H40.3011C21.4355 291.868 6 275.742 6 256.032C6 236.322 21.4355 220.196 40.3011 220.196H388.702L236.553 61.2403C223.077 47.1621 223.077 24.6369 236.553 10.5587C250.028 -3.51956 271.589 -3.51956 285.064 10.5587L495.771 230.691C496.506 231.459 497.241 232.483 497.976 233.251C498.221 233.763 498.466 234.019 498.956 234.531C499.446 235.043 499.691 235.555 500.181 236.066C500.426 236.578 500.671 237.09 501.161 237.602C501.406 238.114 501.651 238.626 501.896 239.138C502.141 239.65 502.386 240.162 502.631 240.674C502.876 241.186 503.121 241.698 503.366 242.21C503.611 242.722 503.856 243.234 503.856 243.746C504.101 244.257 504.346 244.769 504.346 245.537C504.591 246.049 504.591 246.561 504.836 247.329C505.081 247.841 505.081 248.353 505.326 249.121C505.571 249.889 505.571 250.401 505.571 251.169C505.571 251.681 505.816 252.192 505.816 252.704C506.061 255.008 506.061 257.312 505.816 259.872C505.816 260.383 505.571 260.895 505.571 261.407C505.571 262.175 505.326 262.687 505.326 263.455C505.326 263.967 505.081 264.479 504.836 265.247C504.591 265.759 504.591 266.271 504.346 267.039C504.101 267.551 503.856 268.062 503.856 268.83C503.611 269.342 503.611 269.854 503.366 270.366C503.121 270.878 502.876 271.39 502.631 271.902C502.386 272.414 502.141 272.926 501.896 273.438C501.651 273.95 501.406 274.462 501.161 274.974C500.916 275.486 500.671 275.998 500.181 276.509C499.936 277.021 499.446 277.533 498.956 278.045C498.711 278.557 498.466 278.813 497.976 279.325C497.241 279.581 496.506 280.605 495.771 281.373Z" fill="black"/>
</svg>
