<svg width="512" height="512" viewBox="0 0 512 512" fill="none" xmlns="http://www.w3.org/2000/svg">
    <path d="M495.761 226.098L281.003 10.2287C280.253 9.47567 279.255 8.72261 278.505 7.96958C278.006 7.71857 277.756 7.46757 277.257 6.96555C276.757 6.71454 276.258 6.2125 275.759 5.96148C275.259 5.71047 274.76 5.20847 274.26 4.95746C273.761 4.70644 273.261 4.45543 272.762 4.20441C272.263 3.9534 271.763 3.70238 271.264 3.45137C270.764 3.20036 270.265 2.94938 269.765 2.69837C269.266 2.44736 268.766 2.19632 268.267 2.19632C267.768 1.94531 267.268 1.6943 266.519 1.6943C266.02 1.44329 265.52 1.4433 264.771 1.19229C264.272 0.941276 263.772 0.941284 263.023 0.690273C262.274 0.439262 261.774 0.439247 261.025 0.439247C260.526 0.439247 260.026 0.188258 259.527 0.188258C257.279 -0.0627528 255.032 -0.0627528 252.535 0.188258C252.035 0.188258 251.536 0.439247 251.036 0.439247C250.287 0.439247 249.788 0.690273 249.039 0.690273C248.539 0.690273 248.04 0.941276 247.291 1.19229C246.791 1.4433 246.292 1.44329 245.543 1.6943C245.043 1.94531 244.544 1.94531 244.044 2.19632C243.545 2.44733 243.045 2.44736 242.546 2.69837C242.047 2.94938 241.547 3.20036 241.048 3.45137C240.548 3.70238 240.049 3.9534 239.3 4.20441C238.8 4.45543 238.301 4.70644 237.801 4.95746C237.302 5.20847 236.802 5.45946 236.303 5.96148C235.804 6.2125 235.304 6.71454 234.805 6.96555C234.305 7.21656 234.056 7.46756 233.556 7.96958C232.557 8.72261 231.808 9.47567 231.059 10.2287L16.3009 226.098C2.56637 239.904 2.56637 261.993 16.3009 275.798C30.0354 289.604 52.0107 289.604 65.7452 275.798L220.82 119.921V476.858C220.82 496.186 236.553 512 255.781 512C275.009 512 290.742 496.186 290.742 476.858V119.921L445.817 275.798C452.559 282.576 461.549 286.09 470.539 286.09C479.529 286.09 488.519 282.576 495.261 275.798C509.495 261.993 509.495 239.904 495.761 226.098Z"
          fill="black"/>
</svg>
