<svg width="512" height="512" viewBox="0 0 512 512" fill="none" xmlns="http://www.w3.org/2000/svg">
<path d="M256 453C85.4309 453 5.26628 271.885 1.75543 264.278C0.596616 261.496 0 258.513 0 255.5C0 252.487 0.596616 249.504 1.75543 246.722C5.26628 239.115 85.4309 58 256 58C426.569 58 506.734 239.115 510.245 246.722C511.403 249.504 512 252.487 512 255.5C512 258.513 511.403 261.496 510.245 264.278C506.734 271.885 426.569 453 256 453ZM46.2263 255.5C63.488 289.148 133.998 409.111 256 409.111C378.002 409.111 448.512 289.148 465.774 255.5C448.512 221.852 378.002 101.889 256 101.889C133.998 101.889 63.488 221.852 46.2263 255.5Z" fill="black"/>
<path d="M256 350.591C237.194 350.591 218.81 345.014 203.174 334.566C187.537 324.117 175.349 309.265 168.153 291.889C160.956 274.513 159.073 255.393 162.742 236.947C166.411 218.501 175.467 201.557 188.765 188.258C202.063 174.959 219.005 165.903 237.45 162.233C255.895 158.564 275.013 160.447 292.388 167.645C309.763 174.842 324.613 187.03 335.061 202.668C345.509 218.306 351.086 236.691 351.086 255.499C351.009 280.695 340.966 304.838 323.151 322.654C305.335 340.471 281.195 350.514 256 350.591ZM256 204.295C245.874 204.295 235.975 207.298 227.555 212.925C219.135 218.551 212.573 226.548 208.698 235.904C204.822 245.26 203.809 255.556 205.784 265.488C207.76 275.421 212.636 284.544 219.796 291.705C226.957 298.866 236.08 303.743 246.012 305.719C255.944 307.694 266.238 306.68 275.594 302.805C284.949 298.929 292.946 292.367 298.572 283.946C304.197 275.526 307.2 265.626 307.2 255.499C307.123 241.943 301.705 228.963 292.119 219.377C282.534 209.791 269.556 204.372 256 204.295Z" fill="black"/>
</svg>
