<svg width="512" height="512" viewBox="0 0 512 512" fill="none" xmlns="http://www.w3.org/2000/svg">
<path d="M510.057 247.721C506.547 240.114 426.41 59.0001 255.9 59.0001C239.573 58.9829 223.293 60.7489 207.349 64.2667C202.098 65.893 197.648 69.4327 194.881 74.185C192.114 78.9373 191.232 84.5557 192.409 89.9279C193.586 95.3 196.736 100.034 201.237 103.193C205.737 106.352 211.258 107.705 216.708 106.985C229.599 104.29 242.731 102.917 255.9 102.889C378.152 102.889 448.345 222.851 465.601 256.499C455.081 277.062 442.748 296.645 428.75 315.017C426.236 318.256 424.679 322.134 424.256 326.213C423.834 330.292 424.562 334.408 426.358 338.094C428.155 341.78 430.948 344.888 434.421 347.067C437.893 349.246 441.907 350.407 446.006 350.42C449.337 350.41 452.622 349.64 455.612 348.17C458.602 346.7 461.218 344.568 463.261 341.935C481.683 318.532 497.382 293.108 510.057 266.154C511.338 263.251 512 260.112 512 256.938C512 253.764 511.338 250.625 510.057 247.721Z" fill="black"/>
<path d="M95.9185 65.4365C91.7602 61.5602 86.2604 59.45 80.5777 59.5503C74.8949 59.6506 69.473 61.9536 65.454 65.9742C61.4351 69.9948 59.133 75.419 59.0327 81.104C58.9325 86.7891 61.0419 92.2912 64.9165 96.4511L91.8238 123.369C53.7232 158.434 23.085 200.827 1.74282 248.013C0.592555 250.745 0 253.68 0 256.644C0 259.609 0.592555 262.544 1.74282 265.276C5.25247 272.883 85.3895 453.997 255.9 453.997C301.506 454.222 346.166 440.992 384.295 415.96L415.882 447.56C419.994 451.669 425.57 453.977 431.383 453.977C437.195 453.977 442.771 451.669 446.884 447.56C450.991 443.445 453.299 437.868 453.299 432.052C453.299 426.237 450.991 420.66 446.884 416.545L95.9185 65.4365ZM207.935 240.991L272.571 305.946C263.512 308.95 253.81 309.448 244.491 307.388C235.172 305.328 226.583 300.786 219.634 294.242C212.556 287.262 207.676 278.36 205.597 268.637C203.518 258.914 204.331 248.794 207.935 239.528V240.991ZM255.9 410.108C133.355 410.108 63.4542 289.853 46.1984 256.498C65.2874 218.061 91.2593 183.451 122.826 154.384L175.178 206.758C163.942 224.925 159.17 246.356 161.634 267.577C164.098 288.798 173.656 308.564 188.756 323.67C203.856 338.776 223.613 348.337 244.826 350.803C266.038 353.268 287.46 348.494 305.62 337.253L352.708 384.36C323.32 401.447 289.89 410.338 255.9 410.108Z" fill="black"/>
</svg>
