<svg width="512" height="512" viewBox="0 0 512 512" fill="none" xmlns="http://www.w3.org/2000/svg">
<path d="M438.156 77.754C390.806 30.62 326.705 4.15729 259.883 4.15729C193.06 4.15729 128.959 30.62 81.6085 77.754L45.1708 114.179V26.5778C45.1708 20.5898 42.7913 14.847 38.5557 10.6129C34.3201 6.37872 28.5754 4 22.5854 4C16.5954 4 10.8507 6.37872 6.6151 10.6129C2.37952 14.847 8.58778e-08 20.5898 8.58778e-08 26.5778V169.269C-0.000520891 175.285 2.36935 181.059 6.59649 185.341C10.8236 189.623 16.5678 192.069 22.5854 192.148H165.626C171.616 192.148 177.361 189.769 181.596 185.535C185.832 181.301 188.212 175.558 188.212 169.57C188.212 163.582 185.832 157.839 181.596 153.605C177.361 149.371 171.616 146.992 165.626 146.992H75.2846L113.529 109.664C152.372 70.9127 205.006 49.149 259.883 49.149C314.759 49.149 367.393 70.9127 406.236 109.664C592.641 311.057 315.894 588.613 113.529 402.272C109.294 398.043 103.554 395.669 97.5689 395.669C91.5837 395.669 85.8433 398.043 81.6085 402.272C79.4778 404.347 77.7843 406.828 76.628 409.568C75.4717 412.309 74.876 415.252 74.876 418.226C74.876 421.2 75.4717 424.144 76.628 426.885C77.7843 429.625 79.4778 432.106 81.6085 434.181C128.89 481.447 193.017 508 259.883 508C326.748 508 390.875 481.447 438.156 434.181C485.438 386.916 512 322.811 512 255.968C512 189.125 485.438 125.019 438.156 77.754Z" fill="black"/>
<path d="M255.968 128.023C250.002 128.101 244.303 130.505 240.084 134.723C235.865 138.94 233.461 144.637 233.383 150.601V255.964C233.388 261.95 235.771 267.689 240.008 271.919L316.196 346.275C318.281 348.386 320.767 350.059 323.508 351.196C326.248 352.333 329.189 352.912 332.156 352.898C336.122 352.32 339.863 350.699 342.995 348.199C346.126 345.699 348.536 342.411 349.977 338.672C351.418 334.934 351.837 330.879 351.193 326.925C350.548 322.971 348.863 319.259 346.31 316.171L277.65 247.535V150.601C277.582 144.788 275.302 139.22 271.275 135.026C267.248 130.833 261.775 128.329 255.968 128.023Z" fill="black"/>
</svg>
