<svg width="512" height="512" viewBox="0 0 512 512" fill="none" xmlns="http://www.w3.org/2000/svg">
<g clip-path="url(#clip0_3316_17705)">
<path d="M487.62 280.137H130.038C123.572 280.137 117.37 277.566 112.798 272.991C108.226 268.416 105.657 262.211 105.657 255.74C105.657 249.27 108.226 243.065 112.798 238.489C117.37 233.914 123.572 231.344 130.038 231.344H487.62C494.086 231.344 500.287 233.914 504.86 238.489C509.432 243.065 512 249.27 512 255.74C512 262.211 509.432 268.416 504.86 272.991C500.287 277.566 494.086 280.137 487.62 280.137Z" fill="black"/>
<path d="M487.62 133.754H130.038C123.572 133.754 117.37 131.184 112.798 126.608C108.226 122.033 105.657 115.828 105.657 109.357C105.657 102.887 108.226 96.6817 112.798 92.1065C117.37 87.5313 123.572 84.9609 130.038 84.9609H487.62C494.086 84.9609 500.287 87.5313 504.86 92.1065C509.432 96.6817 512 102.887 512 109.357C512 115.828 509.432 122.033 504.86 126.608C500.287 131.184 494.086 133.754 487.62 133.754Z" fill="black"/>
<path d="M487.62 426.512H130.038C123.572 426.512 117.37 423.941 112.798 419.366C108.226 414.791 105.657 408.586 105.657 402.115C105.657 395.645 108.226 389.44 112.798 384.864C117.37 380.289 123.572 377.719 130.038 377.719H487.62C494.086 377.719 500.287 380.289 504.86 384.864C509.432 389.44 512 395.645 512 402.115C512 408.586 509.432 414.791 504.86 419.366C500.287 423.941 494.086 426.512 487.62 426.512Z" fill="black"/>
<path d="M32.5153 141.895C28.2889 141.947 24.093 141.173 20.1625 139.618C16.278 137.732 12.6689 135.324 9.43503 132.462C6.42219 129.422 4.03858 125.818 2.42086 121.854C0.803135 117.891 -0.0168671 113.647 0.00786756 109.366C0.127608 100.754 3.49482 92.5047 9.43503 86.2711C12.4865 83.2589 16.1432 80.9304 20.1625 79.4401C28.0768 76.1866 36.9538 76.1866 44.8682 79.4401C48.8585 80.9883 52.504 83.3097 55.5956 86.2711C61.5358 92.5047 64.903 100.754 65.0228 109.366C65.0475 113.647 64.2275 117.891 62.6098 121.854C60.9921 125.818 58.6084 129.422 55.5956 132.462C52.3617 135.324 48.7526 137.732 44.8682 139.618C40.9376 141.173 36.7417 141.947 32.5153 141.895Z" fill="black"/>
<path d="M32.5153 288.262C28.2673 288.211 24.0706 287.326 20.1625 285.66C16.2231 284.012 12.5948 281.702 9.43503 278.829C6.42219 275.789 4.03858 272.184 2.42086 268.221C0.803135 264.258 -0.0168671 260.014 0.00786756 255.733C0.127608 247.121 3.49482 238.872 9.43503 232.638C12.5948 229.765 16.2231 227.454 20.1625 225.807C26.0471 223.077 32.6133 222.17 39.0168 223.205L44.8682 225.156L50.7195 228.084C52.4225 229.285 54.0509 230.589 55.5956 231.987C61.6898 238.384 65.0689 246.896 65.0228 255.733C65.0228 264.36 61.5979 272.634 55.5016 278.735C49.4052 284.835 41.1368 288.262 32.5153 288.262Z" fill="black"/>
<path d="M32.515 434.639C28.2886 434.691 24.0927 433.917 20.1622 432.362C16.2777 430.476 12.6686 428.068 9.43472 425.206C6.56331 422.044 4.2544 418.413 2.60816 414.471C0.888345 410.577 0 406.367 0 402.11C0 397.853 0.888345 393.643 2.60816 389.749C4.2544 385.807 6.56331 382.177 9.43472 379.015C14.006 374.501 19.811 371.444 26.1171 370.228C32.4232 369.012 38.9479 369.693 44.8679 372.184C48.8582 373.732 52.5037 376.054 55.5953 379.015C58.4667 382.177 60.7756 385.807 62.4219 389.749C64.1417 393.643 65.03 397.853 65.03 402.11C65.03 406.367 64.1417 410.577 62.4219 414.471C60.7756 418.413 58.4667 422.044 55.5953 425.206C52.5578 428.22 48.9555 430.606 44.9948 432.224C41.0342 433.843 36.7932 434.664 32.515 434.639Z" fill="black"/>
</g>
</svg>
