<svg width="512" height="512" viewBox="0 0 512 512" fill="none" xmlns="http://www.w3.org/2000/svg">
<path d="M373.029 0C336.171 0 300.823 14.6416 274.761 40.7038C248.699 66.766 234.057 102.114 234.057 138.971V204.8H80.4571C59.1186 204.8 38.654 213.277 23.5653 228.365C8.47671 243.454 0 263.919 0 285.257V431.543C0 452.881 8.47671 473.346 23.5653 488.435C38.654 503.523 59.1186 512 80.4571 512H285.257C306.596 512 327.06 503.523 342.149 488.435C357.238 473.346 365.714 452.881 365.714 431.543V285.257C365.714 263.919 357.238 243.454 342.149 228.365C327.06 213.277 306.596 204.8 285.257 204.8H277.943V138.971C277.943 113.753 287.961 89.5677 305.793 71.7357C323.625 53.9036 347.81 43.8857 373.029 43.8857C398.247 43.8857 422.432 53.9036 440.264 71.7357C458.096 89.5677 468.114 113.753 468.114 138.971C468.114 144.791 470.426 150.372 474.541 154.487C478.656 158.602 484.238 160.914 490.057 160.914C495.877 160.914 501.458 158.602 505.573 154.487C509.688 150.372 512 144.791 512 138.971C512 102.114 497.358 66.766 471.296 40.7038C445.234 14.6416 409.886 0 373.029 0ZM321.829 285.257V431.543C321.829 441.242 317.976 450.544 311.117 457.403C304.259 464.261 294.956 468.114 285.257 468.114H80.4571C70.7578 468.114 61.4557 464.261 54.5972 457.403C47.7388 450.544 43.8857 441.242 43.8857 431.543V285.257C43.8857 275.558 47.7388 266.256 54.5972 259.397C61.4557 252.539 70.7578 248.686 80.4571 248.686H285.257C294.956 248.686 304.259 252.539 311.117 259.397C317.976 266.256 321.829 275.558 321.829 285.257Z" fill="black"/>
</svg>
