<svg width="512" height="512" viewBox="0 0 512 512" fill="none" xmlns="http://www.w3.org/2000/svg">
<path d="M35.6277 509.734C31.2405 509.755 26.8933 508.899 22.8413 507.217C18.7892 505.535 15.1139 503.061 12.0311 499.94C5.77793 493.679 2.26562 485.192 2.26562 476.343C2.26562 467.495 5.77793 459.008 12.0311 452.747L452.798 11.987C455.855 8.70634 459.542 6.07504 463.638 4.25003C467.734 2.42501 472.155 1.44368 476.639 1.36457C481.122 1.28547 485.576 2.11022 489.733 3.7896C493.891 5.46899 497.668 7.96861 500.839 11.1394C504.01 14.3101 506.509 18.087 508.189 22.2448C509.868 26.4025 510.693 30.8559 510.614 35.3394C510.535 39.8228 509.554 44.2443 507.728 48.3402C505.903 52.4362 503.272 56.1225 499.991 59.1795L59.2243 499.94C56.1414 503.061 52.4661 505.535 48.4141 507.217C44.3621 508.899 40.0149 509.755 35.6277 509.734Z" fill="black"/>
<path d="M100.174 200.346C80.3618 200.346 60.9941 194.471 44.5205 183.463C28.0469 172.456 15.2073 156.811 7.62536 138.507C0.0434035 120.203 -1.94038 100.062 1.92487 80.6301C5.79012 61.1984 15.3308 43.3494 29.3404 29.34C43.3501 15.3306 61.1994 5.79002 80.6313 1.92484C100.063 -1.94035 120.205 0.0434028 138.509 7.62524C156.814 15.2071 172.459 28.0465 183.466 44.5198C194.474 60.9931 200.349 80.3605 200.349 100.173C200.349 126.74 189.795 152.22 171.008 171.006C152.222 189.792 126.742 200.346 100.174 200.346ZM100.174 66.7819C93.5702 66.7819 87.1143 68.7402 81.6231 72.4093C76.1319 76.0783 71.852 81.2933 69.3247 87.3947C66.7974 93.4961 66.1361 100.21 67.4245 106.687C68.713 113.164 71.8932 119.114 76.5631 123.784C81.2329 128.454 87.1827 131.634 93.66 132.922C100.137 134.211 106.851 133.549 112.953 131.022C119.054 128.495 124.269 124.215 127.938 118.724C131.607 113.233 133.566 106.777 133.566 100.173C133.451 91.3528 129.895 82.9265 123.658 76.6894C117.421 70.4522 108.994 66.8972 100.174 66.7819Z" fill="black"/>
<path d="M411.826 512.002C392.013 512.002 372.645 506.127 356.172 495.12C339.698 484.112 326.859 468.468 319.277 450.164C311.695 431.859 309.711 411.718 313.576 392.286C317.441 372.855 326.982 355.006 340.992 340.996C355.001 326.987 372.851 317.446 392.283 313.581C411.715 309.716 431.856 311.7 450.161 319.282C468.465 326.863 484.11 339.703 495.118 356.176C506.125 372.649 512 392.017 512 411.829C512 438.397 501.446 463.876 482.66 482.662C463.873 501.448 438.394 512.002 411.826 512.002ZM411.826 378.438C405.222 378.438 398.766 380.396 393.274 384.066C387.783 387.735 383.503 392.95 380.976 399.051C378.449 405.152 377.787 411.866 379.076 418.343C380.364 424.82 383.545 430.77 388.214 435.44C392.884 440.11 398.834 443.29 405.311 444.578C411.789 445.867 418.503 445.205 424.604 442.678C430.706 440.151 435.921 435.871 439.59 430.38C443.259 424.889 445.217 418.433 445.217 411.829C445.102 403.009 441.547 394.583 435.31 388.346C429.072 382.108 420.646 378.553 411.826 378.438Z" fill="black"/>
</svg>
