<svg width="512" height="512" viewBox="0 0 512 512" fill="none" xmlns="http://www.w3.org/2000/svg">
<g clip-path="url(#clip0_3323_17770)">
<path d="M255.833 512.001C199.652 512.001 145.771 489.677 106.045 449.941C66.3181 410.204 44 356.31 44 300.114C44 243.918 66.3181 190.023 106.045 150.287C145.771 110.55 199.652 88.2266 255.833 88.2266H328.879C334.691 88.2266 340.265 90.5359 344.375 94.6466C348.484 98.7573 350.793 104.333 350.793 110.146C350.793 115.959 348.484 121.535 344.375 125.645C340.265 129.756 334.691 132.065 328.879 132.065H255.833C222.605 132.065 190.123 141.921 162.494 160.387C134.866 178.852 113.332 205.098 100.616 235.804C87.9003 266.511 84.5732 300.3 91.0558 332.898C97.5383 365.497 113.539 395.44 137.035 418.942C160.531 442.444 190.467 458.449 223.057 464.933C255.647 471.417 289.427 468.09 320.126 455.37C350.826 442.651 377.064 421.112 395.525 393.477C413.986 365.841 423.839 333.351 423.839 300.114C423.839 294.3 426.148 288.725 430.258 284.614C434.367 280.504 439.941 278.194 445.753 278.194C451.565 278.194 457.139 280.504 461.248 284.614C465.358 288.725 467.667 294.3 467.667 300.114C467.59 356.286 445.247 410.135 405.537 449.855C365.827 489.575 311.991 511.924 255.833 512.001Z" fill="black"/>
<path d="M255.833 219.74C252.954 219.754 250.101 219.192 247.442 218.088C244.783 216.984 242.371 215.36 240.348 213.311C236.244 209.201 233.939 203.63 233.939 197.821C233.939 192.012 236.244 186.441 240.348 182.331L312.517 110.144L240.348 37.9558C238.195 35.9491 236.468 33.5292 235.27 30.8404C234.072 28.1517 233.428 25.2492 233.376 22.3061C233.325 19.3629 233.866 16.4395 234.968 13.7102C236.07 10.9808 237.711 8.50146 239.791 6.42004C241.872 4.33861 244.351 2.69774 247.08 1.59531C249.808 0.492881 252.731 -0.0485167 255.673 0.00341127C258.616 0.0553393 261.518 0.699535 264.206 1.89756C266.894 3.09558 269.313 4.82289 271.319 6.97645L358.974 94.6539C363.078 98.7638 365.383 104.335 365.383 110.144C365.383 115.952 363.078 121.523 358.974 125.633L271.319 213.311C269.296 215.36 266.884 216.984 264.225 218.088C261.566 219.192 258.713 219.754 255.833 219.74Z" fill="black"/>
</g>
</svg>
