<svg width="512" height="512" viewBox="0 0 512 512" fill="none" xmlns="http://www.w3.org/2000/svg">
<g clip-path="url(#clip0_3322_17761)">
<path d="M220.189 440.365C176.64 440.365 134.068 427.452 97.8586 403.258C61.6487 379.064 33.4266 344.676 16.761 304.443C0.0954029 264.21 -4.26507 219.938 4.23097 177.227C12.727 134.516 33.698 95.2832 64.4919 64.4901C95.2859 33.697 134.52 12.7266 177.232 4.23085C219.945 -4.26495 264.217 0.0954001 304.452 16.7605C344.686 33.4256 379.075 61.6469 403.269 97.8558C427.464 134.065 440.378 176.635 440.378 220.183C440.378 249.097 434.683 277.729 423.617 304.443C412.551 331.157 396.332 355.429 375.886 375.875C355.44 396.321 331.166 412.54 304.452 423.605C277.737 434.67 249.105 440.365 220.189 440.365ZM220.189 44.1536C185.488 44.1536 151.567 54.4432 122.715 73.7213C93.8621 92.9993 71.3743 120.4 58.095 152.458C44.8156 184.516 41.3411 219.792 48.1109 253.825C54.8806 287.858 71.5906 319.119 96.1276 343.656C120.665 368.192 151.927 384.901 185.961 391.671C219.994 398.441 255.271 394.966 287.331 381.687C319.39 368.408 346.791 345.921 366.07 317.069C385.348 288.218 395.638 254.297 395.638 219.598C395.638 173.067 377.154 128.442 344.25 95.54C311.347 62.6378 266.721 44.1536 220.189 44.1536Z" fill="black"/>
<path d="M490.088 512C487.207 512.014 484.352 511.452 481.69 510.347C479.029 509.242 476.615 507.617 474.59 505.567L353.823 384.803C349.949 380.646 347.84 375.147 347.94 369.466C348.04 363.784 350.342 358.363 354.36 354.345C358.378 350.327 363.799 348.026 369.481 347.925C375.162 347.825 380.661 349.934 384.819 353.808L505.586 474.572C509.693 478.684 512 484.258 512 490.07C512 495.881 509.693 501.455 505.586 505.567C503.561 507.617 501.148 509.242 498.486 510.347C495.825 511.452 492.97 512.014 490.088 512Z" fill="black"/>
</g>
</svg>
