<svg width="512" height="512" viewBox="0 0 512 512" fill="none" xmlns="http://www.w3.org/2000/svg">
    <path d="M250.752 320.062C243.713 313.016 232.451 313.016 225.411 320.062L145.934 399.628V68.9375C145.934 59.0719 137.871 51 128.016 51C118.161 51 110.098 59.0719 110.098 68.9375V399.628L30.6201 320.062C23.581 313.016 12.3184 313.016 5.27933 320.062C-1.75978 327.109 -1.75978 338.384 5.27933 345.431L115.345 455.619C115.729 456.003 116.241 456.388 116.625 456.772C116.881 456.9 117.009 457.028 117.265 457.284C117.521 457.541 117.777 457.669 118.033 457.925C118.289 458.053 118.545 458.181 118.801 458.438C119.057 458.566 119.313 458.694 119.569 458.822C119.825 458.95 120.081 459.078 120.337 459.206C120.593 459.334 120.849 459.462 121.105 459.591C121.361 459.719 121.617 459.847 121.873 459.847C122.129 459.975 122.384 460.103 122.768 460.103C123.024 460.231 123.28 460.231 123.536 460.359C123.792 460.488 124.176 460.488 124.432 460.616C124.688 460.616 125.072 460.744 125.328 460.744C125.584 460.744 125.84 460.872 126.096 460.872C126.736 460.872 127.248 461 127.888 461C128.528 461 129.04 461 129.68 460.872C129.936 460.872 130.192 460.744 130.447 460.744C130.703 460.744 131.087 460.616 131.343 460.616C131.599 460.616 131.983 460.488 132.239 460.359C132.495 460.231 132.751 460.231 133.007 460.103C133.263 459.975 133.647 459.847 133.903 459.847C134.159 459.719 134.415 459.719 134.671 459.591C134.927 459.462 135.183 459.334 135.439 459.206C135.695 459.078 135.951 458.95 136.207 458.822C136.463 458.694 136.719 458.566 136.975 458.438C137.231 458.309 137.487 458.181 137.743 457.925C137.999 457.797 138.254 457.541 138.51 457.284C138.766 457.156 138.894 457.028 139.15 456.9C139.662 456.516 140.046 456.131 140.43 455.747L250.496 345.559C257.791 338.384 257.791 327.109 250.752 320.062Z"
          fill="black"/>
    <path d="M506.752 191.938C499.713 198.984 488.451 198.984 481.411 191.938L401.934 112.372V443.062C401.934 452.928 393.871 461 384.016 461C374.161 461 366.098 452.928 366.098 443.062V112.372L286.62 191.938C279.581 198.984 268.318 198.984 261.279 191.938C254.24 184.891 254.24 173.616 261.279 166.569L371.345 56.3812C371.729 55.9969 372.241 55.6125 372.625 55.2281C372.881 55.1 373.009 54.9719 373.265 54.7156C373.521 54.4594 373.777 54.3313 374.033 54.075C374.289 53.9469 374.545 53.8188 374.801 53.5625C375.057 53.4344 375.313 53.3062 375.569 53.1781C375.825 53.05 376.081 52.9219 376.337 52.7938C376.593 52.6656 376.849 52.5375 377.105 52.4094C377.361 52.2812 377.617 52.1531 377.873 52.1531C378.129 52.025 378.384 51.8969 378.768 51.8969C379.024 51.7687 379.28 51.7688 379.536 51.6406C379.792 51.5125 380.176 51.5125 380.432 51.3844C380.688 51.3844 381.072 51.2562 381.328 51.2562C381.584 51.2562 381.84 51.1281 382.096 51.1281C382.736 51.1281 383.248 51 383.888 51C384.528 51 385.04 51 385.68 51.1281C385.936 51.1281 386.192 51.2562 386.447 51.2562C386.703 51.2562 387.087 51.3844 387.343 51.3844C387.599 51.3844 387.983 51.5125 388.239 51.6406C388.495 51.7688 388.751 51.7687 389.007 51.8969C389.263 52.025 389.647 52.1531 389.903 52.1531C390.159 52.2813 390.415 52.2812 390.671 52.4094C390.927 52.5375 391.183 52.6656 391.439 52.7938C391.695 52.9219 391.951 53.05 392.207 53.1781C392.463 53.3062 392.719 53.4344 392.975 53.5625C393.231 53.6906 393.487 53.8188 393.743 54.075C393.999 54.2031 394.255 54.4594 394.51 54.7156C394.766 54.8438 394.894 54.9719 395.15 55.1C395.662 55.4844 396.046 55.8687 396.43 56.2531L506.496 166.441C513.791 173.616 513.791 184.891 506.752 191.938Z"
          fill="black"/>
</svg>
