<svg width="512" height="512" viewBox="0 0 512 512" fill="none" xmlns="http://www.w3.org/2000/svg">
<path d="M266.391 512C247.776 512 229.16 504.942 215.038 490.827L7.06096 283.268C2.56762 278.777 0 272.682 0 266.266V24.0602C0 10.9073 10.9124 0 24.0715 0H266.07C272.489 0 278.587 2.56641 283.08 7.05764L491.058 214.937C518.981 243.168 518.981 289.043 491.058 317.273L317.422 490.827C303.3 504.942 284.685 512 266.07 512H266.391ZM48.1429 256.321L249.059 456.822C258.688 466.125 274.094 466.125 283.401 456.822L457.037 283.268C466.344 273.965 466.344 258.566 457.037 248.942L256.12 48.1203H48.1429V256V256.321ZM143.787 183.82C121.641 183.82 103.668 165.855 103.668 143.719C103.668 121.584 121.641 103.619 143.787 103.619C165.933 103.619 183.906 121.584 183.906 143.719C183.906 165.855 165.933 183.82 143.787 183.82Z" fill="black"/>
</svg>
