<svg width="512" height="512" viewBox="0 0 512 512" fill="none" xmlns="http://www.w3.org/2000/svg">
<path d="M256 265.086C239 265.086 223 261.523 208 254.397C192.667 247.627 179.417 238.185 168.25 226.071C157.083 213.957 148.333 199.883 142 183.85C135.333 167.816 132 150.714 132 132.543C132 114.015 135.333 96.7349 142 80.7015C148.333 64.668 157.083 50.6834 168.25 38.7474C179.417 26.8114 192.667 17.4586 208 10.6889C223 3.56297 239 -1.13249e-05 256 -1.13249e-05C273 -1.13249e-05 289 3.56297 304 10.6889C319.333 17.4586 332.583 26.8114 343.75 38.7474C354.917 50.6834 363.667 64.668 370 80.7015C376.667 96.7349 380 114.015 380 132.543C380 150.714 376.667 167.816 370 183.85C363.667 199.883 354.917 213.957 343.75 226.071C332.583 238.185 319.333 247.627 304 254.397C289 261.523 273 265.086 256 265.086ZM256 52.9102C235.333 52.9102 217.75 60.6597 203.25 76.1587C188.75 91.6576 181.5 110.452 181.5 132.543C181.5 154.277 188.75 172.894 203.25 188.392C217.75 203.891 235.333 211.641 256 211.641C276.667 211.641 294.25 203.891 308.75 188.392C323.25 172.894 330.5 154.277 330.5 132.543C330.5 110.452 323.25 91.6576 308.75 76.1587C294.25 60.6597 276.667 52.9102 256 52.9102ZM487 512C480.333 512 474.583 509.417 469.75 504.251C464.917 499.084 462.5 492.76 462.5 485.278C462.5 468.175 459.833 452.498 454.5 438.246C448.833 424.351 438.5 412.415 423.5 402.438C408.5 392.462 387.5 384.624 360.5 378.923C333.833 373.578 299 370.906 256 370.906C213 370.906 178.167 373.578 151.5 378.923C124.5 384.624 103.5 392.462 88.5 402.438C73.5 412.415 63.1667 424.351 57.5 438.246C52.1667 452.498 49.5 468.175 49.5 485.278C49.5 492.76 47.0833 499.084 42.25 504.251C37.4167 509.417 31.6667 512 25 512C18 512 12.0833 509.417 7.25 504.251C2.41667 499.084 0 492.76 0 485.278C0 443.591 9.66667 411.346 29 388.543C48.6667 365.74 72.0833 349.083 99.25 338.572C126.417 328.061 154.5 322.093 183.5 320.668C212.833 318.887 237 317.996 256 317.996C275 317.996 299.167 318.887 328.5 320.668C357.5 322.093 385.583 328.061 412.75 338.572C439.917 349.083 463.333 365.74 483 388.543C502.333 411.346 512 443.591 512 485.278C512 492.76 509.583 499.084 504.75 504.251C499.917 509.417 494 512 487 512Z" fill="black"/>
</svg>
