<svg width="512" height="512" viewBox="0 0 512 512" fill="none" xmlns="http://www.w3.org/2000/svg">
<path d="M460.298 117H453.271V51.5C452.936 37.1667 447.833 25.0833 437.961 15.25C428.089 5.41667 415.958 0.333333 401.569 0C401.234 0 400.732 0 400.063 0C399.393 0 398.724 0 398.055 0C397.386 0 396.8 0 396.298 0C395.796 0 395.21 0 394.541 0L45.1765 117H37.6471L32.6275 119H28.6118L23.5922 121.5L20.0784 126.5L16.0627 130L13.051 133L9.53726 137.5C8.86797 137.833 8.36601 138.25 8.03137 138.75C7.69673 139.25 7.36209 139.667 7.02745 140C6.35817 141 5.85621 141.917 5.52157 142.75C5.18693 143.583 4.68497 144.333 4.01569 145V145.5L2.5098 148.5C1.84052 149.5 1.33856 150.5 1.00392 151.5C0.669281 152.5 0.501961 153.667 0.501961 155H0C0.334641 155.333 0.501961 155.667 0.501961 156C0.501961 156.333 0.501961 156.5 0.501961 156.5C0.501961 156.833 0.501961 157.167 0.501961 157.5C0.501961 157.833 0.334641 158.167 0 158.5C0 159.167 0 159.917 0 160.75C0 161.583 0 162.5 0 163.5C0 164.167 0 164.917 0 165.75C0 166.583 0 167.5 0 168.5V460.5C0.334641 474.5 5.27059 486.417 14.8078 496.25C24.3451 506.083 35.8065 511.333 49.1922 512H49.6941H460.298C474.688 511.667 486.818 506.583 496.69 496.75C506.562 486.917 511.665 474.833 512 460.5V168.5C511.665 154.167 506.562 142 496.69 132C486.818 122 474.688 117 460.298 117ZM404.078 44.5C405.417 44.8333 406.588 45.6667 407.592 47C408.596 48.3333 409.098 49.8333 409.098 51.5V117H185.224L404.078 44.5ZM467.827 460.5C467.827 462.5 467.075 464.25 465.569 465.75C464.063 467.25 462.306 468 460.298 468H49.6941C47.6863 468 45.9294 467.25 44.4235 465.75C42.9176 464.25 42.1647 462.5 42.1647 460.5V168.5C42.1647 166.5 42.9176 164.75 44.4235 163.25C45.9294 161.75 47.6863 161 49.6941 161H460.298C462.306 161 464.063 161.75 465.569 163.25C467.075 164.75 467.827 166.5 467.827 168.5V460.5ZM423.655 314.5C423.655 324.5 420.058 333.083 412.863 340.25C405.668 347.417 397.051 351 387.012 351C376.973 351 368.356 347.417 361.161 340.25C353.966 333.083 350.369 324.5 350.369 314.5C350.369 304.5 353.966 295.917 361.161 288.75C368.356 281.583 376.973 278 387.012 278C397.051 278 405.668 281.583 412.863 288.75C420.058 295.917 423.655 304.5 423.655 314.5Z" fill="black"/>
</svg>
