<svg width="512" height="512" viewBox="0 0 512 512" fill="none" xmlns="http://www.w3.org/2000/svg">
<path d="M256 0C114.6 0 0 114.6 0 256C0 397.4 114.6 512 256 512C397.4 512 512 397.4 512 256C512 114.6 397.4 0 256 0ZM417.2 417.2C396.2 438.2 371.9 454.6 344.7 466.1C316.7 478 286.8 484 256 484C225.2 484 195.4 478 167.3 466.1C140.2 454.6 115.8 438.2 94.8 417.2C73.8 396.2 57.4 371.9 45.9 344.7C34 316.6 28 286.8 28 256C28 225.2 34 195.3 45.9 167.3C57.4 140.1 73.8 115.8 94.8 94.8C115.7 73.8 140.1 57.4 167.3 45.9C195.4 34 225.2 28 256 28C286.8 28 316.7 34 344.7 45.9C371.9 57.4 396.2 73.8 417.2 94.8C438.2 115.8 454.6 140.1 466.1 167.3C478 195.4 484 225.3 484 256C484 286.7 478 316.6 466.1 344.7C454.6 371.9 438.2 396.3 417.2 417.2Z" fill="black"/>
<path d="M180 160C168.954 160 160 168.954 160 180V332C160 343.046 168.954 352 180 352H332C343.046 352 352 343.046 352 332V180C352 168.954 343.046 160 332 160H180Z" fill="black"/>
</svg>
