<svg width="512" height="512" viewBox="0 0 512 512" fill="none" xmlns="http://www.w3.org/2000/svg">
    <path d="M256 503C247.208 503 238.771 498.961 232.538 491.736L28.7227 255.471C15.7591 240.443 15.7591 216.102 28.7227 201.075C41.6863 186.047 62.6839 186.047 75.6475 201.075L256 410.142L436.352 201.075C449.316 186.047 470.314 186.047 483.277 201.075C496.241 216.102 496.241 240.443 483.277 255.471L279.462 491.736C273.229 498.961 264.792 503 256 503ZM279.462 293.932L483.277 57.6667C496.241 42.6391 496.241 18.2983 483.277 3.2707C470.314 -11.7569 449.316 -11.7569 436.352 3.2707L256 212.338L75.6475 3.2707C62.6839 -11.7569 41.6863 -11.7569 28.7227 3.2707C15.7591 18.2983 15.7591 42.6391 28.7227 57.6667L232.538 293.932C238.771 301.158 247.208 305.196 256 305.196C264.792 305.196 273.229 301.158 279.462 293.932Z"
          fill="black"/>
</svg>