<svg width="512" height="512" viewBox="0 0 512 512" fill="none" xmlns="http://www.w3.org/2000/svg">
<path d="M431.543 512.619H343.771C337.952 512.619 332.371 510.304 328.256 506.183C324.14 502.062 321.829 496.473 321.829 490.645C321.829 484.817 324.14 479.227 328.256 475.106C332.371 470.985 337.952 468.67 343.771 468.67H431.543C440.23 469.427 448.875 466.805 455.684 461.35C462.493 455.895 466.944 448.024 468.114 439.371V74.0076C466.944 65.3539 462.493 57.4833 455.684 52.0281C448.875 46.5729 440.23 43.9517 431.543 44.7082H343.771C337.952 44.7082 332.371 42.393 328.256 38.272C324.14 34.1509 321.829 28.5616 321.829 22.7336C321.829 16.9056 324.14 11.3163 328.256 7.19529C332.371 3.07427 337.952 0.759094 343.771 0.759094H431.543C441.688 0.326929 451.819 1.90238 461.356 5.39528C470.892 8.88819 479.647 14.23 487.12 21.115C494.593 28.0001 500.637 36.2932 504.906 45.52C509.176 54.7467 511.586 64.7259 512 74.8865V438.492C511.586 448.652 509.176 458.632 504.906 467.858C500.637 477.085 494.593 485.378 487.12 492.263C479.647 499.148 470.892 504.49 461.356 507.983C451.819 511.476 441.688 513.051 431.543 512.619Z" fill="black"/>
<path d="M226.743 395.422C223.86 395.435 221.003 394.872 218.34 393.765C215.677 392.658 213.262 391.03 211.236 388.976C207.127 384.856 204.819 379.271 204.819 373.447C204.819 367.624 207.127 362.039 211.236 357.919L312.759 256.25L211.236 154.581C207.36 150.415 205.25 144.906 205.351 139.213C205.451 133.52 207.754 128.088 211.774 124.062C215.794 120.036 221.218 117.73 226.903 117.629C232.588 117.529 238.089 119.642 242.249 123.523L359.277 240.721C363.387 244.841 365.695 250.426 365.695 256.25C365.695 262.073 363.387 267.658 359.277 271.778L242.249 388.976C240.223 391.03 237.808 392.658 235.145 393.765C232.482 394.872 229.626 395.435 226.743 395.422Z" fill="black"/>
<path d="M343.771 278.224H21.9429C16.1232 278.224 10.542 275.909 6.42691 271.788C2.31183 267.667 0 262.078 0 256.25C0 250.422 2.31183 244.833 6.42691 240.711C10.542 236.59 16.1232 234.275 21.9429 234.275H343.771C349.591 234.275 355.172 236.59 359.287 240.711C363.402 244.833 365.714 250.422 365.714 256.25C365.714 262.078 363.402 267.667 359.287 271.788C355.172 275.909 349.591 278.224 343.771 278.224Z" fill="black"/>
</svg>
