<svg width="512" height="512" viewBox="0 0 512 512" fill="none" xmlns="http://www.w3.org/2000/svg">
<g clip-path="url(#clip0_3484_8370)">
<path d="M457.286 111.42C455.867 109.896 453.849 109.071 451.768 109.163C450.21 109.235 448.743 109.817 447.566 110.795L446.49 111.906L429.927 133.225C427.821 135.939 427.949 139.764 430.238 142.322C443.605 157.204 454.251 174.897 461.488 194.404C468.726 213.91 472.412 234.841 472.357 255.965V256.138C472.712 275.464 469.578 294.659 463.156 312.595C456.73 330.532 447.167 346.839 435.029 360.545C422.891 374.253 408.416 385.078 392.529 392.455C376.65 399.827 359.626 403.62 342.46 403.598H169.401L200.305 369.331C202.744 366.628 202.771 362.524 200.339 359.816L182.388 339.886C181.041 338.397 179.119 337.561 177.11 337.56C175.598 337.56 174.147 338.041 172.943 338.914L171.832 339.886L99.5047 420.022C97.0687 422.728 97.0636 426.832 99.5047 429.538L171.832 509.637C173.18 511.133 175.098 511.999 177.11 511.999C179.122 511.999 181.04 511.133 182.388 509.637L200.339 489.742C202.777 487.036 202.781 482.932 200.339 480.23L169.401 445.959L342.46 445.926C365.048 445.999 387.42 441.113 408.226 431.517C429.028 421.917 447.825 407.815 463.573 390.129C479.317 372.439 491.7 351.501 499.998 328.532C508.292 305.559 512.359 280.983 511.975 256.277C512.18 229.372 507.455 202.673 498.085 177.807C488.701 152.897 474.841 130.307 457.286 111.42Z" fill="black"/>
<path d="M340.132 2.36105C338.783 0.867487 336.868 -0.00141302 334.855 1.72493e-06C332.844 0.00366834 330.922 0.866415 329.577 2.36105L311.66 22.2911C309.228 24.9979 309.222 29.1025 311.66 31.8047L342.563 66.04H169.262C146.698 65.9909 124.375 70.9467 103.601 80.5533C82.8215 90.1654 64.0091 104.253 48.2882 121.941C32.5714 139.626 20.2433 160.583 11.9681 183.537C3.71445 206.435 -0.349466 230.896 0.0235366 255.514C-0.272331 282.468 4.38963 309.23 13.739 334.158C23.0902 359.088 36.9562 381.692 54.5035 400.578C55.9239 402.107 57.9408 402.929 60.0243 402.838C62.1074 402.743 64.0593 401.741 65.3371 400.095L81.8648 378.774C83.9654 376.06 83.8118 372.231 81.5177 369.679C68.1637 354.802 57.5766 337.102 50.3713 317.595C43.166 298.084 39.492 277.15 39.6076 256.035V255.861C39.2386 236.551 42.3684 217.368 48.7742 199.439C55.1819 181.508 64.7457 165.196 76.8647 151.489C88.9787 137.791 103.404 126.962 119.261 119.58C135.124 112.197 152.143 108.396 169.297 108.4H342.563L311.625 142.67C309.182 145.375 309.184 149.511 311.625 152.218L329.577 172.114C330.922 173.603 332.847 174.436 334.855 174.44C336.861 174.44 338.785 173.599 340.132 172.114L412.46 91.9768C414.903 89.2698 414.903 85.169 412.46 82.4631L340.132 2.36105Z" fill="black"/>
</g>
</svg>
