<svg width="512" height="512" viewBox="0 0 512 512" fill="none" xmlns="http://www.w3.org/2000/svg">
<g clip-path="url(#clip0_2295_8012)">
<path d="M71.1783 367.389L71.2371 367.319L71.1734 367.254C56.8048 352.583 45.4359 335.17 37.7211 316.019C30.0064 296.869 26.0981 276.358 26.2213 255.667L26.2212 255.665C25.8251 236.666 29.169 217.778 36.0568 200.109C42.9446 182.439 53.2376 166.344 66.3322 152.767C79.4268 139.19 95.0593 128.405 112.313 121.043C129.567 113.681 148.095 109.891 166.81 109.896H361.278L318.581 153.248L318.512 153.318L318.581 153.388L337.049 172.139L337.12 172.212L337.191 172.139L411.584 96.6048L411.654 96.5347L411.584 96.4645L337.191 20.9298L337.12 20.8574L337.049 20.9299L318.607 39.7075L318.538 39.7777L318.607 39.8477L361.252 83.1737H166.784C144.636 83.1278 122.701 87.5678 102.263 96.2339C81.8259 104.9 63.2961 117.618 47.7585 133.644C32.2209 149.669 19.9877 168.68 11.7745 189.565C3.56158 210.448 -0.466436 232.786 -0.0738279 255.269C-0.370185 279.884 4.27367 304.302 13.5747 327.036C22.8759 349.77 36.6396 370.342 54.0268 387.499L54.1036 387.575L54.1734 387.493L71.1783 367.389ZM457.766 123.834L457.689 123.758L457.619 123.841L440.588 143.944L440.529 144.014L440.593 144.079C454.971 158.754 466.361 176.163 474.11 195.31C481.859 214.456 485.815 234.966 485.754 255.666L485.754 255.669C486.136 274.684 482.775 293.585 475.868 311.263C468.96 328.942 458.646 345.042 445.529 358.619C432.412 372.197 416.757 382.978 399.483 390.33C382.208 397.683 363.661 401.459 344.93 401.438H150.697L193.368 358.112L193.437 358.042L193.368 357.972L174.927 339.194L174.855 339.121L174.784 339.194L100.391 414.729L100.322 414.799L100.391 414.869L174.784 490.403L174.855 490.476L174.926 490.403L193.394 471.652L193.463 471.582L193.394 471.512L150.697 428.16H344.93C367.101 428.23 389.062 423.808 409.528 415.153C429.995 406.497 448.554 393.782 464.12 377.753C479.686 361.724 491.945 342.702 500.179 321.802C508.413 300.902 512.458 278.544 512.075 256.037C512.299 231.415 507.6 207.003 498.26 184.279C488.92 161.555 475.162 140.991 457.766 123.834Z" fill="black" stroke="black" stroke-width="0.2"/>
</g>
</svg>
