<svg width="512" height="512" viewBox="0 0 512 512" fill="none" xmlns="http://www.w3.org/2000/svg">
<g clip-path="url(#clip0_3484_8367)">
<path d="M81.3223 277.362C80.029 275.925 78.1875 275.093 76.2556 275.092C74.8076 275.092 73.4099 275.558 72.2555 276.394L71.1888 277.362L1.75566 354.371C-0.587806 356.97 -0.582632 360.915 1.75566 363.517L71.1888 440.559C72.4831 441.991 74.3264 442.795 76.2556 442.795C78.1848 442.795 80.0283 441.991 81.3223 440.559L98.5556 421.431C100.902 418.83 100.902 414.854 98.5556 412.253L68.8558 379.306H439.624C446.147 379.303 451.628 376.967 455.455 372.964C459.199 369.046 460.988 363.921 460.988 358.944C460.988 353.966 459.203 348.841 455.455 344.924C451.628 340.921 446.147 338.586 439.624 338.582H68.8558L98.5224 305.668C100.861 303.074 100.882 299.125 98.5556 296.522L81.3223 277.362Z" fill="black"/>
<path d="M440.921 72.2699C439.627 70.8341 437.784 70.0001 435.856 70C434.409 70.001 433.006 70.4674 431.855 71.3018L430.787 72.2699L413.553 91.4304C411.229 94.0334 411.249 97.9823 413.587 100.577L443.256 133.49H72.4876C65.9631 133.494 60.4829 135.829 56.6546 139.832C52.9091 143.749 51.123 148.874 51.1211 153.852C51.1211 158.83 52.9125 163.954 56.6546 167.872C60.4829 171.875 65.9631 174.211 72.4876 174.215H443.256L413.553 207.161C411.208 209.764 411.208 213.739 413.553 216.341L430.787 235.468C432.081 236.9 433.924 237.705 435.856 237.705C437.784 237.705 439.627 236.901 440.921 235.468L510.355 158.425C512.693 155.823 512.697 151.878 510.355 149.279L440.921 72.2699Z" fill="black"/>
</g>
</svg>
