<svg width="512" height="512" viewBox="0 0 512 512" fill="none" xmlns="http://www.w3.org/2000/svg">
<g clip-path="url(#clip0_3484_8373)">
<path d="M465.483 123V56.5185C465.483 55.1329 464.845 52.9302 462.226 50.6848C459.496 48.3434 455.129 46.518 449.953 46.518H79.4148L272.449 239.56C281.538 248.649 281.538 263.351 272.449 272.44L79.4148 465.483H449.953C455.129 465.483 459.496 463.655 462.226 461.316C464.845 459.071 465.483 456.865 465.483 455.483V389C465.483 376.146 475.888 365.704 488.743 365.704C501.595 365.704 512 376.146 512 389V455.483C512 471.729 504.454 486.435 492.528 496.66C480.713 506.789 465.353 512 449.953 512H23.2773C13.8641 512 5.36391 506.34 1.76165 497.644C-1.8356 488.948 0.183671 478.956 6.83752 472.3L223.13 256L6.83752 39.6993C0.183669 33.0452 -1.8356 23.0518 1.76165 14.3569C5.36391 5.65996 13.8641 0 23.2773 0H449.953C465.353 0 480.713 5.21259 492.528 15.3418C504.454 25.5658 512 40.2723 512 56.5185V123C512 135.854 501.595 146.297 488.743 146.297C475.888 146.297 465.483 135.854 465.483 123Z" fill="black"/>
</g>
</svg>
