<svg width="512" height="512" viewBox="0 0 512 512" fill="none" xmlns="http://www.w3.org/2000/svg">
<path fill-rule="evenodd" clip-rule="evenodd" d="M51.9609 15.8033C55.9465 6.23724 65.3358 0 75.7507 0H436.25C450.471 0 462 11.4615 462 25.6V102.4C462 116.538 450.471 128 436.25 128C422.029 128 410.5 116.538 410.5 102.4V51.2H137.917L325.708 237.898C335.764 247.896 335.764 264.105 325.708 274.102L137.917 460.8H410.5V409.6C410.5 395.462 422.029 384 436.25 384C450.471 384 462 395.462 462 409.6V486.4C462 500.539 450.471 512 436.25 512H75.7507C65.3358 512 55.9465 505.763 51.9609 496.197C47.9752 486.631 50.1783 475.62 57.5427 468.298L271.084 256L57.5427 43.7019C50.1783 36.3804 47.9752 25.3694 51.9609 15.8033Z" fill="black"/>
</svg>
