<svg width="512" height="512" viewBox="0 0 512 512" fill="none" xmlns="http://www.w3.org/2000/svg">
<g clip-path="url(#clip0_3482_8374)">
<path d="M301.339 255.531L494.311 62.559C500.808 56.0616 504.138 48.346 504.301 39.4121C504.463 30.4782 501.296 22.7625 494.798 16.2651C488.301 9.76777 480.585 6.60029 471.651 6.76273C462.717 6.92516 455.002 10.2551 448.504 16.7525L255.532 209.725L62.5599 16.7525C56.0626 10.2551 48.3469 6.92516 39.413 6.76273C30.4791 6.60029 22.7635 9.76777 16.2661 16.2651C9.76872 22.7625 6.60124 30.4782 6.76368 39.4121C6.92611 48.346 10.256 56.0616 16.7534 62.559L209.726 255.531L16.7534 448.504C10.256 455.001 7.00733 462.635 7.00733 471.407C7.00733 480.178 10.0936 487.975 16.2661 494.797C22.7635 501.295 30.4791 504.462 39.413 504.3C48.3469 504.137 56.0626 500.807 62.5599 494.31L255.532 301.338L448.504 494.31C455.002 500.807 462.717 504.137 471.651 504.3C480.585 504.462 488.301 501.295 494.798 494.797C500.971 487.975 504.057 480.178 504.057 471.407C504.057 462.635 500.808 455.001 494.311 448.504L301.339 255.531Z" fill="black"/>
</g>
</svg>

