<svg width="12" height="12" viewBox="0 0 12 12" fill="none" xmlns="http://www.w3.org/2000/svg">
<g clip-path="url(#clip0_3312_10076)">
<path d="M11.0857 0.232651L0.241311 11.077C0.0336096 11.2847 0.0235256 11.6114 0.218788 11.8067C0.41405 12.0019 0.740716 11.9919 0.948418 11.7842L11.7928 0.939758C12.0005 0.732057 12.0106 0.40539 11.8153 0.210128C11.6201 0.0148655 11.2934 0.0249499 11.0857 0.232651Z" fill="black"/>
<path d="M0.229721 0.912338L11.0741 11.7567C11.2818 11.9644 11.6085 11.9745 11.8037 11.7793C11.999 11.584 11.9889 11.2573 11.7812 11.0496L0.936827 0.205231C0.729126 -0.00247072 0.40246 -0.0125538 0.207198 0.182708C0.0119358 0.377971 0.0220189 0.704636 0.229721 0.912338Z" fill="black"/>
</g>
</svg>
