<svg width="16" height="18" viewBox="0 0 16 18" fill="none" xmlns="http://www.w3.org/2000/svg">
    <path d="M9.93262 8.00073C10.264 8.00073 10.5332 8.26897 10.5332 8.60034V16.0007H13.0439C13.2918 16.0007 13.5333 15.8993 13.7139 15.7136C13.8949 15.5274 13.9999 15.2712 14 15.0007V6.48901L7.59961 1.36889L1.19922 6.48901V15.0007C1.19932 15.2712 1.30429 15.5274 1.48535 15.7136C1.66593 15.8993 1.90741 16.0007 2.15527 16.0007H4.66602V8.60034C4.66602 8.26897 4.93523 8.00073 5.2666 8.00073H9.93262ZM5.86621 16.0007H9.33301V9.19995H5.86621V16.0007ZM15.1992 15.0007C15.1991 15.5786 14.9763 16.1359 14.5742 16.5496C14.1714 16.9639 13.6212 17.1999 13.0439 17.1999H2.15527C1.57804 17.1999 1.02786 16.9639 0.625 16.5496C0.222923 16.1359 0.000100426 15.5786 0 15.0007V6.19995C0.000118307 6.01794 0.0825568 5.84596 0.224609 5.73217L7.22461 0.131589L7.31055 0.0739718C7.51997 -0.0411683 7.78282 -0.0218413 7.97461 0.131589L14.9746 5.73217L15.0254 5.7771C15.1364 5.88876 15.1991 6.04069 15.1992 6.19995V15.0007Z"
          fill="#000000"/>
</svg>
