<svg width="512" height="512" viewBox="0 0 512 512" fill="none" xmlns="http://www.w3.org/2000/svg">
<path d="M256 0C205.368 0 155.873 15.0141 113.774 43.1438C71.6751 71.2734 38.863 111.255 19.4869 158.033C0.11092 204.811 -4.95873 256.284 4.91908 305.943C14.7969 355.602 39.1785 401.217 74.9808 437.019C110.783 472.822 156.398 497.203 206.057 507.081C255.716 516.959 307.189 511.889 353.967 492.513C400.745 473.137 440.727 440.325 468.856 398.226C496.986 356.127 512 306.632 512 256C512 188.105 485.029 122.99 437.019 74.9807C389.01 26.9713 323.895 0 256 0ZM42.6668 256C42.6238 206.803 59.7223 159.129 91.0223 121.173L390.827 420.978C359.61 446.582 321.761 462.789 281.689 467.711C241.616 472.633 200.97 466.067 164.485 448.779C128 431.49 97.179 404.191 75.6117 370.06C54.0445 335.93 42.6191 296.374 42.6668 256ZM420.978 390.827L121.173 91.0222C162.064 57.5592 213.931 40.4848 266.703 43.1141C319.475 45.7434 369.387 67.8888 406.749 105.251C444.111 142.613 466.257 192.525 468.886 245.297C471.515 298.069 454.441 349.936 420.978 390.827Z" fill="black"/>
</svg>
