<svg width="512" height="512" viewBox="0 0 512 512" fill="none" xmlns="http://www.w3.org/2000/svg">
<path d="M396 204.8H389V138.971C389 102.114 374.988 66.766 350.045 40.7038C325.103 14.6416 291.274 0 256 0C220.726 0 186.897 14.6416 161.955 40.7038C137.012 66.766 123 102.114 123 138.971V204.8H116C95.5783 204.8 75.9931 213.277 61.5528 228.365C47.1125 243.454 39 263.919 39 285.257V431.543C39 452.881 47.1125 473.346 61.5528 488.435C75.9931 503.523 95.5783 512 116 512H396C416.422 512 436.007 503.523 450.447 488.435C464.888 473.346 473 452.881 473 431.543V285.257C473 263.919 464.888 243.454 450.447 228.365C436.007 213.277 416.422 204.8 396 204.8ZM165 138.971C165 113.753 174.587 89.5677 191.653 71.7357C208.719 53.9036 231.865 43.8857 256 43.8857C280.135 43.8857 303.281 53.9036 320.347 71.7357C337.413 89.5677 347 113.753 347 138.971V204.8H165V138.971ZM431 431.543C431 441.242 427.313 450.544 420.749 457.403C414.185 464.261 405.283 468.114 396 468.114H116C106.717 468.114 97.815 464.261 91.2513 457.403C84.6875 450.544 81 441.242 81 431.543V285.257C81 275.558 84.6875 266.256 91.2513 259.397C97.815 252.539 106.717 248.686 116 248.686H396C405.283 248.686 414.185 252.539 420.749 259.397C427.313 266.256 431 275.558 431 285.257V431.543Z" fill="black"/>
</svg>
