<svg width="512" height="512" viewBox="0 0 512 512" fill="none" xmlns="http://www.w3.org/2000/svg">
<path d="M504.978 239.45L286.427 34.8905C279.991 29.0459 270.629 27.2925 262.729 30.7993C254.83 34.306 249.563 42.1962 249.563 50.963V234.19L36.864 34.8905C30.4274 29.0459 21.0651 27.2925 13.1657 30.7993C5.26629 34.306 0 42.1962 0 50.963V460.083C0 468.85 5.26629 476.74 13.1657 480.247C16.0914 481.416 19.0171 482 21.9429 482C27.5017 482 32.768 479.954 36.864 476.155L249.563 276.856V460.083C249.563 468.85 254.83 476.74 262.729 480.247C265.655 481.416 268.581 482 271.506 482C277.065 482 282.331 479.954 286.427 476.155L504.978 271.596C509.367 267.504 512 261.66 512 255.523C512 249.386 509.367 243.542 504.978 239.45ZM43.8857 409.527V101.519L208.311 255.523L43.8857 409.527ZM293.449 409.527V101.519L457.874 255.523L293.449 409.527Z" fill="black"/>
</svg>
