<svg width="512" height="512" viewBox="0 0 512 512" fill="none" xmlns="http://www.w3.org/2000/svg">
<path d="M289.032 478.607C285.777 478.623 282.552 477.987 279.546 476.739C276.539 475.49 273.812 473.653 271.525 471.335C266.886 466.687 264.28 460.386 264.28 453.817C264.28 447.248 266.886 440.947 271.525 436.298L452.212 255.494L271.525 74.6904C267.149 69.991 264.767 63.7754 264.88 57.353C264.993 50.9306 267.593 44.8029 272.132 40.2609C276.671 35.7189 282.795 33.1172 289.213 33.0039C295.631 32.8905 301.843 35.2745 306.539 39.6534L504.733 237.976C509.372 242.624 511.978 248.925 511.978 255.494C511.978 262.064 509.372 268.365 504.733 273.013L306.539 471.335C304.252 473.653 301.525 475.49 298.519 476.739C295.512 477.987 292.287 478.623 289.032 478.607Z" fill="black"/>
<path d="M487.226 280.284H24.7742C18.2037 280.284 11.9023 277.672 7.25619 273.023C2.61013 268.374 0 262.068 0 255.493C0 248.919 2.61013 242.613 7.25619 237.964C11.9023 233.315 18.2037 230.703 24.7742 230.703H487.226C493.796 230.703 500.098 233.315 504.744 237.964C509.39 242.613 512 248.919 512 255.493C512 262.068 509.39 268.374 504.744 273.023C500.098 277.672 493.796 280.284 487.226 280.284Z" fill="black"/>
</svg>
