<svg width="14" height="14" viewBox="0 0 14 14" fill="none" xmlns="http://www.w3.org/2000/svg">
<g clip-path="url(#clip0_3613_8391)">
<path d="M13.5222 5.82218L9.21118 1.65287C9.11061 1.55559 8.97408 1.5 8.83039 1.5H0.538877C0.24429 1.5 0 1.73626 0 2.02116V7.49685C0 7.63581 0.0574801 7.76786 0.15807 7.86514L4.46909 12.0275C4.78521 12.3332 5.20196 12.5 5.64741 12.5C6.0929 12.5 6.51681 12.3332 6.82577 12.0275L6.98384 11.8746C7.01258 11.9302 7.04132 11.9858 7.0916 12.0275C7.41494 12.3402 7.84604 12.5 8.26995 12.5C8.69386 12.5 9.12496 12.3402 9.45547 12.0275L13.515 8.1014C14.1617 7.47599 14.1617 6.45452 13.515 5.82218H13.5222ZM6.07132 11.2909C5.95637 11.4021 5.81268 11.4577 5.65461 11.4577C5.49653 11.4577 5.34565 11.3951 5.23789 11.2909L1.07775 7.28143V2.54232H5.97795L10.1309 6.55876C10.3608 6.78111 10.3608 7.14244 10.1309 7.36482L6.07132 11.2909ZM12.7606 7.36482L8.70105 11.2909C8.47112 11.5133 8.09033 11.5133 7.8604 11.2909C7.81011 11.2423 7.75983 11.2145 7.69516 11.1867L10.8853 8.1014C11.532 7.46903 11.532 6.44757 10.8853 5.82218L7.49396 2.54232H8.60046L12.7534 6.55876C12.9833 6.78111 12.9833 7.14244 12.7534 7.36482H12.7606ZM4.31102 4.57138C4.31102 5.05086 3.90865 5.43998 3.41288 5.43998C2.91711 5.43998 2.51476 5.05086 2.51476 4.57138C2.51476 4.09191 2.91711 3.70278 3.41288 3.70278C3.90865 3.70278 4.31102 4.09191 4.31102 4.57138Z" fill="black"/>
</g>
</svg>
