<svg width="512" height="416" viewBox="0 0 512 416" fill="none" xmlns="http://www.w3.org/2000/svg">
<path d="M494.526 163.457L336.866 5.78143C333.188 2.10234 328.195 0 322.94 0H19.7075C8.93405 0 0 8.93493 0 19.7094V226.79C0 232.045 2.10213 237.039 5.78086 240.718L163.441 398.13C175.002 409.693 190.243 416 206.534 416C222.826 416 238.329 409.693 249.628 398.13L255.409 392.349C256.46 394.451 257.511 396.553 259.35 398.13C271.175 409.956 286.941 416 302.444 416C317.947 416 333.713 409.956 345.8 398.13L494.263 249.653C517.912 226.001 517.912 187.371 494.263 163.457H494.526ZM222.037 370.274C217.833 374.479 212.578 376.581 206.797 376.581C201.016 376.581 195.498 374.216 191.557 370.274L39.4149 218.643V39.4188H218.622L370.5 191.313C378.909 199.722 378.909 213.387 370.5 221.797L222.037 370.274ZM466.673 221.797L318.21 370.274C309.801 378.684 295.875 378.684 287.466 370.274C285.627 368.435 283.788 367.383 281.423 366.332L398.091 249.653C421.74 225.738 421.74 187.108 398.091 163.457L274.065 39.4188H314.531L466.41 191.313C474.819 199.722 474.819 213.387 466.41 221.797H466.673ZM157.66 116.154C157.66 134.287 142.945 149.003 124.814 149.003C106.683 149.003 91.9682 134.287 91.9682 116.154C91.9682 98.0215 106.683 83.3051 124.814 83.3051C142.945 83.3051 157.66 98.0215 157.66 116.154Z" fill="black"/>
</svg>
