<svg width="512" height="512" viewBox="0 0 512 512" fill="none" xmlns="http://www.w3.org/2000/svg">
<g clip-path="url(#clip0_3317_17729)">
<path d="M255.854 341.72C238.89 341.72 222.307 336.693 208.201 327.273C194.096 317.854 183.103 304.466 176.611 288.802C170.119 273.138 168.42 255.902 171.73 239.273C175.039 222.644 183.208 207.37 195.204 195.381C207.199 183.393 222.482 175.228 239.121 171.921C255.759 168.613 273.005 170.311 288.678 176.799C304.351 183.287 317.746 194.274 327.171 208.372C336.596 222.469 341.626 239.042 341.626 255.997C341.626 278.732 332.59 300.536 316.504 316.613C300.419 332.689 278.602 341.72 255.854 341.72ZM255.854 214.159C247.575 214.159 239.481 216.613 232.597 221.21C225.713 225.807 220.347 232.341 217.179 239.986C214.011 247.631 213.182 256.043 214.797 264.159C216.412 272.275 220.399 279.73 226.253 285.581C232.108 291.432 239.567 295.416 247.687 297.031C255.808 298.645 264.225 297.817 271.874 294.65C279.523 291.483 286.061 286.121 290.661 279.241C295.261 272.361 297.716 264.272 297.716 255.997C297.716 244.901 293.305 234.259 285.455 226.413C277.604 218.567 266.956 214.159 255.854 214.159Z" fill="black"/>
<path d="M257.61 512C249.051 511.962 240.584 510.234 232.694 506.916C224.805 503.599 217.649 498.756 211.638 492.666C205.627 486.577 200.878 479.361 197.665 471.432C194.452 463.503 192.838 455.018 192.915 446.464C192.799 443.825 191.941 441.272 190.44 439.099C188.938 436.925 186.853 435.219 184.425 434.176C181.739 432.944 178.747 432.536 175.829 433.005C172.91 433.474 170.197 434.798 168.032 436.809C155.878 448.864 139.488 455.69 122.365 455.826C105.134 455.937 88.5396 449.324 76.1121 437.394C70.0754 431.363 65.2868 424.202 62.0197 416.32C58.7526 408.439 57.071 399.992 57.071 391.461C57.071 382.93 58.7526 374.482 62.0197 366.601C65.2868 358.719 70.0754 351.558 76.1121 345.527C78.1766 343.646 79.6594 341.214 80.3857 338.519C81.1119 335.823 81.0511 332.976 80.2104 330.313C78.784 327.844 76.7375 325.789 74.2731 324.352C71.8087 322.916 69.0118 322.147 66.1589 322.121C48.9349 322.053 32.41 315.305 20.068 303.297C7.72593 291.289 0.531009 274.962 0 257.755C0.0383565 249.226 1.75733 240.788 5.05876 232.922C8.3602 225.056 13.1795 217.918 19.2413 211.914C25.3032 205.91 32.4891 201.158 40.3885 197.929C48.288 194.701 56.7464 193.059 65.2807 193.097C67.9211 192.982 70.4753 192.124 72.6501 190.623C74.8249 189.123 76.5321 187.039 77.5758 184.613C78.8087 181.928 79.2166 178.937 78.7475 176.021C78.2785 173.104 76.9538 170.392 74.9411 168.229C62.8791 156.081 56.0498 139.701 55.9131 122.587C55.7634 114.045 57.317 105.557 60.4834 97.6209C63.6498 89.6843 68.3655 82.4573 74.3556 76.3611C80.3906 70.3279 87.5556 65.5421 95.4415 62.2768C103.327 59.0116 111.78 57.331 120.316 57.331C128.851 57.331 137.304 59.0116 145.19 62.2768C153.076 65.5421 160.241 70.3279 166.276 76.3611C168.383 78.3653 170.971 79.7945 173.79 80.5118C176.61 81.229 179.566 81.2102 182.376 80.4571C184.938 79.055 187.109 77.0365 188.694 74.5844C190.278 72.1323 191.226 69.324 191.451 66.4137C191.443 49.1489 198.162 32.5594 210.184 20.1616C222.207 7.76388 238.587 0.532394 255.854 0C264.388 0.0764968 272.824 1.83236 280.679 5.16731C288.535 8.50227 295.656 13.351 301.636 19.4367C307.617 25.5223 312.339 32.7257 315.534 40.6354C318.729 48.5452 320.333 57.0064 320.256 65.536C320.367 68.2131 321.184 70.8134 322.623 73.0738C324.062 75.3343 326.073 77.1748 328.453 78.4091C331.036 79.3572 333.835 79.5582 336.527 78.989C339.22 78.4197 341.697 77.1033 343.675 75.1909C355.829 63.1357 372.22 56.3104 389.342 56.1737C397.905 55.9055 406.432 57.4038 414.39 60.5751C422.348 63.7463 429.566 68.5226 435.595 74.6057C441.632 80.6372 446.42 87.7981 449.688 95.6795C452.955 103.561 454.636 112.008 454.636 120.539C454.636 129.07 452.955 137.518 449.688 145.399C446.42 153.281 441.632 160.442 435.595 166.473C433.741 168.664 432.473 171.29 431.909 174.104C431.346 176.918 431.507 179.829 432.375 182.565C433.778 185.125 435.798 187.295 438.251 188.879C440.705 190.462 443.515 191.409 446.427 191.634C463.549 191.852 479.926 198.668 492.143 210.66C504.36 222.652 511.473 238.894 512 256C511.923 264.53 510.167 272.961 506.83 280.811C503.493 288.662 498.641 295.78 492.552 301.757C486.463 307.734 479.256 312.453 471.341 315.646C463.427 318.839 454.961 320.443 446.427 320.366C443.748 320.477 441.146 321.293 438.884 322.731C436.623 324.17 434.781 326.18 433.546 328.558C432.597 331.14 432.396 333.937 432.966 336.628C433.535 339.319 434.853 341.795 436.766 343.771C448.828 355.919 455.657 372.299 455.794 389.413C455.944 397.955 454.39 406.443 451.224 414.379C448.057 422.316 443.342 429.543 437.352 435.639C431.317 441.672 424.152 446.458 416.266 449.723C408.38 452.988 399.928 454.669 391.392 454.669C382.856 454.669 374.403 452.988 366.518 449.723C358.632 446.458 351.467 441.672 345.432 435.639C343.454 433.726 340.976 432.41 338.284 431.841C335.591 431.272 332.793 431.472 330.209 432.421C327.738 433.846 325.683 435.892 324.245 438.354C322.807 440.817 322.038 443.613 322.013 446.464C321.794 463.577 314.975 479.944 302.976 492.154C290.977 504.364 274.726 511.474 257.61 512ZM178.278 388.827C186.042 388.737 193.733 390.334 200.819 393.509C211.275 397.864 220.242 405.158 226.633 414.506C233.024 423.853 236.565 434.853 236.826 446.171C236.745 451.815 238.872 457.267 242.754 461.366C246.637 465.465 251.967 467.886 257.61 468.114C263.252 467.668 268.512 465.091 272.319 460.905C276.126 456.72 278.194 451.242 278.102 445.586C278.171 434.228 281.451 423.121 287.562 413.544C293.674 403.968 302.369 396.313 312.645 391.461C323.335 387.016 335.103 385.839 346.462 388.079C357.822 390.318 368.261 395.873 376.462 404.041C380.344 407.921 385.609 410.101 391.099 410.101C396.589 410.101 401.854 407.921 405.736 404.041C409.618 400.161 411.799 394.899 411.799 389.413C411.799 383.926 409.618 378.664 405.736 374.784C397.612 366.555 392.109 356.106 389.92 344.755C387.732 333.404 388.957 321.66 393.441 311.003C398.058 300.737 405.541 292.02 414.991 285.896C424.44 279.773 435.457 276.503 446.719 276.48C452.288 276.561 457.669 274.466 461.715 270.64C465.762 266.815 468.154 261.562 468.382 256C468.006 250.335 465.447 245.036 461.244 241.217C457.04 237.398 451.519 235.356 445.841 235.52C434.382 235.209 423.238 231.701 413.668 225.394C404.098 219.087 396.484 210.231 391.684 199.826C387.303 189.035 386.161 177.201 388.396 165.772C390.631 154.342 396.148 143.809 404.272 135.461C406.194 133.54 407.719 131.259 408.759 128.749C409.8 126.239 410.335 123.549 410.335 120.832C410.335 118.115 409.8 115.425 408.759 112.915C407.719 110.405 406.194 108.124 404.272 106.203C402.35 104.282 400.068 102.759 397.557 101.719C395.045 100.679 392.354 100.144 389.635 100.144C386.917 100.144 384.225 100.679 381.714 101.719C379.202 102.759 376.92 104.282 374.998 106.203C366.768 113.843 356.512 118.956 345.455 120.931C334.397 122.906 323.005 121.66 312.636 117.342C302.267 113.025 293.36 105.817 286.978 96.5792C280.595 87.3415 277.006 76.4637 276.638 65.2434C276.719 59.6775 274.622 54.2998 270.795 50.2559C266.967 46.212 261.711 43.8213 256.146 43.5931C250.478 43.9693 245.176 46.5265 241.355 50.7274C237.534 54.9284 235.491 60.4461 235.655 66.1211C235.343 77.5738 231.834 88.7111 225.523 98.2755C219.212 107.84 210.351 115.45 199.941 120.247C189.143 124.625 177.303 125.767 165.866 123.533C154.43 121.299 143.892 115.786 135.538 107.666C133.616 105.745 131.334 104.221 128.823 103.182C126.311 102.142 123.619 101.607 120.901 101.607C118.183 101.607 115.491 102.142 112.98 103.182C110.468 104.221 108.186 105.745 106.264 107.666C104.342 109.587 102.817 111.868 101.777 114.378C100.737 116.888 100.201 119.578 100.201 122.295C100.201 125.012 100.737 127.702 101.777 130.212C102.817 132.722 104.342 135.002 106.264 136.923C114.339 145.184 119.788 155.649 121.923 166.998C124.059 178.348 122.787 190.076 118.266 200.704C113.908 211.154 106.61 220.116 97.2574 226.504C87.9045 232.891 76.8984 236.43 65.5735 236.69C59.9267 236.609 54.4716 238.736 50.3704 242.616C46.2693 246.496 43.8464 251.823 43.6181 257.463C44.0641 263.102 46.6436 268.358 50.8313 272.163C55.019 275.968 60.5002 278.035 66.1589 277.943C77.5237 278.012 88.6375 281.29 98.2193 287.398C107.801 293.506 115.461 302.196 120.316 312.466C124.763 323.15 125.94 334.912 123.7 346.264C121.459 357.617 115.901 368.051 107.728 376.247C105.806 378.168 104.281 380.449 103.241 382.958C102.2 385.468 101.665 388.159 101.665 390.875C101.665 393.592 102.2 396.282 103.241 398.792C104.281 401.302 105.806 403.583 107.728 405.504C109.65 407.425 111.932 408.949 114.443 409.989C116.955 411.028 119.646 411.563 122.365 411.563C125.083 411.563 127.775 411.028 130.286 409.989C132.798 408.949 135.08 407.425 137.002 405.504C148.128 394.887 162.894 388.921 178.278 388.827Z" fill="black"/>
</g>
</svg>
