<?xml version="1.0" encoding="UTF-8"?>
<!-- Generated by Pixelmator Pro 2.4.3 -->
<svg width="500" height="500" viewBox="0 0 500 500" xmlns="http://www.w3.org/2000/svg" xmlns:xlink="http://www.w3.org/1999/xlink">
    <path id="Path" fill="#a5a5a5" stroke="none" d="M 500 250 C 500 388.071198 388.071198 500 250 500 C 111.92881 500 0 388.071198 0 250 C -0 111.928802 111.92881 0 250 0 C 388.071198 0 500 111.928802 500 250 Z"/>
    <g id="user">
        <path id="path1" fill="#ffffff" stroke="none" d="M 249.75 254.879028 C 213.539719 254.879028 184.185486 225.524811 184.185486 189.314514 C 184.185486 153.104248 213.539719 123.75 249.75 123.75 C 285.960297 123.75 315.314514 153.104248 315.314514 189.314514 C 315.314514 225.524811 285.960297 254.879028 249.75 254.879028 Z M 249.75 149.9758 C 228.023834 149.9758 210.411285 167.588348 210.411285 189.314514 C 210.411285 211.04068 228.023834 228.653229 249.75 228.653229 C 271.476166 228.653229 289.088715 211.04068 289.088715 189.314514 C 289.088715 167.588348 271.476166 149.9758 249.75 149.9758 Z"/>
        <path id="path2" fill="#ffffff" stroke="none" d="M 372.137085 377.266113 C 364.934387 377.171936 359.118378 371.355927 359.0242 364.153229 C 359.0242 330.059662 340.491302 307.330627 249.75 307.330627 C 159.008713 307.330627 140.4758 330.059662 140.4758 364.153229 C 140.4758 371.395264 134.604965 377.266113 127.3629 377.266113 C 120.120842 377.266113 114.25 371.395264 114.25 364.153229 C 114.25 281.104858 209.187424 281.104858 249.75 281.104858 C 290.312561 281.104858 385.25 281.104858 385.25 364.153229 C 385.155823 371.355927 379.339783 377.171936 372.137085 377.266113 Z"/>
    </g>
</svg>
