<svg width="512" height="512" viewBox="0 0 512 512" fill="none" xmlns="http://www.w3.org/2000/svg">
<path d="M512 256C512 397.385 397.385 512 256 512C114.615 512 0 397.385 0 256C0 114.615 114.615 0 256 0C397.385 0 512 114.615 512 256Z" fill="#A5A5A5"/>
<path d="M255.744 260.996C218.664 260.996 188.605 230.937 188.605 193.858C188.605 156.779 218.664 126.72 255.744 126.72C292.823 126.72 322.882 156.779 322.882 193.858C322.882 230.937 292.823 260.996 255.744 260.996ZM255.744 153.575C233.496 153.575 215.461 171.61 215.461 193.858C215.461 216.106 233.496 234.141 255.744 234.141C277.991 234.141 296.026 216.106 296.026 193.858C296.026 171.61 277.991 153.575 255.744 153.575Z" fill="white"/>
<path d="M381.069 386.32C373.693 386.224 367.737 380.268 367.641 372.893C367.641 337.981 348.663 314.707 255.744 314.707C162.825 314.707 143.847 337.981 143.847 372.893C143.847 380.309 137.836 386.32 130.42 386.32C123.004 386.32 116.992 380.309 116.992 372.893C116.992 287.851 214.208 287.851 255.744 287.851C297.28 287.851 394.496 287.851 394.496 372.893C394.4 380.268 388.444 386.224 381.069 386.32Z" fill="white"/>
</svg>
