<svg width="512" height="512" viewBox="0 0 512 512" fill="none" xmlns="http://www.w3.org/2000/svg">
<path d="M512 256C512 114.615 397.385 0 256 0C114.615 0 0 114.615 0 256C0 397.385 114.615 512 256 512C397.385 512 512 397.385 512 256Z" fill="#A5A5A5"/>
<path d="M509.442 256.002C509.442 116.031 395.974 2.5625 256.002 2.5625C116.031 2.5625 2.5625 116.031 2.5625 256.002C2.5625 395.974 116.031 509.442 256.002 509.442C395.974 509.442 509.442 395.974 509.442 256.002Z" stroke="black" stroke-opacity="0.06"/>
<path d="M309.306 136.969H202.708C188.515 136.969 181.414 136.969 174.993 138.955C169.312 140.712 164.04 143.59 159.49 147.419C154.344 151.75 150.509 157.72 142.829 169.66L108.945 222.37C103.877 230.255 101.337 234.203 100.651 238.355C100.042 242.016 100.446 245.779 101.818 249.225C103.375 253.136 106.687 256.449 113.323 263.085L239.224 388.985C245.101 394.863 248.035 397.802 251.425 398.898C254.404 399.871 257.61 399.871 260.589 398.898C263.974 397.802 266.913 394.863 272.785 388.991L398.691 263.085C405.327 256.449 408.639 253.136 410.196 249.225C411.567 245.775 411.971 242.017 411.363 238.355C410.677 234.208 408.138 230.26 403.069 222.37L369.185 169.66C361.505 157.72 357.665 151.75 352.524 147.419C347.974 143.59 342.702 140.712 337.021 138.955C330.595 136.969 323.509 136.969 309.306 136.969Z" fill="white"/>
<path d="M289.14 178.541C290.871 173.861 297.491 173.861 299.227 178.541L311.192 210.884C311.909 212.83 313.445 214.361 315.385 215.082L347.729 227.048C352.408 228.778 352.408 235.393 347.729 237.134L315.385 249.1C313.44 249.817 311.909 251.353 311.187 253.288L299.222 285.631C297.491 290.316 290.871 290.316 289.135 285.631L277.17 253.288C276.453 251.347 274.917 249.817 272.977 249.1L240.639 237.129C235.954 235.399 235.954 228.778 240.639 227.043L272.977 215.077C274.922 214.361 276.453 212.825 277.175 210.884L289.14 178.541Z" fill="#A5A5A5"/>
</svg>
