<svg width="514" height="514" viewBox="0 0 514 514" fill="none" xmlns="http://www.w3.org/2000/svg">
<path d="M221.406 442.811C344.102 442.811 442.811 344.102 442.811 221.406C442.811 98.7093 344.102 0 221.406 0C98.7093 0 0 98.7093 0 221.406C0 344.102 98.7093 442.811 221.406 442.811Z" fill="#2775CA"/>
<path d="M282.292 256.461C282.292 224.173 262.919 213.103 224.173 208.491C196.497 204.8 190.962 197.421 190.962 184.504C190.962 171.587 200.188 163.287 218.638 163.287C235.243 163.287 244.469 168.822 249.081 182.66C250.004 185.427 252.772 187.271 255.539 187.271H270.298C273.989 187.271 276.757 184.504 276.757 180.815V179.892C273.066 159.596 256.46 143.914 235.243 142.069V119.929C235.243 116.238 232.476 113.47 227.864 112.547H214.026C210.335 112.547 207.568 115.315 206.644 119.929V141.146C178.969 144.837 161.442 163.287 161.442 186.35C161.442 216.794 179.892 228.785 218.638 233.399C244.469 238.011 252.772 243.546 252.772 258.307C252.772 273.068 239.855 283.215 222.329 283.215C198.342 283.215 190.039 273.066 187.271 259.228C186.35 255.54 183.583 253.693 180.815 253.693H165.131C161.442 253.693 158.675 256.461 158.675 260.152V261.075C162.363 284.136 177.124 300.742 207.567 305.356V327.496C207.567 331.185 210.335 333.953 214.947 334.876H228.785C232.476 334.876 235.243 332.108 236.166 327.496V305.356C263.842 300.742 282.292 281.369 282.292 256.461Z" fill="white"/>
<path d="M174.357 353.326C102.4 327.497 65.4984 247.237 92.253 176.201C106.091 137.455 136.534 107.935 174.357 94.0974C178.048 92.2531 179.892 89.4855 179.892 84.8715V71.9569C179.892 68.266 178.048 65.4985 174.357 64.5774C173.434 64.5774 171.589 64.5774 170.666 65.4985C83.0271 93.1742 35.0551 186.35 62.7308 273.989C79.3362 325.65 119.005 365.319 170.666 381.925C174.357 383.769 178.048 381.925 178.969 378.234C179.892 377.313 179.892 376.39 179.892 374.545V361.628C179.892 358.861 177.124 355.172 174.357 353.326ZM272.145 65.4985C268.454 63.6542 264.763 65.4985 263.842 69.1893C262.919 70.1126 262.919 71.0336 262.919 72.8801V85.7947C262.919 89.4856 265.687 93.1742 268.454 95.0207C340.411 120.85 377.313 201.109 350.558 272.145C336.72 310.891 306.277 340.411 268.454 354.249C264.763 356.093 262.919 358.861 262.919 363.475V376.39C262.919 380.08 264.763 382.848 268.454 383.769C269.377 383.769 271.222 383.769 272.145 382.848C359.784 355.172 407.756 261.996 380.08 174.357C363.475 121.773 322.882 82.1039 272.145 65.4985Z" fill="white"/>
<path d="M387.459 511.999C456.241 511.999 511.999 456.241 511.999 387.459C511.999 318.677 456.241 262.918 387.459 262.918C318.677 262.918 262.918 318.677 262.918 387.459C262.918 456.241 318.677 511.999 387.459 511.999Z" fill="#FF060A"/>
<path d="M469.288 350.586C462.224 345.646 454.67 340.378 447.279 335.152C447.116 335.029 446.953 334.907 446.748 334.784C445.932 334.172 444.993 333.518 443.849 333.151L443.768 333.11C424.004 328.332 403.915 323.432 384.478 318.696C366.838 314.408 349.239 310.121 331.599 305.833C331.15 305.711 330.701 305.588 330.211 305.466C328.619 305.017 326.781 304.527 324.821 304.772C324.249 304.853 323.759 305.058 323.31 305.343L322.82 305.752C322.044 306.487 321.636 307.426 321.432 307.957L321.309 308.283V310.162L321.391 310.448C332.538 341.685 343.972 373.371 354.997 404.037C363.49 427.638 372.31 452.097 380.926 476.107C381.456 477.74 382.967 478.802 384.846 478.965H385.254C387.01 478.965 388.561 478.108 389.337 476.719L421.677 429.557C429.558 418.083 437.438 406.568 445.319 395.094C448.545 390.399 451.771 385.662 454.997 380.966C460.305 373.208 465.777 365.205 471.207 357.405L471.493 356.997V356.507C471.616 355.078 471.657 352.138 469.288 350.586ZM431.395 367.777C423.8 371.738 416.042 375.821 408.243 379.864C412.775 375.005 417.349 370.105 421.881 365.245C427.557 359.12 433.478 352.791 439.276 346.585L439.398 346.462C439.888 345.809 440.501 345.196 441.154 344.543C441.603 344.094 442.093 343.645 442.543 343.114C445.564 345.196 448.627 347.32 451.567 349.402C453.69 350.913 455.854 352.424 458.059 353.935C449.076 358.508 440.093 363.204 431.395 367.777ZM411.877 365.817C406.038 372.146 399.995 378.639 393.992 385.049C382.355 370.921 370.472 356.589 358.957 342.746C353.731 336.458 348.463 330.129 343.237 323.841L343.196 323.8C342.012 322.452 340.868 320.982 339.725 319.594C338.99 318.655 338.214 317.757 337.438 316.817C342.175 318.042 346.953 319.186 351.648 320.288C355.772 321.268 360.06 322.289 364.266 323.351C387.949 329.108 411.673 334.866 435.356 340.623C427.475 349.035 419.554 357.569 411.877 365.817ZM391.338 445.401C391.787 441.113 392.277 436.703 392.685 432.375C393.053 428.904 393.42 425.352 393.788 421.962C394.36 416.532 394.972 410.897 395.462 405.384L395.585 404.404C395.993 400.893 396.401 397.258 396.646 393.624C397.095 393.379 397.585 393.134 398.116 392.93C398.729 392.644 399.341 392.399 399.954 392.032C409.386 387.091 418.819 382.15 428.292 377.25C437.724 372.35 447.402 367.287 456.997 362.265C448.259 374.923 439.48 387.704 430.987 400.158C423.678 410.815 416.164 421.799 408.692 432.62C405.752 436.948 402.69 441.358 399.79 445.605C396.524 450.341 393.175 455.201 389.909 460.06C390.317 455.16 390.807 450.219 391.338 445.401ZM334.417 326.454C333.886 324.984 333.314 323.473 332.824 322.044C343.849 335.356 354.956 348.749 365.777 361.734C371.371 368.471 376.965 375.168 382.559 381.946C383.661 383.212 384.764 384.559 385.826 385.866C387.214 387.54 388.602 389.296 390.113 390.97C389.623 395.176 389.215 399.423 388.766 403.506C388.48 406.364 388.194 409.223 387.867 412.122V412.163C387.745 414 387.5 415.838 387.296 417.634C387.01 420.125 386.356 425.76 386.356 425.76L386.316 426.046C385.581 434.294 384.682 442.624 383.825 450.709C383.457 454.057 383.131 457.487 382.763 460.917C382.559 460.305 382.314 459.692 382.11 459.12C381.497 457.487 380.885 455.772 380.313 454.098L375.944 441.971C362.102 403.465 348.259 365 334.417 326.454Z" fill="white"/>
<path d="M387.459 262.378C456.539 262.378 512.539 318.379 512.539 387.459C512.539 456.539 456.539 512.539 387.459 512.539C318.379 512.539 262.378 456.539 262.378 387.459C262.378 318.379 318.379 262.378 387.459 262.378Z" stroke="white" stroke-width="1.07917"/>
</svg>
