<svg width="514" height="514" viewBox="0 0 514 514" fill="none" xmlns="http://www.w3.org/2000/svg">
<path d="M211.358 422.715C328.486 422.715 422.715 328.486 422.715 211.358C422.715 94.2295 328.486 0 211.358 0C94.2295 0 0 94.2295 0 211.358C0 328.486 94.2295 422.715 211.358 422.715Z" fill="#2775CA"/>
<path d="M269.481 244.822C269.481 213.999 250.987 203.432 213.999 199.029C187.58 195.506 182.296 188.461 182.296 176.131C182.296 163.8 191.103 155.876 208.715 155.876C224.567 155.876 233.374 161.16 237.777 174.37C238.658 177.012 241.3 178.773 243.942 178.773H258.031C261.555 178.773 264.197 176.131 264.197 172.609V171.728C260.673 152.353 244.822 137.382 224.567 135.622V114.486C224.567 110.963 221.925 108.321 217.523 107.439H204.313C200.789 107.439 198.148 110.081 197.266 114.486V134.74C170.846 138.264 154.115 155.876 154.115 177.893C154.115 206.955 171.728 218.402 208.715 222.807C233.374 227.209 241.3 232.493 241.3 246.585C241.3 260.676 228.97 270.362 212.239 270.362C189.34 270.362 181.414 260.674 178.772 247.464C177.893 243.943 175.251 242.18 172.609 242.18H157.637C154.115 242.18 151.473 244.822 151.473 248.345V249.226C154.995 271.241 169.086 287.093 198.148 291.498V312.634C198.148 316.155 200.789 318.797 205.192 319.678H218.402C221.925 319.678 224.567 317.036 225.449 312.634V291.498C251.868 287.093 269.481 268.599 269.481 244.822Z" fill="white"/>
<path d="M166.444 337.291C97.7528 312.634 62.5259 236.017 88.0663 168.205C101.276 131.217 130.338 103.037 166.444 89.827C169.967 88.0664 171.728 85.4244 171.728 81.0197V68.6913C171.728 65.1679 169.967 62.526 166.444 61.6467C165.563 61.6467 163.802 61.6467 162.921 62.526C79.2591 88.9457 33.4642 177.893 59.8839 261.555C75.7357 310.871 113.605 348.74 162.921 364.592C166.444 366.352 169.967 364.592 170.847 361.068C171.728 360.189 171.728 359.308 171.728 357.547V345.217C171.728 342.575 169.086 339.054 166.444 337.291ZM259.794 62.526C256.271 60.7654 252.748 62.526 251.868 66.0493C250.987 66.9307 250.987 67.8099 250.987 69.5726V81.9011C250.987 85.4245 253.629 88.9457 256.271 90.7084C324.962 115.365 360.189 191.982 334.649 259.794C321.439 296.782 292.377 324.962 256.271 338.172C252.748 339.933 250.987 342.575 250.987 346.979V359.308C250.987 362.831 252.748 365.473 256.271 366.352C257.152 366.352 258.913 366.352 259.794 365.473C343.456 339.054 389.251 250.106 362.831 166.444C346.979 116.247 308.229 78.3778 259.794 62.526Z" fill="white"/>
<path d="M387.459 262.378C456.699 262.378 512.539 318.219 512.539 387.459C512.539 456.699 456.699 512.539 387.459 512.539C318.219 512.539 262.378 456.699 262.378 387.459C262.378 318.219 318.219 262.378 387.459 262.378Z" fill="#0098EA" stroke="white" stroke-width="1.08"/>
<path d="M430.177 332.297H344.777C329.21 332.297 319.425 349.199 326.986 362.987L379.471 454.169C383.029 459.951 391.48 459.951 395.039 454.169L447.523 362.987C455.53 349.199 445.744 332.297 430.177 332.297ZM379.916 426.592L368.351 404.353L340.774 354.981C338.995 351.868 341.219 347.864 345.222 347.864H379.916V426.592ZM434.18 354.981L406.603 404.353L395.039 426.592V347.864H429.732C433.735 347.864 435.959 351.868 434.18 354.981Z" fill="white"/>
</svg>
