<svg width="514" height="513" viewBox="0 0 514 513" fill="none" xmlns="http://www.w3.org/2000/svg">
<path d="M221.405 442.81C344.101 442.81 442.81 344.101 442.81 221.405C442.81 98.7091 344.101 0 221.405 0C98.7091 0 0 98.7091 0 221.405C0 344.101 98.7091 442.81 221.405 442.81Z" fill="#2775CA"/>
<path d="M282.291 256.46C282.291 224.173 262.918 213.102 224.172 208.491C196.497 204.8 190.962 197.42 190.962 184.504C190.962 171.587 200.188 163.286 218.637 163.286C235.243 163.286 244.469 168.821 249.081 182.659C250.004 185.427 252.771 187.271 255.539 187.271H270.298C273.989 187.271 276.756 184.503 276.756 180.815V179.892C273.065 159.595 256.46 143.913 235.243 142.069V119.928C235.243 116.238 232.475 113.47 227.863 112.547H214.025C210.335 112.547 207.567 115.314 206.644 119.928V141.146C178.968 144.837 161.442 163.286 161.442 186.35C161.442 216.793 179.891 228.785 218.637 233.399C244.469 238.01 252.771 243.546 252.771 258.307C252.771 273.068 239.855 283.215 222.328 283.215C198.341 283.215 190.038 273.066 187.271 259.228C186.35 255.539 183.582 253.693 180.815 253.693H165.13C161.442 253.693 158.674 256.46 158.674 260.151V261.074C162.363 284.136 177.124 300.741 207.567 305.355V327.496C207.567 331.184 210.335 333.952 214.947 334.875H228.784C232.475 334.875 235.243 332.108 236.166 327.496V305.355C263.842 300.741 282.291 281.368 282.291 256.46Z" fill="white"/>
<path d="M174.357 353.325C102.4 327.496 65.4983 247.237 92.2529 176.201C106.091 137.455 136.534 107.935 174.357 94.0972C178.047 92.2529 179.892 89.4854 179.892 84.8713V71.9567C179.892 68.2659 178.047 65.4983 174.357 64.5773C173.433 64.5773 171.589 64.5773 170.666 65.4983C83.0269 93.174 35.055 186.35 62.7307 273.989C79.3361 325.649 119.005 365.319 170.666 381.924C174.357 383.768 178.047 381.924 178.968 378.233C179.892 377.312 179.892 376.389 179.892 374.544V361.628C179.892 358.86 177.124 355.172 174.357 353.325ZM272.144 65.4983C268.454 63.654 264.763 65.4983 263.842 69.1892C262.919 70.1124 262.919 71.0335 262.919 72.88V85.7946C262.919 89.4854 265.686 93.174 268.454 95.0205C340.41 120.85 377.312 201.109 350.557 272.145C336.72 310.891 306.276 340.41 268.454 354.248C264.763 356.093 262.919 358.86 262.919 363.474V376.389C262.919 380.08 264.763 382.847 268.454 383.768C269.377 383.768 271.221 383.768 272.144 382.847C359.783 355.172 407.755 261.995 380.08 174.357C363.474 121.773 322.882 82.1037 272.144 65.4983Z" fill="white"/>
<path d="M387.54 261.46C456.62 261.46 512.62 317.46 512.62 386.54C512.62 455.62 456.62 511.62 387.54 511.62C318.46 511.62 262.46 455.62 262.46 386.54C262.46 317.46 318.46 261.46 387.54 261.46Z" fill="#30A1F5" stroke="white" stroke-width="1.08"/>
<path d="M361.607 329.133H413.466C420.407 329.133 423.764 329.138 426.801 330.077C429.501 330.912 432.006 332.279 434.169 334.099C436.598 336.146 438.423 338.972 442.176 344.807L458.659 370.45V370.449C459.896 372.375 460.81 373.797 461.458 374.989C462.103 376.176 462.468 377.105 462.622 378.037C462.903 379.729 462.716 381.465 462.083 383.059C461.733 383.938 461.179 384.769 460.297 385.791C459.411 386.818 458.216 388.014 456.597 389.633L395.346 450.884C393.911 452.318 392.856 453.373 391.955 454.138C391.059 454.899 390.347 455.343 389.612 455.581L389.611 455.582C388.263 456.022 386.812 456.022 385.463 455.582L385.461 455.581C384.725 455.343 384.014 454.899 383.117 454.138C382.216 453.373 381.161 452.317 379.726 450.882L318.477 389.633C316.857 388.014 315.663 386.818 314.776 385.791C313.894 384.769 313.341 383.938 312.991 383.059C312.357 381.467 312.17 379.729 312.451 378.038L312.452 378.037C312.606 377.104 312.971 376.174 313.616 374.987C314.264 373.795 315.177 372.374 316.414 370.45L332.898 344.807C336.651 338.972 338.472 336.146 340.903 334.099L340.904 334.1C343.067 332.28 345.572 330.912 348.272 330.077C351.307 329.138 354.671 329.133 361.607 329.133Z" fill="white" stroke="white"/>
<path d="M404.145 349.031C404.825 347.191 407.43 347.189 408.113 349.031L413.935 364.766C414.334 365.85 415.19 366.702 416.27 367.104H416.271L432.005 372.925C433.787 373.584 433.845 376.048 432.171 376.824L432.004 376.894L416.271 382.715C415.186 383.114 414.334 383.969 413.933 385.046V385.048L408.111 400.782C407.452 402.567 404.987 402.624 404.212 400.949L404.143 400.781L398.321 385.048C397.922 383.966 397.066 383.114 395.986 382.715L380.254 376.892V376.891C378.411 376.21 378.409 373.605 380.254 372.922L395.985 367.102C397.07 366.702 397.922 365.846 398.323 364.767V364.766L404.145 349.031Z" fill="#30A1F5" stroke="white"/>
</svg>
