<svg width="514" height="514" viewBox="0 0 514 514" fill="none" xmlns="http://www.w3.org/2000/svg">
<path d="M221.405 442.81C344.101 442.81 442.81 344.101 442.81 221.405C442.81 98.7091 344.101 0 221.405 0C98.7091 0 0 98.7091 0 221.405C0 344.101 98.7091 442.81 221.405 442.81Z" fill="#2775CA"/>
<path d="M282.291 256.46C282.291 224.173 262.918 213.102 224.172 208.491C196.497 204.8 190.962 197.42 190.962 184.504C190.962 171.587 200.188 163.286 218.637 163.286C235.243 163.286 244.469 168.821 249.081 182.659C250.004 185.427 252.771 187.271 255.539 187.271H270.298C273.989 187.271 276.756 184.503 276.756 180.815V179.892C273.065 159.595 256.46 143.913 235.243 142.069V119.928C235.243 116.238 232.475 113.47 227.863 112.547H214.025C210.335 112.547 207.567 115.314 206.644 119.928V141.146C178.968 144.837 161.442 163.286 161.442 186.35C161.442 216.793 179.891 228.785 218.637 233.399C244.469 238.01 252.771 243.546 252.771 258.307C252.771 273.068 239.855 283.215 222.328 283.215C198.341 283.215 190.038 273.066 187.271 259.228C186.35 255.539 183.582 253.693 180.815 253.693H165.13C161.442 253.693 158.674 256.46 158.674 260.151V261.074C162.363 284.136 177.124 300.741 207.567 305.355V327.496C207.567 331.184 210.335 333.952 214.947 334.875H228.784C232.475 334.875 235.243 332.108 236.166 327.496V305.355C263.842 300.741 282.291 281.368 282.291 256.46Z" fill="white"/>
<path d="M174.357 353.325C102.4 327.496 65.4983 247.237 92.2529 176.201C106.091 137.455 136.534 107.935 174.357 94.0972C178.047 92.2529 179.892 89.4854 179.892 84.8713V71.9567C179.892 68.2659 178.047 65.4983 174.357 64.5773C173.433 64.5773 171.589 64.5773 170.666 65.4983C83.0269 93.174 35.055 186.35 62.7307 273.989C79.3361 325.649 119.005 365.319 170.666 381.924C174.357 383.768 178.047 381.924 178.968 378.233C179.892 377.312 179.892 376.389 179.892 374.544V361.628C179.892 358.86 177.124 355.172 174.357 353.325ZM272.144 65.4983C268.454 63.654 264.763 65.4983 263.842 69.1892C262.919 70.1124 262.919 71.0335 262.919 72.88V85.7946C262.919 89.4854 265.686 93.174 268.454 95.0205C340.41 120.85 377.312 201.109 350.557 272.145C336.72 310.891 306.276 340.41 268.454 354.248C264.763 356.093 262.919 358.86 262.919 363.474V376.389C262.919 380.08 264.763 382.847 268.454 383.768C269.377 383.768 271.221 383.768 272.144 382.847C359.783 355.172 407.755 261.995 380.08 174.357C363.474 121.773 322.882 82.1037 272.144 65.4983Z" fill="white"/>
<path d="M387.458 262.38C456.543 262.38 512.539 318.375 512.539 387.46C512.539 456.545 456.543 512.541 387.458 512.541C318.373 512.541 262.378 456.545 262.378 387.46C262.378 318.375 318.373 262.38 387.458 262.38Z" fill="#F0B90B" stroke="white" stroke-width="1.08"/>
<path d="M331.374 387.453L331.464 420.385L359.446 436.85V456.13L315.088 430.114V377.823L331.374 387.453ZM331.374 354.522V373.712L315.078 364.072V344.882L331.374 335.242L347.75 344.882L331.374 354.522ZM371.132 344.882L387.427 335.242L403.803 344.882L387.427 354.522L371.132 344.882Z" fill="white"/>
<path d="M343.133 413.559V394.279L359.429 403.919V423.109L343.133 413.559ZM371.115 443.756L387.41 453.396L403.786 443.756V462.946L387.41 472.586L371.115 462.946V443.756ZM427.157 344.882L443.454 335.242L459.829 344.882V364.072L443.454 373.712V354.522L427.157 344.882ZM443.454 420.385L443.544 387.453L459.839 377.814V430.105L415.482 456.12V436.84L443.454 420.385Z" fill="white"/>
<path d="M431.811 413.549L415.516 423.099V403.909L431.811 394.27V413.549Z" fill="white"/>
<path d="M431.768 361.351L431.858 380.631L403.796 397.097V430.108L387.5 439.658L371.204 430.108V397.097L343.143 380.631V361.351L359.508 351.711L387.4 368.257L415.462 351.711L431.838 361.351H431.768ZM343.133 328.43L387.41 302.324L431.768 328.43L415.472 338.07L387.41 321.524L359.429 338.07L343.133 328.43Z" fill="white"/>
</svg>
