<svg width="514" height="514" viewBox="0 0 514 514" fill="none" xmlns="http://www.w3.org/2000/svg">
<path d="M221.406 442.812C344.102 442.812 442.812 344.102 442.812 221.406C442.812 98.7094 344.102 0 221.406 0C98.7094 0 0 98.7094 0 221.406C0 344.102 98.7094 442.812 221.406 442.812Z" fill="#2775CA"/>
<path d="M282.292 256.461C282.292 224.173 262.919 213.103 224.173 208.491C196.498 204.8 190.962 197.421 190.962 184.504C190.962 171.587 200.188 163.287 218.638 163.287C235.244 163.287 244.47 168.822 249.081 182.66C250.005 185.427 252.772 187.272 255.54 187.272H270.299C273.99 187.272 276.757 184.504 276.757 180.816V179.892C273.066 159.596 256.461 143.914 235.244 142.07V119.929C235.244 116.238 232.476 113.471 227.864 112.547H214.026C210.335 112.547 207.568 115.315 206.645 119.929V141.146C178.969 144.837 161.442 163.287 161.442 186.351C161.442 216.794 179.892 228.785 218.638 233.399C244.47 238.011 252.772 243.547 252.772 258.308C252.772 273.069 239.855 283.216 222.329 283.216C198.342 283.216 190.039 273.067 187.272 259.229C186.351 255.54 183.583 253.694 180.815 253.694H165.131C161.442 253.694 158.675 256.461 158.675 260.152V261.075C162.363 284.137 177.125 300.742 207.568 305.356V327.497C207.568 331.186 210.335 333.953 214.947 334.876H228.785C232.476 334.876 235.244 332.109 236.167 327.497V305.356C263.843 300.742 282.292 281.369 282.292 256.461Z" fill="white"/>
<path d="M174.357 353.326C102.4 327.497 65.4985 247.237 92.2532 176.202C106.091 137.456 136.534 107.935 174.357 94.0976C178.048 92.2533 179.892 89.4857 179.892 84.8716V71.957C179.892 68.2662 178.048 65.4986 174.357 64.5775C173.434 64.5775 171.59 64.5775 170.666 65.4986C83.0272 93.1743 35.0552 186.351 62.7309 273.99C79.3364 325.651 119.006 365.32 170.666 381.925C174.357 383.77 178.048 381.925 178.969 378.234C179.892 377.313 179.892 376.39 179.892 374.546V361.629C179.892 358.861 177.125 355.173 174.357 353.326ZM272.145 65.4986C268.455 63.6543 264.764 65.4986 263.843 69.1894C262.92 70.1127 262.92 71.0337 262.92 72.8803V85.7949C262.92 89.4857 265.687 93.1743 268.455 95.0209C340.412 120.85 377.313 201.11 350.559 272.146C336.721 310.892 306.277 340.412 268.455 354.25C264.764 356.094 262.92 358.861 262.92 363.476V376.39C262.92 380.081 264.764 382.849 268.455 383.77C269.378 383.77 271.222 383.77 272.145 382.849C359.785 355.173 407.757 261.996 380.081 174.357C363.475 121.773 322.883 82.104 272.145 65.4986Z" fill="white"/>
<path d="M387.459 512C456.241 512 512 456.241 512 387.459C512 318.677 456.241 262.918 387.459 262.918C318.677 262.918 262.918 318.677 262.918 387.459C262.918 456.241 318.677 512 387.459 512Z" fill="#627EEA"/>
<path d="M391.351 294.053V363.095L449.706 389.171L391.351 294.053Z" fill="white" fill-opacity="0.602"/>
<path d="M391.351 294.053L332.972 389.171L391.351 363.095V294.053Z" fill="white"/>
<path d="M391.351 433.922V480.835L449.745 400.047L391.351 433.922Z" fill="white" fill-opacity="0.602"/>
<path d="M391.351 480.835V433.922L332.972 400.047L391.351 480.835Z" fill="white"/>
<path d="M391.351 423.046L449.706 389.171L391.351 363.095V423.046Z" fill="white" fill-opacity="0.2"/>
<path d="M332.972 389.171L391.351 423.046V363.095L332.972 389.171Z" fill="white" fill-opacity="0.602"/>
<path d="M387.459 262.378C456.539 262.378 512.539 318.379 512.539 387.459C512.539 456.539 456.539 512.539 387.459 512.539C318.379 512.539 262.378 456.539 262.378 387.459C262.378 318.379 318.379 262.378 387.459 262.378Z" stroke="white" stroke-width="1.07917"/>
</svg>
