<svg width="514" height="514" viewBox="0 0 514 514" fill="none" xmlns="http://www.w3.org/2000/svg">
<path d="M437.542 221.407C437.542 340.775 340.775 437.542 221.407 437.542C102.039 437.542 5.27159 340.775 5.27159 221.407C5.27159 102.039 102.039 5.27159 221.407 5.27159C340.775 5.27159 437.542 102.039 437.542 221.407Z" fill="white"/>
<path d="M337.04 215.093C336.954 225.904 298.64 234.899 247.353 237.148C245.883 237.234 238.358 237.666 221.666 237.666C208.261 237.666 198.92 237.234 195.547 237.061C169.861 235.937 147.374 233.083 131.374 229.277C115.374 225.472 105.774 220.542 105.774 215.093C105.774 204.369 144.174 195.461 195.547 193.126V228.066C198.92 228.326 208.52 228.931 221.839 228.931C237.839 228.931 245.796 228.239 247.353 228.066V193.126C298.813 195.461 337.04 204.369 337.04 215.093ZM442.814 221.407C442.814 343.7 343.7 442.814 221.407 442.814C99.1142 442.814 0 343.7 0 221.407C0 99.1142 99.1142 0 221.407 0C343.7 0 442.814 99.1142 442.814 221.407ZM349.148 217.688C349.148 203.85 305.559 192.347 247.353 189.666V158.444H318.878V110.703H124.022V158.444H195.547V189.666C137.428 192.347 93.6655 203.85 93.6655 217.602C93.6655 231.439 137.428 242.942 195.547 245.623V345.948H247.353V245.71C305.559 243.029 349.148 231.526 349.148 217.688Z" fill="#76C5B8"/>
<path d="M387.459 512.001C456.242 512.001 512.001 456.242 512.001 387.459C512.001 318.677 456.242 262.918 387.459 262.918C318.677 262.918 262.918 318.677 262.918 387.459C262.918 456.242 318.677 512.001 387.459 512.001Z" fill="#FF060A"/>
<path d="M469.289 350.587C462.225 345.646 454.671 340.379 447.28 335.152C447.117 335.029 446.954 334.907 446.75 334.784C445.933 334.172 444.994 333.519 443.85 333.151L443.769 333.11C424.005 328.333 403.915 323.433 384.479 318.696C366.839 314.409 349.24 310.121 331.6 305.834C331.151 305.711 330.701 305.589 330.211 305.466C328.619 305.017 326.781 304.527 324.821 304.772C324.25 304.854 323.76 305.058 323.311 305.344L322.821 305.752C322.045 306.487 321.636 307.426 321.432 307.957L321.31 308.284V310.162L321.391 310.448C332.539 341.685 343.972 373.372 354.997 404.038C363.491 427.639 372.311 452.098 380.926 476.108C381.457 477.742 382.968 478.803 384.846 478.967H385.255C387.01 478.967 388.562 478.109 389.338 476.721L421.678 429.558C429.559 418.084 437.44 406.569 445.32 395.095C448.546 390.399 451.772 385.663 454.998 380.967C460.306 373.209 465.778 365.205 471.209 357.406L471.494 356.998V356.508C471.617 355.079 471.658 352.139 469.289 350.587ZM431.396 367.778C423.801 371.739 416.043 375.822 408.244 379.864C412.776 375.005 417.35 370.105 421.882 365.246C427.558 359.121 433.479 352.792 439.277 346.585L439.4 346.463C439.89 345.809 440.502 345.197 441.155 344.544C441.605 344.094 442.095 343.645 442.544 343.114C445.565 345.197 448.628 347.32 451.568 349.403C453.691 350.914 455.855 352.424 458.06 353.935C449.077 358.509 440.094 363.204 431.396 367.778ZM411.878 365.818C406.039 372.147 399.995 378.639 393.993 385.05C382.355 370.922 370.473 356.589 358.958 342.747C353.731 336.459 348.464 330.129 343.237 323.841L343.196 323.8C342.012 322.453 340.869 320.983 339.726 319.594C338.991 318.655 338.215 317.757 337.439 316.818C342.176 318.043 346.953 319.186 351.649 320.289C355.773 321.269 360.061 322.289 364.266 323.351C387.95 329.109 411.674 334.866 435.357 340.624C427.476 349.035 419.555 357.569 411.878 365.818ZM391.339 445.402C391.788 441.114 392.278 436.704 392.686 432.376C393.054 428.905 393.421 425.353 393.789 421.963C394.36 416.533 394.973 410.898 395.463 405.385L395.585 404.405C395.994 400.893 396.402 397.259 396.647 393.625C397.096 393.38 397.586 393.135 398.117 392.931C398.73 392.645 399.342 392.4 399.955 392.033C409.387 387.092 418.82 382.151 428.293 377.251C437.725 372.351 447.403 367.288 456.999 362.265C448.26 374.924 439.481 387.704 430.988 400.158C423.679 410.816 416.165 421.8 408.693 432.621C405.753 436.949 402.69 441.359 399.791 445.606C396.525 450.343 393.176 455.202 389.91 460.061C390.318 455.161 390.808 450.22 391.339 445.402ZM334.417 326.454C333.886 324.984 333.315 323.474 332.825 322.044C343.85 335.356 354.956 348.749 365.777 361.734C371.371 368.472 376.965 375.169 382.56 381.947C383.662 383.213 384.765 384.56 385.826 385.867C387.215 387.541 388.603 389.297 390.114 390.971C389.624 395.177 389.215 399.423 388.766 403.507C388.48 406.365 388.195 409.223 387.868 412.123V412.163C387.745 414.001 387.5 415.838 387.296 417.635C387.01 420.126 386.357 425.761 386.357 425.761L386.316 426.047C385.581 434.295 384.683 442.625 383.825 450.71C383.458 454.058 383.131 457.488 382.764 460.918C382.56 460.306 382.315 459.693 382.11 459.122C381.498 457.488 380.885 455.773 380.314 454.099L375.945 441.972C362.102 403.466 348.26 365.001 334.417 326.454Z" fill="white"/>
<path d="M387.459 262.378C456.539 262.378 512.54 318.379 512.54 387.459C512.54 456.539 456.539 512.54 387.459 512.54C318.379 512.54 262.378 456.539 262.378 387.459C262.378 318.379 318.379 262.378 387.459 262.378Z" stroke="white" stroke-width="1.07917"/>
</svg>
