<svg width="514" height="514" viewBox="0 0 514 514" fill="none" xmlns="http://www.w3.org/2000/svg">
<path d="M437.539 221.405C437.539 340.773 340.773 437.539 221.405 437.539C102.038 437.539 5.27155 340.773 5.27155 221.405C5.27155 102.038 102.038 5.27155 221.405 5.27155C340.773 5.27155 437.539 102.038 437.539 221.405Z" fill="white"/>
<path d="M337.038 215.092C336.951 225.903 298.638 234.897 247.351 237.146C245.881 237.232 238.357 237.665 221.665 237.665C208.259 237.665 198.919 237.232 195.546 237.059C169.859 235.935 147.373 233.081 131.373 229.276C115.373 225.47 105.773 220.54 105.773 215.092C105.773 204.367 144.173 195.459 195.546 193.124V228.065C198.919 228.324 208.519 228.93 221.838 228.93C237.838 228.93 245.794 228.238 247.351 228.065V193.124C298.811 195.459 337.038 204.367 337.038 215.092ZM442.811 221.405C442.811 343.697 343.697 442.811 221.405 442.811C99.1135 442.811 0 343.697 0 221.405C0 99.1135 99.1135 0 221.405 0C343.697 0 442.811 99.1135 442.811 221.405ZM349.146 217.686C349.146 203.849 305.557 192.346 247.351 189.665V158.443H318.875V110.703H124.022V158.443H195.546V189.665C137.427 192.346 93.6648 203.849 93.6648 217.6C93.6648 231.438 137.427 242.94 195.546 245.621V345.946H247.351V245.708C305.557 243.027 349.146 231.524 349.146 217.686Z" fill="#76C5B8"/>
<path d="M387.458 512.001C456.241 512.001 511.999 456.242 511.999 387.46C511.999 318.679 456.241 262.92 387.458 262.92C318.677 262.92 262.918 318.679 262.918 387.46C262.918 456.242 318.677 512.001 387.458 512.001Z" fill="#627EEA"/>
<path d="M391.35 294.055V363.097L449.705 389.173L391.35 294.055Z" fill="white" fill-opacity="0.602"/>
<path d="M391.35 294.055L332.972 389.173L391.35 363.097V294.055Z" fill="white"/>
<path d="M391.35 433.923V480.836L449.744 400.048L391.35 433.923Z" fill="white" fill-opacity="0.602"/>
<path d="M391.35 480.836V433.923L332.972 400.048L391.35 480.836Z" fill="white"/>
<path d="M391.35 423.048L449.705 389.173L391.35 363.097V423.048Z" fill="white" fill-opacity="0.2"/>
<path d="M332.972 389.173L391.35 423.048V363.097L332.972 389.173Z" fill="white" fill-opacity="0.602"/>
<path d="M387.458 262.38C456.538 262.38 512.538 318.38 512.538 387.46C512.538 456.54 456.538 512.54 387.458 512.54C318.378 512.54 262.378 456.54 262.378 387.46C262.378 318.38 318.379 262.38 387.458 262.38Z" stroke="white" stroke-width="1.07917"/>
</svg>
