<svg width="514" height="513" viewBox="0 0 514 513" fill="none" xmlns="http://www.w3.org/2000/svg">
<path d="M437.539 221.405C437.539 340.772 340.772 437.539 221.405 437.539C102.038 437.539 5.27155 340.772 5.27155 221.405C5.27155 102.038 102.038 5.27155 221.405 5.27155C340.772 5.27155 437.539 102.038 437.539 221.405Z" fill="white"/>
<path d="M337.037 215.092C336.951 225.902 298.637 234.897 247.351 237.146C245.881 237.232 238.356 237.665 221.665 237.665C208.259 237.665 198.919 237.232 195.546 237.059C169.859 235.935 147.373 233.081 131.373 229.275C115.373 225.47 105.773 220.54 105.773 215.092C105.773 204.367 144.173 195.459 195.546 193.124V228.065C198.919 228.324 208.519 228.929 221.838 228.929C237.837 228.929 245.794 228.238 247.351 228.065V193.124C298.81 195.459 337.037 204.367 337.037 215.092ZM442.81 221.405C442.81 343.697 343.697 442.81 221.405 442.81C99.1134 442.81 0 343.697 0 221.405C0 99.1134 99.1134 0 221.405 0C343.697 0 442.81 99.1134 442.81 221.405ZM349.145 217.686C349.145 203.848 305.556 192.346 247.351 189.665V158.443H318.875V110.703H124.021V158.443H195.546V189.665C137.427 192.346 93.6647 203.848 93.6647 217.6C93.6647 231.438 137.427 242.94 195.546 245.621V345.945H247.351V245.708C305.556 243.027 349.145 231.524 349.145 217.686Z" fill="#76C5B8"/>
<path d="M387.54 261.46C456.62 261.46 512.62 317.46 512.62 386.54C512.62 455.62 456.62 511.62 387.54 511.62C318.46 511.62 262.46 455.62 262.46 386.54C262.46 317.46 318.46 261.46 387.54 261.46Z" fill="#30A1F5" stroke="white" stroke-width="1.08"/>
<path d="M361.607 329.133H413.466C420.407 329.133 423.764 329.138 426.801 330.077C429.501 330.912 432.006 332.279 434.169 334.099C436.598 336.146 438.423 338.972 442.176 344.807L458.659 370.45V370.449C459.896 372.375 460.81 373.797 461.458 374.989C462.103 376.176 462.468 377.105 462.622 378.037C462.903 379.729 462.716 381.465 462.083 383.059C461.733 383.938 461.179 384.769 460.297 385.791C459.411 386.818 458.216 388.014 456.597 389.633L395.346 450.884C393.911 452.318 392.856 453.373 391.955 454.138C391.059 454.899 390.347 455.343 389.612 455.581L389.611 455.582C388.263 456.022 386.812 456.022 385.463 455.582L385.461 455.581C384.725 455.343 384.014 454.899 383.117 454.138C382.216 453.373 381.161 452.317 379.726 450.882L318.477 389.633C316.857 388.014 315.663 386.818 314.776 385.791C313.894 384.769 313.341 383.938 312.991 383.059C312.357 381.467 312.17 379.729 312.451 378.038L312.452 378.037C312.606 377.104 312.971 376.174 313.616 374.987C314.264 373.795 315.177 372.374 316.414 370.45L332.898 344.807C336.651 338.972 338.472 336.146 340.903 334.099L340.904 334.1C343.067 332.28 345.572 330.912 348.272 330.077C351.307 329.138 354.671 329.133 361.607 329.133Z" fill="white" stroke="white"/>
<path d="M404.145 349.031C404.825 347.191 407.43 347.189 408.113 349.031L413.935 364.766C414.334 365.85 415.19 366.702 416.27 367.104H416.271L432.005 372.925C433.787 373.584 433.845 376.048 432.171 376.824L432.004 376.894L416.271 382.715C415.186 383.114 414.334 383.969 413.933 385.046V385.048L408.111 400.782C407.452 402.567 404.987 402.624 404.212 400.949L404.143 400.781L398.321 385.048C397.922 383.966 397.066 383.114 395.986 382.715L380.254 376.892V376.891C378.411 376.21 378.409 373.605 380.254 372.922L395.985 367.102C397.07 366.702 397.922 365.846 398.323 364.767V364.766L404.145 349.031Z" fill="#30A1F5" stroke="white"/>
</svg>
