<svg width="514" height="514" viewBox="0 0 514 514" fill="none" xmlns="http://www.w3.org/2000/svg">
<path d="M437.539 221.405C437.539 340.772 340.772 437.539 221.405 437.539C102.038 437.539 5.27155 340.772 5.27155 221.405C5.27155 102.038 102.038 5.27155 221.405 5.27155C340.772 5.27155 437.539 102.038 437.539 221.405Z" fill="white"/>
<path d="M337.037 215.092C336.951 225.902 298.637 234.897 247.351 237.146C245.881 237.232 238.356 237.665 221.665 237.665C208.259 237.665 198.919 237.232 195.546 237.059C169.859 235.935 147.373 233.081 131.373 229.275C115.373 225.47 105.773 220.54 105.773 215.092C105.773 204.367 144.173 195.459 195.546 193.124V228.065C198.919 228.324 208.519 228.929 221.838 228.929C237.837 228.929 245.794 228.238 247.351 228.065V193.124C298.81 195.459 337.037 204.367 337.037 215.092ZM442.81 221.405C442.81 343.697 343.697 442.81 221.405 442.81C99.1134 442.81 0 343.697 0 221.405C0 99.1134 99.1134 0 221.405 0C343.697 0 442.81 99.1134 442.81 221.405ZM349.145 217.686C349.145 203.848 305.556 192.346 247.351 189.665V158.443H318.875V110.703H124.021V158.443H195.546V189.665C137.427 192.346 93.6647 203.848 93.6647 217.6C93.6647 231.438 137.427 242.94 195.546 245.621V345.945H247.351V245.708C305.556 243.027 349.145 231.524 349.145 217.686Z" fill="#76C5B8"/>
<path d="M387.458 262.38C456.543 262.38 512.539 318.375 512.539 387.46C512.539 456.545 456.543 512.541 387.458 512.541C318.373 512.541 262.378 456.545 262.378 387.46C262.378 318.375 318.373 262.38 387.458 262.38Z" fill="#F0B90B" stroke="white" stroke-width="1.08"/>
<path d="M331.378 387.453L331.468 420.384L359.45 436.85V456.13L315.092 430.114V377.823L331.378 387.453ZM331.378 354.522V373.712L315.082 364.072V344.882L331.378 335.242L347.754 344.882L331.378 354.522ZM371.135 344.882L387.431 335.242L403.807 344.882L387.431 354.522L371.135 344.882Z" fill="white"/>
<path d="M343.137 413.559V394.279L359.433 403.919V423.109L343.137 413.559ZM371.118 443.756L387.414 453.396L403.79 443.756V462.946L387.414 472.586L371.118 462.946V443.756ZM427.161 344.882L443.457 335.242L459.833 344.882V364.072L443.457 373.712V354.522L427.161 344.882ZM443.457 420.384L443.547 387.453L459.843 377.814V430.104L415.485 456.12V436.84L443.457 420.384Z" fill="white"/>
<path d="M431.811 413.546L415.516 423.095V403.905L431.811 394.266V413.546Z" fill="white"/>
<path d="M431.771 361.353L431.861 380.633L403.8 397.098V430.11L387.504 439.66L371.208 430.11V397.098L343.146 380.633V361.353L359.512 351.713L387.404 368.259L415.465 351.713L431.842 361.353H431.771ZM343.137 328.432L387.414 302.326L431.771 328.432L415.476 338.072L387.414 321.526L359.433 338.072L343.137 328.432Z" fill="white"/>
</svg>
