<svg width="514" height="514" viewBox="0 0 514 514" fill="none" xmlns="http://www.w3.org/2000/svg">
<path d="M437.538 221.405C437.538 340.772 340.772 437.538 221.405 437.538C102.038 437.538 5.27154 340.772 5.27154 221.405C5.27154 102.038 102.038 5.27154 221.405 5.27154C340.772 5.27154 437.538 102.038 437.538 221.405Z" fill="white"/>
<path d="M337.037 215.091C336.951 225.902 298.637 234.897 247.351 237.145C245.88 237.232 238.356 237.664 221.664 237.664C208.259 237.664 198.918 237.232 195.545 237.059C169.859 235.935 147.373 233.081 131.373 229.275C115.373 225.47 105.773 220.54 105.773 215.091C105.773 204.367 144.173 195.459 195.545 193.124V228.064C198.918 228.324 208.518 228.929 221.837 228.929C237.837 228.929 245.794 228.237 247.351 228.064V193.124C298.81 195.459 337.037 204.367 337.037 215.091ZM442.81 221.405C442.81 343.696 343.696 442.81 221.405 442.81C99.1133 442.81 0 343.696 0 221.405C0 99.1133 99.1133 0 221.405 0C343.696 0 442.81 99.1133 442.81 221.405ZM349.145 217.686C349.145 203.848 305.556 192.345 247.351 189.664V158.443H318.875V110.702H124.021V158.443H195.545V189.664C137.427 192.345 93.6646 203.848 93.6646 217.599C93.6646 231.437 137.427 242.94 195.545 245.621V345.945H247.351V245.708C305.556 243.026 349.145 231.524 349.145 217.686Z" fill="#76C5B8"/>
<path d="M387.462 262.378C456.702 262.378 512.542 318.218 512.542 387.458C512.542 456.698 456.702 512.538 387.462 512.538C318.222 512.538 262.382 456.698 262.382 387.458C262.382 318.218 318.222 262.378 387.462 262.378Z" fill="#0098EA" stroke="white" stroke-width="1.08"/>
<path d="M430.176 332.293H344.777C329.21 332.293 319.425 349.195 326.986 362.983L379.471 454.164C383.029 459.947 391.48 459.947 395.038 454.164L447.523 362.983C455.529 349.195 445.744 332.293 430.176 332.293ZM379.916 426.588L368.351 404.348L340.774 354.977C338.995 351.864 341.219 347.86 345.222 347.86H379.916V426.588ZM434.18 354.977L406.603 404.348L395.038 426.588V347.86H429.732C433.735 347.86 435.959 351.864 434.18 354.977Z" fill="white"/>
</svg>
